<?xml version="1.0" encoding="UTF-8" standalone="no"?>
<!DOCTYPE svg PUBLIC "-//W3C//DTD SVG 1.1//EN"
 "http://www.w3.org/Graphics/SVG/1.1/DTD/svg11.dtd">
<!-- Generated by graphviz version 12.0.0 (20240704.0754)
 -->
<!-- Title: Simple.Timeline.TimelineMixer Pages: 1 -->
<svg width="123pt" height="152pt"
 viewBox="0.00 0.00 123.00 152.00" xmlns="http://www.w3.org/2000/svg" xmlns:xlink="http://www.w3.org/1999/xlink">
<g id="graph0" class="graph" transform="scale(1 1) rotate(0) translate(4 148)">
<title>Simple.Timeline.TimelineMixer</title>
<!-- Node1 -->
<g id="node1" class="node">
<title>Node1</title>
<g id="a_node1"><a xlink:title=" ">
<polygon fill="#bfbfbf" stroke="black" points="0,-0.5 0,-31 115,-31 115,-0.5 0,-0.5"/>
<text text-anchor="start" x="8" y="-17.5" font-family="Helvetica,sans-Serif" font-size="10.00">Simple.Timeline.Timeline</text>
<text text-anchor="middle" x="57.5" y="-6.25" font-family="Helvetica,sans-Serif" font-size="10.00">Mixer</text>
</a>
</g>
</g>
<!-- Node2 -->
<g id="node2" class="node">
<title>Node2</title>
<g id="a_node2"><a xlink:href="class_simple_1_1_timeline_1_1_timeline_component.html" target="_top" xlink:title=" ">
<polygon fill="none" stroke="#bfbfbf" points="8.25,-68 8.25,-87.25 106.75,-87.25 106.75,-68 8.25,-68"/>
<text text-anchor="middle" x="57.5" y="-73.75" font-family="Helvetica,sans-Serif" font-size="10.00">TimelineComponent</text>
</a>
</g>
</g>
<!-- Node2&#45;&gt;Node1 -->
<g id="edge1" class="edge">
<title>Node2&#45;&gt;Node1</title>
<path fill="none" stroke="midnightblue" d="M57.5,-56.19C57.5,-47.93 57.5,-38.59 57.5,-31.07"/>
<polygon fill="midnightblue" stroke="midnightblue" points="54,-56.02 57.5,-66.02 61,-56.02 54,-56.02"/>
</g>
<!-- Node3 -->
<g id="node3" class="node">
<title>Node3</title>
<g id="a_node3"><a xlink:title=" ">
<polygon fill="none" stroke="#bfbfbf" points="16.12,-124.25 16.12,-143.5 98.88,-143.5 98.88,-124.25 16.12,-124.25"/>
<text text-anchor="middle" x="57.5" y="-130" font-family="Helvetica,sans-Serif" font-size="10.00">MonoBehaviour</text>
</a>
</g>
</g>
<!-- Node3&#45;&gt;Node2 -->
<g id="edge2" class="edge">
<title>Node3&#45;&gt;Node2</title>
<path fill="none" stroke="midnightblue" d="M57.5,-112.69C57.5,-103.98 57.5,-94.24 57.5,-87.42"/>
<polygon fill="midnightblue" stroke="midnightblue" points="54,-112.4 57.5,-122.4 61,-112.4 54,-112.4"/>
</g>
</g>
</svg>
