<?xml version="1.0" encoding="UTF-8" standalone="no"?>
<!DOCTYPE svg PUBLIC "-//W3C//DTD SVG 1.1//EN"
 "http://www.w3.org/Graphics/SVG/1.1/DTD/svg11.dtd">
<!-- Generated by graphviz version 12.0.0 (20240704.0754)
 -->
<!-- Title: AudioTrackProcessor Pages: 1 -->
<svg width="113pt" height="141pt"
 viewBox="0.00 0.00 112.50 140.75" xmlns="http://www.w3.org/2000/svg" xmlns:xlink="http://www.w3.org/1999/xlink">
<g id="graph0" class="graph" transform="scale(1 1) rotate(0) translate(4 136.75)">
<title>AudioTrackProcessor</title>
<!-- Node1 -->
<g id="node1" class="node">
<title>Node1</title>
<g id="a_node1"><a xlink:title="Processes audio tracks and connects them to the correct mixer on the playable graph....">
<polygon fill="#bfbfbf" stroke="black" points="0,-0.5 0,-19.75 104.5,-19.75 104.5,-0.5 0,-0.5"/>
<text text-anchor="middle" x="52.25" y="-6.25" font-family="Helvetica,sans-Serif" font-size="10.00">AudioTrackProcessor</text>
</a>
</g>
</g>
<!-- Node2 -->
<g id="node2" class="node">
<title>Node2</title>
<g id="a_node2"><a xlink:href="class_track_processor.html" target="_top" xlink:title="Track processor for timeline tracks that do not have a custom track processor, this will connect all ...">
<polygon fill="none" stroke="black" points="12,-56.75 12,-76 92.5,-76 92.5,-56.75 12,-56.75"/>
<text text-anchor="middle" x="52.25" y="-62.5" font-family="Helvetica,sans-Serif" font-size="10.00">TrackProcessor</text>
</a>
</g>
</g>
<!-- Node2&#45;&gt;Node1 -->
<g id="edge1" class="edge">
<title>Node2&#45;&gt;Node1</title>
<path fill="none" stroke="midnightblue" d="M52.25,-45.19C52.25,-36.48 52.25,-26.74 52.25,-19.92"/>
<polygon fill="midnightblue" stroke="midnightblue" points="48.75,-44.9 52.25,-54.9 55.75,-44.9 48.75,-44.9"/>
</g>
<!-- Node3 -->
<g id="node3" class="node">
<title>Node3</title>
<g id="a_node3"><a xlink:href="interface_simple_1_1_timeline_1_1_i_track_processor.html" target="_top" xlink:title=" ">
<polygon fill="none" stroke="#bfbfbf" points="10.5,-113 10.5,-132.25 94,-132.25 94,-113 10.5,-113"/>
<text text-anchor="middle" x="52.25" y="-118.75" font-family="Helvetica,sans-Serif" font-size="10.00">ITrackProcessor</text>
</a>
</g>
</g>
<!-- Node3&#45;&gt;Node2 -->
<g id="edge2" class="edge">
<title>Node3&#45;&gt;Node2</title>
<path fill="none" stroke="midnightblue" d="M52.25,-101.44C52.25,-92.73 52.25,-82.99 52.25,-76.17"/>
<polygon fill="midnightblue" stroke="midnightblue" points="48.75,-101.15 52.25,-111.15 55.75,-101.15 48.75,-101.15"/>
</g>
</g>
</svg>
