<?xml version="1.0" encoding="UTF-8" standalone="no"?>
<!DOCTYPE svg PUBLIC "-//W3C//DTD SVG 1.1//EN"
 "http://www.w3.org/Graphics/SVG/1.1/DTD/svg11.dtd">
<!-- Generated by graphviz version 12.0.0 (20240704.0754)
 -->
<!-- Title: MarkerTrackProcessor Pages: 1 -->
<svg width="117pt" height="141pt"
 viewBox="0.00 0.00 117.00 140.75" xmlns="http://www.w3.org/2000/svg" xmlns:xlink="http://www.w3.org/1999/xlink">
<g id="graph0" class="graph" transform="scale(1 1) rotate(0) translate(4 136.75)">
<title>MarkerTrackProcessor</title>
<!-- Node1 -->
<g id="node1" class="node">
<title>Node1</title>
<g id="a_node1"><a xlink:title="This track processor will connect the marker track to the graph.">
<polygon fill="#bfbfbf" stroke="black" points="0,-0.5 0,-19.75 109,-19.75 109,-0.5 0,-0.5"/>
<text text-anchor="middle" x="54.5" y="-6.25" font-family="Helvetica,sans-Serif" font-size="10.00">MarkerTrackProcessor</text>
</a>
</g>
</g>
<!-- Node2 -->
<g id="node2" class="node">
<title>Node2</title>
<g id="a_node2"><a xlink:href="class_track_processor.html" target="_top" xlink:title="Track processor for timeline tracks that do not have a custom track processor, this will connect all ...">
<polygon fill="none" stroke="black" points="14.25,-56.75 14.25,-76 94.75,-76 94.75,-56.75 14.25,-56.75"/>
<text text-anchor="middle" x="54.5" y="-62.5" font-family="Helvetica,sans-Serif" font-size="10.00">TrackProcessor</text>
</a>
</g>
</g>
<!-- Node2&#45;&gt;Node1 -->
<g id="edge1" class="edge">
<title>Node2&#45;&gt;Node1</title>
<path fill="none" stroke="midnightblue" d="M54.5,-45.19C54.5,-36.48 54.5,-26.74 54.5,-19.92"/>
<polygon fill="midnightblue" stroke="midnightblue" points="51,-44.9 54.5,-54.9 58,-44.9 51,-44.9"/>
</g>
<!-- Node3 -->
<g id="node3" class="node">
<title>Node3</title>
<g id="a_node3"><a xlink:href="interface_timeline_mixer_1_1_i_track_processor.html" target="_top" xlink:title=" ">
<polygon fill="none" stroke="#bfbfbf" points="12.75,-113 12.75,-132.25 96.25,-132.25 96.25,-113 12.75,-113"/>
<text text-anchor="middle" x="54.5" y="-118.75" font-family="Helvetica,sans-Serif" font-size="10.00">ITrackProcessor</text>
</a>
</g>
</g>
<!-- Node3&#45;&gt;Node2 -->
<g id="edge2" class="edge">
<title>Node3&#45;&gt;Node2</title>
<path fill="none" stroke="midnightblue" d="M54.5,-101.44C54.5,-92.73 54.5,-82.99 54.5,-76.17"/>
<polygon fill="midnightblue" stroke="midnightblue" points="51,-101.15 54.5,-111.15 58,-101.15 51,-101.15"/>
</g>
</g>
</svg>
