<?xml version="1.0" encoding="UTF-8" standalone="no"?>
<!DOCTYPE svg PUBLIC "-//W3C//DTD SVG 1.1//EN"
 "http://www.w3.org/Graphics/SVG/1.1/DTD/svg11.dtd">
<!-- Generated by graphviz version 12.0.0 (20240704.0754)
 -->
<!-- Title: TimelineMixerEditor Pages: 1 -->
<svg width="1238pt" height="181pt"
 viewBox="0.00 0.00 1237.50 180.59" xmlns="http://www.w3.org/2000/svg" xmlns:xlink="http://www.w3.org/1999/xlink">
<g id="graph0" class="graph" transform="scale(1 1) rotate(0) translate(4 176.59)">
<title>TimelineMixerEditor</title>
<!-- Node1 -->
<g id="node1" class="node">
<title>Node1</title>
<g id="a_node1"><a xlink:title=" ">
<polygon fill="#bfbfbf" stroke="black" points="1134.75,-86.84 1134.75,-106.09 1229.5,-106.09 1229.5,-86.84 1134.75,-86.84"/>
<text text-anchor="middle" x="1182.12" y="-92.59" font-family="Helvetica,sans-Serif" font-size="10.00">TimelineMixerEditor</text>
</a>
</g>
</g>
<!-- Node2 -->
<g id="node2" class="node">
<title>Node2</title>
<g id="a_node2"><a xlink:title=" ">
<polygon fill="none" stroke="#bfbfbf" points="966.12,-108.84 966.12,-128.09 1005.38,-128.09 1005.38,-108.84 966.12,-108.84"/>
<text text-anchor="middle" x="985.75" y="-114.59" font-family="Helvetica,sans-Serif" font-size="10.00">Editor</text>
</a>
</g>
</g>
<!-- Node2&#45;&gt;Node1 -->
<g id="edge1" class="edge">
<title>Node2&#45;&gt;Node1</title>
<path fill="none" stroke="midnightblue" d="M1016.83,-115.06C1048.29,-111.5 1098.07,-105.86 1134.6,-101.73"/>
<polygon fill="midnightblue" stroke="midnightblue" points="1016.79,-111.54 1007.25,-116.14 1017.58,-118.5 1016.79,-111.54"/>
</g>
<!-- Node3 -->
<g id="node3" class="node">
<title>Node3</title>
<g id="a_node3"><a xlink:href="class_simple_1_1_timeline_1_1_timeline_mixer.html" target="_top" xlink:title=" ">
<polygon fill="none" stroke="#bfbfbf" points="928.25,-59.21 928.25,-89.71 1043.25,-89.71 1043.25,-59.21 928.25,-59.21"/>
<text text-anchor="start" x="936.25" y="-76.21" font-family="Helvetica,sans-Serif" font-size="10.00">Simple.Timeline.Timeline</text>
<text text-anchor="middle" x="985.75" y="-64.96" font-family="Helvetica,sans-Serif" font-size="10.00">Mixer</text>
</a>
</g>
</g>
<!-- Node3&#45;&gt;Node1 -->
<g id="edge2" class="edge">
<title>Node3&#45;&gt;Node1</title>
<path fill="none" stroke="#9a32cd" stroke-dasharray="5,2" d="M1054.91,-81.38C1074.85,-83.49 1096.68,-85.87 1116.75,-88.21 1122.46,-88.88 1128.45,-89.61 1134.38,-90.35"/>
<polygon fill="#9a32cd" stroke="#9a32cd" points="1055.55,-77.93 1045.24,-80.37 1054.82,-84.89 1055.55,-77.93"/>
<text text-anchor="middle" x="1089" y="-89.21" font-family="Helvetica,sans-Serif" font-size="10.00"> timelineMixer</text>
</g>
<!-- Node4 -->
<g id="node4" class="node">
<title>Node4</title>
<g id="a_node4"><a xlink:href="class_simple_1_1_timeline_1_1_timeline_component.html" target="_top" xlink:title=" ">
<polygon fill="none" stroke="#bfbfbf" points="792.75,-64.84 792.75,-84.09 891.25,-84.09 891.25,-64.84 792.75,-64.84"/>
<text text-anchor="middle" x="842" y="-70.59" font-family="Helvetica,sans-Serif" font-size="10.00">TimelineComponent</text>
</a>
</g>
</g>
<!-- Node4&#45;&gt;Node3 -->
<g id="edge3" class="edge">
<title>Node4&#45;&gt;Node3</title>
<path fill="none" stroke="midnightblue" d="M902.87,-74.46C911.12,-74.46 919.58,-74.46 927.78,-74.46"/>
<polygon fill="midnightblue" stroke="midnightblue" points="902.9,-70.96 892.9,-74.46 902.9,-77.96 902.9,-70.96"/>
</g>
<!-- Node5 -->
<g id="node5" class="node">
<title>Node5</title>
<g id="a_node5"><a xlink:title=" ">
<polygon fill="none" stroke="#bfbfbf" points="33.38,-152.84 33.38,-172.09 116.12,-172.09 116.12,-152.84 33.38,-152.84"/>
<text text-anchor="middle" x="74.75" y="-158.59" font-family="Helvetica,sans-Serif" font-size="10.00">MonoBehaviour</text>
</a>
</g>
</g>
<!-- Node5&#45;&gt;Node4 -->
<g id="edge4" class="edge">
<title>Node5&#45;&gt;Node4</title>
<path fill="none" stroke="midnightblue" d="M127.53,-162.6C192.45,-162.31 307.11,-160.25 404.75,-150.46 570.58,-133.84 611.18,-121.43 774.75,-89.46 782.39,-87.97 790.49,-86.25 798.31,-84.52"/>
<polygon fill="midnightblue" stroke="midnightblue" points="127.88,-159.1 117.9,-162.63 127.91,-166.1 127.88,-159.1"/>
</g>
<!-- Node11 -->
<g id="node11" class="node">
<title>Node11</title>
<g id="a_node11"><a xlink:href="class_simple_1_1_timeline_1_1_timeline_component.html" target="_top" xlink:title=" ">
<polygon fill="none" stroke="#bfbfbf" points="274,-22.21 274,-52.71 389,-52.71 389,-22.21 274,-22.21"/>
<text text-anchor="start" x="282" y="-39.21" font-family="Helvetica,sans-Serif" font-size="10.00">Simple.Timeline.Timeline</text>
<text text-anchor="middle" x="331.5" y="-27.96" font-family="Helvetica,sans-Serif" font-size="10.00">Component</text>
</a>
</g>
</g>
<!-- Node5&#45;&gt;Node11 -->
<g id="edge11" class="edge">
<title>Node5&#45;&gt;Node11</title>
<path fill="none" stroke="midnightblue" d="M127.74,-158.33C169.66,-153.94 224.18,-145.5 240.25,-130.46 263.08,-109.1 236.98,-85.37 258.25,-62.46 262.58,-57.79 267.83,-54 273.5,-50.91"/>
<polygon fill="midnightblue" stroke="midnightblue" points="127.41,-154.84 117.8,-159.31 128.1,-161.81 127.41,-154.84"/>
</g>
<!-- Node6 -->
<g id="node6" class="node">
<title>Node6</title>
<g id="a_node6"><a xlink:href="class_event_variable.html" target="_top" xlink:title=" ">
<polygon fill="none" stroke="black" points="16.5,-3.84 16.5,-23.09 133,-23.09 133,-3.84 16.5,-3.84"/>
<text text-anchor="middle" x="74.75" y="-9.59" font-family="Helvetica,sans-Serif" font-size="10.00">EventVariable&lt; Mode &gt;</text>
</a>
</g>
</g>
<!-- Node6&#45;&gt;Node4 -->
<g id="edge5" class="edge">
<title>Node6&#45;&gt;Node4</title>
<path fill="none" stroke="#9a32cd" stroke-dasharray="5,2" d="M144.67,-7.75C233.12,-1.55 391.19,5.74 525.5,-8.21 628.21,-18.88 746.75,-48.58 804.95,-64.34"/>
<polygon fill="#9a32cd" stroke="#9a32cd" points="144.68,-4.24 134.96,-8.45 145.19,-11.23 144.68,-4.24"/>
<text text-anchor="middle" x="474.12" y="-9.21" font-family="Helvetica,sans-Serif" font-size="10.00"> currentMode</text>
</g>
<!-- Node6&#45;&gt;Node11 -->
<g id="edge12" class="edge">
<title>Node6&#45;&gt;Node11</title>
<path fill="none" stroke="#9a32cd" stroke-dasharray="5,2" d="M144.62,-19.95C185.05,-23.76 235.52,-28.51 273.66,-32.11"/>
<polygon fill="#9a32cd" stroke="#9a32cd" points="145.03,-16.47 134.75,-19.02 144.37,-23.44 145.03,-16.47"/>
<text text-anchor="middle" x="203.88" y="-29.21" font-family="Helvetica,sans-Serif" font-size="10.00"> currentMode</text>
</g>
<!-- Node7 -->
<g id="node7" class="node">
<title>Node7</title>
<g id="a_node7"><a xlink:href="class_simple_1_1_timeline_1_1_timeline_mixer_playable.html" target="_top" xlink:title=" ">
<polygon fill="none" stroke="#bfbfbf" points="543.5,-59.21 543.5,-89.71 658.5,-89.71 658.5,-59.21 543.5,-59.21"/>
<text text-anchor="start" x="551.5" y="-76.21" font-family="Helvetica,sans-Serif" font-size="10.00">Simple.Timeline.Timeline</text>
<text text-anchor="middle" x="601" y="-64.96" font-family="Helvetica,sans-Serif" font-size="10.00">MixerPlayable</text>
</a>
</g>
</g>
<!-- Node7&#45;&gt;Node4 -->
<g id="edge6" class="edge">
<title>Node7&#45;&gt;Node4</title>
<path fill="none" stroke="#9a32cd" stroke-dasharray="5,2" d="M670.23,-74.46C709.29,-74.46 757.38,-74.46 792.56,-74.46"/>
<polygon fill="#9a32cd" stroke="#9a32cd" points="670.46,-70.96 660.46,-74.46 670.46,-77.96 670.46,-70.96"/>
<text text-anchor="middle" x="725.62" y="-76.21" font-family="Helvetica,sans-Serif" font-size="10.00"> timelineMixerBehaviour</text>
</g>
<!-- Node7&#45;&gt;Node11 -->
<g id="edge13" class="edge">
<title>Node7&#45;&gt;Node11</title>
<path fill="none" stroke="#9a32cd" stroke-dasharray="5,2" d="M569.79,-52.62C556.82,-44.52 541.08,-36.32 525.5,-32.21 480.77,-20.41 428.18,-22.86 389.21,-27.62"/>
<polygon fill="#9a32cd" stroke="#9a32cd" points="567.57,-55.35 577.86,-57.89 571.4,-49.49 567.57,-55.35"/>
<text text-anchor="middle" x="474.12" y="-33.21" font-family="Helvetica,sans-Serif" font-size="10.00"> timelineMixerBehaviour</text>
</g>
<!-- Node8 -->
<g id="node8" class="node">
<title>Node8</title>
<g id="a_node8"><a xlink:title=" ">
<polygon fill="none" stroke="#bfbfbf" points="283,-71.84 283,-91.09 380,-91.09 380,-71.84 283,-71.84"/>
<text text-anchor="middle" x="331.5" y="-77.59" font-family="Helvetica,sans-Serif" font-size="10.00">PlayableBehaviour</text>
</a>
</g>
</g>
<!-- Node8&#45;&gt;Node7 -->
<g id="edge7" class="edge">
<title>Node8&#45;&gt;Node7</title>
<path fill="none" stroke="midnightblue" d="M391.72,-79.91C436.91,-78.73 498.76,-77.11 543.31,-75.95"/>
<polygon fill="midnightblue" stroke="midnightblue" points="391.74,-76.41 381.84,-80.17 391.92,-83.41 391.74,-76.41"/>
</g>
<!-- Node9 -->
<g id="node9" class="node">
<title>Node9</title>
<g id="a_node9"><a xlink:href="class_simple_1_1_timeline_1_1_track_processor_manager.html" target="_top" xlink:title="Automatically discovers all classes that inherit from TrackProcessor and have the TrackProcessor attr...">
<polygon fill="none" stroke="black" points="258.25,-110.21 258.25,-140.71 404.75,-140.71 404.75,-110.21 258.25,-110.21"/>
<text text-anchor="start" x="266.25" y="-127.21" font-family="Helvetica,sans-Serif" font-size="10.00">Simple.Timeline.TrackProcessor</text>
<text text-anchor="middle" x="331.5" y="-115.96" font-family="Helvetica,sans-Serif" font-size="10.00">Manager</text>
</a>
</g>
</g>
<!-- Node9&#45;&gt;Node7 -->
<g id="edge8" class="edge">
<title>Node9&#45;&gt;Node7</title>
<path fill="none" stroke="#9a32cd" stroke-dasharray="5,2" d="M416.35,-111.63C450.31,-105.78 489.85,-98.67 525.5,-91.46 531.22,-90.31 537.18,-89.05 543.12,-87.75"/>
<polygon fill="#9a32cd" stroke="#9a32cd" points="415.82,-108.17 406.56,-113.31 417,-115.07 415.82,-108.17"/>
<text text-anchor="middle" x="474.12" y="-111.21" font-family="Helvetica,sans-Serif" font-size="10.00"> trackProcessorManager</text>
</g>
<!-- Node10 -->
<g id="node10" class="node">
<title>Node10</title>
<g id="a_node10"><a xlink:href="interface_simple_1_1_timeline_1_1_i_track_processor.html" target="_top" xlink:title=" ">
<polygon fill="none" stroke="#bfbfbf" points="0,-108.84 0,-128.09 149.5,-128.09 149.5,-108.84 0,-108.84"/>
<text text-anchor="middle" x="74.75" y="-114.59" font-family="Helvetica,sans-Serif" font-size="10.00">Simple.Timeline.ITrackProcessor</text>
</a>
</g>
</g>
<!-- Node10&#45;&gt;Node9 -->
<g id="edge9" class="edge">
<title>Node10&#45;&gt;Node9</title>
<path fill="none" stroke="#9a32cd" stroke-dasharray="5,2" d="M161.17,-120.81C192.6,-121.67 227.87,-122.64 258.05,-123.47"/>
<polygon fill="#9a32cd" stroke="#9a32cd" points="161.38,-117.31 151.29,-120.54 161.19,-124.31 161.38,-117.31"/>
<text text-anchor="middle" x="203.88" y="-124.21" font-family="Helvetica,sans-Serif" font-size="10.00"> defaultProcessor</text>
</g>
<!-- Node11&#45;&gt;Node7 -->
<g id="edge10" class="edge">
<title>Node11&#45;&gt;Node7</title>
<path fill="none" stroke="#9a32cd" stroke-dasharray="5,2" d="M400.36,-44.91C437.41,-49.21 484.05,-54.98 525.5,-61.21 531.22,-62.07 537.17,-63.03 543.11,-64.02"/>
<polygon fill="#9a32cd" stroke="#9a32cd" points="401.03,-41.47 390.69,-43.8 400.23,-48.42 401.03,-41.47"/>
<text text-anchor="middle" x="474.12" y="-62.21" font-family="Helvetica,sans-Serif" font-size="10.00"> timelineMixer</text>
</g>
</g>
</svg>
