<?xml version="1.0" encoding="UTF-8" standalone="no"?>
<!DOCTYPE svg PUBLIC "-//W3C//DTD SVG 1.1//EN"
 "http://www.w3.org/Graphics/SVG/1.1/DTD/svg11.dtd">
<!-- Generated by graphviz version 12.0.0 (20240704.0754)
 -->
<!-- Title: Simple.Timeline.PlayState Pages: 1 -->
<!--zoomable 240 -->
<svg id="main" version="1.1" xmlns="http://www.w3.org/2000/svg" xmlns:xlink="http://www.w3.org/1999/xlink" xml:space="preserve" onload="init(evt)">
<style type="text/css"><![CDATA[
.edge:hover path { stroke: red; }
.edge:hover polygon { stroke: red; fill: red; }
]]></style>
<script type="text/javascript"><![CDATA[
var edges = document.getElementsByTagName('g');
if (edges && edges.length) {
  for (var i=0;i<edges.length;i++) {
    if (edges[i].id.substr(0,4)=='edge') {
      edges[i].setAttribute('class','edge');
    }
  }
}
]]></script>
        <defs>
                <circle id="rim" cx="0" cy="0" r="7"/>
                <circle id="rim2" cx="0" cy="0" r="3.5"/>
                <g id="zoomPlus">
                        <use xlink:href="#rim" fill="#404040">
                                <set attributeName="fill" to="#808080" begin="zoomplus.mouseover" end="zoomplus.mouseout"/>
                        </use>
                        <path d="M-4,0h8M0,-4v8" fill="none" stroke="white" stroke-width="1.5" pointer-events="none"/>
                </g>
                <g id="zoomMin">
                        <use xlink:href="#rim" fill="#404040">
                                <set attributeName="fill" to="#808080" begin="zoomminus.mouseover" end="zoomminus.mouseout"/>
                        </use>
                        <path d="M-4,0h8" fill="none" stroke="white" stroke-width="1.5" pointer-events="none"/>
                </g>
                <g id="dirArrow">
                        <path fill="none" stroke="white" stroke-width="1.5" d="M0,-3.0v7 M-2.5,-0.5L0,-3.0L2.5,-0.5"/>
                </g>
               <g id="resetDef">
                       <use xlink:href="#rim2" fill="#404040">
                               <set attributeName="fill" to="#808080" begin="reset.mouseover" end="reset.mouseout"/>
                       </use>
               </g>
        </defs>

<script type="text/javascript">
var viewWidth = 676;
var viewHeight = 240;
var sectionId = 'dynsection-1';
</script>
<script xlink:href="svgpan.js"/>
<svg id="graph" class="graph">
<g id="viewport">
<title>Simple.Timeline.PlayState</title>
<!-- Node1 -->
<g id="node1" class="node">
<title>Node1</title>
<g id="a_node1"><a xlink:title=" ">
<polygon fill="#bfbfbf" stroke="black" points="543.5,-52.5 543.5,-71.75 667.5,-71.75 667.5,-52.5 543.5,-52.5"/>
<text text-anchor="middle" x="605.5" y="-58.25" font-family="Helvetica,sans-Serif" font-size="10.00">Simple.Timeline.PlayState</text>
</a>
</g>
</g>
<!-- Node2 -->
<g id="node2" class="node">
<title>Node2</title>
<g id="a_node2"><a xlink:href="class_simple_1_1_timeline_1_1_timeline_component.html" target="_top" xlink:title=" ">
<polygon fill="none" stroke="#bfbfbf" points="274,-97.88 274,-128.38 389,-128.38 389,-97.88 274,-97.88"/>
<text text-anchor="start" x="282" y="-114.88" font-family="Helvetica,sans-Serif" font-size="10.00">Simple.Timeline.Timeline</text>
<text text-anchor="middle" x="331.5" y="-103.62" font-family="Helvetica,sans-Serif" font-size="10.00">Component</text>
</a>
</g>
</g>
<!-- Node2&#45;&gt;Node1 -->
<g id="edge1" class="edge">
<title>Node2&#45;&gt;Node1</title>
<path fill="none" stroke="#9a32cd" stroke-dasharray="5,2" d="M379.04,-93.4C392.89,-88.24 408.24,-83.2 422.75,-79.88 462.31,-70.81 507.74,-66.38 543.29,-64.2"/>
<polygon fill="#9a32cd" stroke="#9a32cd" points="377.79,-90.13 369.72,-96.99 380.31,-96.66 377.79,-90.13"/>
<text text-anchor="middle" x="474.12" y="-80.88" font-family="Helvetica,sans-Serif" font-size="10.00"> owner</text>
</g>
<!-- Node5 -->
<g id="node5" class="node">
<title>Node5</title>
<g id="a_node5"><a xlink:href="class_simple_1_1_timeline_1_1_timeline_mixer_playable.html" target="_top" xlink:title=" ">
<polygon fill="none" stroke="#bfbfbf" points="548,-148.88 548,-179.38 663,-179.38 663,-148.88 548,-148.88"/>
<text text-anchor="start" x="556" y="-165.88" font-family="Helvetica,sans-Serif" font-size="10.00">Simple.Timeline.Timeline</text>
<text text-anchor="middle" x="605.5" y="-154.62" font-family="Helvetica,sans-Serif" font-size="10.00">MixerPlayable</text>
</a>
</g>
</g>
<!-- Node2&#45;&gt;Node5 -->
<g id="edge8" class="edge">
<title>Node2&#45;&gt;Node5</title>
<path fill="none" stroke="#9a32cd" stroke-dasharray="5,2" d="M400.43,-125.86C445.88,-134.38 504.99,-145.47 547.88,-153.51"/>
<polygon fill="#9a32cd" stroke="#9a32cd" points="401.15,-122.44 390.68,-124.03 399.86,-129.32 401.15,-122.44"/>
<text text-anchor="middle" x="474.12" y="-149.88" font-family="Helvetica,sans-Serif" font-size="10.00"> timelineMixer</text>
</g>
<!-- Node3 -->
<g id="node3" class="node">
<title>Node3</title>
<g id="a_node3"><a xlink:title=" ">
<polygon fill="none" stroke="#bfbfbf" points="33.38,-125.5 33.38,-144.75 116.12,-144.75 116.12,-125.5 33.38,-125.5"/>
<text text-anchor="middle" x="74.75" y="-131.25" font-family="Helvetica,sans-Serif" font-size="10.00">MonoBehaviour</text>
</a>
</g>
</g>
<!-- Node3&#45;&gt;Node2 -->
<g id="edge2" class="edge">
<title>Node3&#45;&gt;Node2</title>
<path fill="none" stroke="midnightblue" d="M127.75,-130.75C160.12,-128.01 202.61,-124.39 240.25,-121.12 251.06,-120.19 262.6,-119.17 273.69,-118.19"/>
<polygon fill="midnightblue" stroke="midnightblue" points="127.49,-127.26 117.82,-131.59 128.08,-134.23 127.49,-127.26"/>
</g>
<!-- Node4 -->
<g id="node4" class="node">
<title>Node4</title>
<g id="a_node4"><a xlink:href="class_event_variable.html" target="_top" xlink:title=" ">
<polygon fill="none" stroke="black" points="16.5,-87.5 16.5,-106.75 133,-106.75 133,-87.5 16.5,-87.5"/>
<text text-anchor="middle" x="74.75" y="-93.25" font-family="Helvetica,sans-Serif" font-size="10.00">EventVariable&lt; Mode &gt;</text>
</a>
</g>
</g>
<!-- Node4&#45;&gt;Node2 -->
<g id="edge3" class="edge">
<title>Node4&#45;&gt;Node2</title>
<path fill="none" stroke="#9a32cd" stroke-dasharray="5,2" d="M144.62,-101.45C185.05,-103.99 235.52,-107.16 273.66,-109.56"/>
<polygon fill="#9a32cd" stroke="#9a32cd" points="144.95,-97.96 134.75,-100.83 144.51,-104.95 144.95,-97.96"/>
<text text-anchor="middle" x="203.88" y="-107.88" font-family="Helvetica,sans-Serif" font-size="10.00"> currentMode</text>
</g>
<!-- Node5&#45;&gt;Node2 -->
<g id="edge4" class="edge">
<title>Node5&#45;&gt;Node2</title>
<path fill="none" stroke="#9a32cd" stroke-dasharray="5,2" d="M577.65,-141.66C563.18,-131.01 544.44,-119.43 525.5,-113.88 481.13,-100.87 428.51,-101.66 389.43,-105.16"/>
<polygon fill="#9a32cd" stroke="#9a32cd" points="575.24,-144.23 585.31,-147.53 579.5,-138.67 575.24,-144.23"/>
<text text-anchor="middle" x="474.12" y="-114.88" font-family="Helvetica,sans-Serif" font-size="10.00"> timelineMixerBehaviour</text>
</g>
<!-- Node6 -->
<g id="node6" class="node">
<title>Node6</title>
<g id="a_node6"><a xlink:title=" ">
<polygon fill="none" stroke="#bfbfbf" points="283,-212.5 283,-231.75 380,-231.75 380,-212.5 283,-212.5"/>
<text text-anchor="middle" x="331.5" y="-218.25" font-family="Helvetica,sans-Serif" font-size="10.00">PlayableBehaviour</text>
</a>
</g>
</g>
<!-- Node6&#45;&gt;Node5 -->
<g id="edge5" class="edge">
<title>Node6&#45;&gt;Node5</title>
<path fill="none" stroke="midnightblue" d="M391.41,-213.64C429.82,-207.64 480.93,-198.78 525.5,-188.12 535.54,-185.73 546.18,-182.78 556.29,-179.78"/>
<polygon fill="midnightblue" stroke="midnightblue" points="391.26,-210.12 381.91,-215.1 392.33,-217.03 391.26,-210.12"/>
</g>
<!-- Node7 -->
<g id="node7" class="node">
<title>Node7</title>
<g id="a_node7"><a xlink:href="class_simple_1_1_timeline_1_1_track_processor_manager.html" target="_top" xlink:title="Automatically discovers all classes that inherit from TrackProcessor and have the TrackProcessor attr...">
<polygon fill="none" stroke="black" points="258.25,-162.88 258.25,-193.38 404.75,-193.38 404.75,-162.88 258.25,-162.88"/>
<text text-anchor="start" x="266.25" y="-179.88" font-family="Helvetica,sans-Serif" font-size="10.00">Simple.Timeline.TrackProcessor</text>
<text text-anchor="middle" x="331.5" y="-168.62" font-family="Helvetica,sans-Serif" font-size="10.00">Manager</text>
</a>
</g>
</g>
<!-- Node7&#45;&gt;Node5 -->
<g id="edge6" class="edge">
<title>Node7&#45;&gt;Node5</title>
<path fill="none" stroke="#9a32cd" stroke-dasharray="5,2" d="M416.53,-173.8C459.11,-171.61 509.69,-169 547.65,-167.05"/>
<polygon fill="#9a32cd" stroke="#9a32cd" points="416.35,-170.3 406.55,-174.31 416.71,-177.3 416.35,-170.3"/>
<text text-anchor="middle" x="474.12" y="-174.88" font-family="Helvetica,sans-Serif" font-size="10.00"> trackProcessorManager</text>
</g>
<!-- Node8 -->
<g id="node8" class="node">
<title>Node8</title>
<g id="a_node8"><a xlink:href="interface_simple_1_1_timeline_1_1_i_track_processor.html" target="_top" xlink:title=" ">
<polygon fill="none" stroke="#bfbfbf" points="0,-168.5 0,-187.75 149.5,-187.75 149.5,-168.5 0,-168.5"/>
<text text-anchor="middle" x="74.75" y="-174.25" font-family="Helvetica,sans-Serif" font-size="10.00">Simple.Timeline.ITrackProcessor</text>
</a>
</g>
</g>
<!-- Node8&#45;&gt;Node7 -->
<g id="edge7" class="edge">
<title>Node8&#45;&gt;Node7</title>
<path fill="none" stroke="#9a32cd" stroke-dasharray="5,2" d="M161.17,-178.12C192.6,-178.12 227.87,-178.12 258.05,-178.12"/>
<polygon fill="#9a32cd" stroke="#9a32cd" points="161.29,-174.63 151.29,-178.13 161.29,-181.63 161.29,-174.63"/>
<text text-anchor="middle" x="203.88" y="-179.88" font-family="Helvetica,sans-Serif" font-size="10.00"> defaultProcessor</text>
</g>
<!-- Node9 -->
<g id="node9" class="node">
<title>Node9</title>
<g id="a_node9"><a xlink:href="class_simple_1_1_timeline_1_1_playable_connection_info.html" target="_top" xlink:title="Store information about connections on the PlayableGraph and set / get weights between connections">
<polygon fill="none" stroke="black" points="271.38,-29.88 271.38,-60.38 391.62,-60.38 391.62,-29.88 271.38,-29.88"/>
<text text-anchor="start" x="279.38" y="-46.88" font-family="Helvetica,sans-Serif" font-size="10.00">Simple.Timeline.Playable</text>
<text text-anchor="middle" x="331.5" y="-35.62" font-family="Helvetica,sans-Serif" font-size="10.00">ConnectionInfo</text>
</a>
</g>
</g>
<!-- Node9&#45;&gt;Node1 -->
<g id="edge9" class="edge">
<title>Node9&#45;&gt;Node1</title>
<path fill="none" stroke="#9a32cd" stroke-dasharray="5,2" d="M402.87,-42.05C439.52,-41.29 485.03,-41.68 525.5,-45.88 537.9,-47.16 551.22,-49.52 563.33,-52.04"/>
<polygon fill="#9a32cd" stroke="#9a32cd" points="403.22,-38.54 393.3,-42.28 403.39,-45.54 403.22,-38.54"/>
<text text-anchor="middle" x="474.12" y="-46.88" font-family="Helvetica,sans-Serif" font-size="10.00"> currentInfo</text>
</g>
<!-- Node10 -->
<g id="node10" class="node">
<title>Node10</title>
<g id="a_node10"><a xlink:href="class_event_variable.html" target="_top" xlink:title=" ">
<polygon fill="none" stroke="black" points="19.88,-38.5 19.88,-57.75 129.62,-57.75 129.62,-38.5 19.88,-38.5"/>
<text text-anchor="middle" x="74.75" y="-44.25" font-family="Helvetica,sans-Serif" font-size="10.00">EventVariable&lt; float &gt;</text>
</a>
</g>
</g>
<!-- Node10&#45;&gt;Node9 -->
<g id="edge10" class="edge">
<title>Node10&#45;&gt;Node9</title>
<path fill="none" stroke="#9a32cd" stroke-dasharray="5,2" d="M141.59,-47.35C181.55,-46.88 232.14,-46.28 270.91,-45.83"/>
<polygon fill="#9a32cd" stroke="#9a32cd" points="141.56,-43.85 131.6,-47.47 141.64,-50.85 141.56,-43.85"/>
<text text-anchor="middle" x="203.88" y="-47.88" font-family="Helvetica,sans-Serif" font-size="10.00"> weight</text>
</g>
<!-- Node11 -->
<g id="node11" class="node">
<title>Node11</title>
<g id="a_node11"><a xlink:href="class_simple_1_1_timeline_1_1_binding_data.html" target="_top" xlink:title="Gathers information about track bindings from the Playable Director, used to set bindings on the cust...">
<polygon fill="none" stroke="black" points="7.5,-0.5 7.5,-19.75 142,-19.75 142,-0.5 7.5,-0.5"/>
<text text-anchor="middle" x="74.75" y="-6.25" font-family="Helvetica,sans-Serif" font-size="10.00">Simple.Timeline.BindingData</text>
</a>
</g>
</g>
<!-- Node11&#45;&gt;Node9 -->
<g id="edge11" class="edge">
<title>Node11&#45;&gt;Node9</title>
<path fill="none" stroke="#9a32cd" stroke-dasharray="5,2" d="M153.38,-19.41C180.84,-22.83 211.95,-26.86 240.25,-30.88 250.3,-32.3 260.97,-33.91 271.31,-35.51"/>
<polygon fill="#9a32cd" stroke="#9a32cd" points="154.1,-15.98 143.75,-18.22 153.24,-22.92 154.1,-15.98"/>
<text text-anchor="middle" x="203.88" y="-31.88" font-family="Helvetica,sans-Serif" font-size="10.00"> bindingData</text>
</g>
</g>
</svg>
        <g id="navigator" transform="translate(0 0)" fill="#404254">
                <rect fill="#f2f5e9" fill-opacity="0.5" stroke="#606060" stroke-width=".5" x="0" y="0" width="60" height="60"/>
                <use id="zoomplus" xlink:href="#zoomPlus" x="17" y="9" onmousedown="handleZoom(evt,'in')"/>
                <use id="zoomminus" xlink:href="#zoomMin" x="42" y="9" onmousedown="handleZoom(evt,'out')"/>
                <use id="reset" xlink:href="#resetDef" x="30" y="36" onmousedown="handleReset()"/>
                <g id="arrowUp" xlink:href="#dirArrow" transform="translate(30 24)" onmousedown="handlePan(0,-1)">
                  <use xlink:href="#rim" fill="#404040">
                        <set attributeName="fill" to="#808080" begin="arrowUp.mouseover" end="arrowUp.mouseout"/>
                  </use>
                  <path fill="none" stroke="white" stroke-width="1.5" d="M0,-3.0v7 M-2.5,-0.5L0,-3.0L2.5,-0.5"/>
                </g>
                <g id="arrowRight" xlink:href="#dirArrow" transform="rotate(90) translate(36 -43)" onmousedown="handlePan(1,0)">
                  <use xlink:href="#rim" fill="#404040">
                        <set attributeName="fill" to="#808080" begin="arrowRight.mouseover" end="arrowRight.mouseout"/>
                  </use>
                  <path fill="none" stroke="white" stroke-width="1.5" d="M0,-3.0v7 M-2.5,-0.5L0,-3.0L2.5,-0.5"/>
                </g>
                <g id="arrowDown" xlink:href="#dirArrow" transform="rotate(180) translate(-30 -48)" onmousedown="handlePan(0,1)">
                  <use xlink:href="#rim" fill="#404040">
                        <set attributeName="fill" to="#808080" begin="arrowDown.mouseover" end="arrowDown.mouseout"/>
                  </use>
                  <path fill="none" stroke="white" stroke-width="1.5" d="M0,-3.0v7 M-2.5,-0.5L0,-3.0L2.5,-0.5"/>
                </g>
                <g id="arrowLeft" xlink:href="#dirArrow" transform="rotate(270) translate(-36 17)" onmousedown="handlePan(-1,0)">
                  <use xlink:href="#rim" fill="#404040">
                        <set attributeName="fill" to="#808080" begin="arrowLeft.mouseover" end="arrowLeft.mouseout"/>
                  </use>
                  <path fill="none" stroke="white" stroke-width="1.5" d="M0,-3.0v7 M-2.5,-0.5L0,-3.0L2.5,-0.5"/>
                </g>
        </g>
        <svg viewBox="0 0 15 15" width="100%" height="30px" preserveAspectRatio="xMaxYMin meet">
         <g id="arrow_out" transform="scale(0.3 0.3)">
          <a xlink:href="class_simple_1_1_timeline_1_1_play_state__coll__graph_org.svg" target="_base">
           <rect id="button" ry="5" rx="5" y="6" x="6" height="38" width="38"
                fill="#f2f5e9" fill-opacity="0.5" stroke="#606060" stroke-width="1.0"/>
           <path id="arrow"
             d="M 11.500037,31.436501 C 11.940474,20.09759 22.043105,11.32322 32.158766,21.979434 L 37.068811,17.246167 C 37.068811,17.246167 37.088388,32 37.088388,32 L 22.160133,31.978069 C 22.160133,31.978069 26.997745,27.140456 26.997745,27.140456 C 18.528582,18.264221 13.291696,25.230495 11.500037,31.436501 z"
             style="fill:#404040;"/>
          </a>
         </g>
        </svg>
</svg>
