<?xml version="1.0" encoding="UTF-8" standalone="no"?>
<!DOCTYPE svg PUBLIC "-//W3C//DTD SVG 1.1//EN"
 "http://www.w3.org/Graphics/SVG/1.1/DTD/svg11.dtd">
<!-- Generated by graphviz version 12.0.0 (20240704.0754)
 -->
<!-- Title: TimelineMixer.TimelineMixerComponent Pages: 1 -->
<svg width="208pt" height="152pt"
 viewBox="0.00 0.00 208.38 152.00" xmlns="http://www.w3.org/2000/svg" xmlns:xlink="http://www.w3.org/1999/xlink">
<g id="graph0" class="graph" transform="scale(1 1) rotate(0) translate(4 148)">
<title>TimelineMixer.TimelineMixerComponent</title>
<!-- Node1 -->
<g id="node1" class="node">
<title>Node1</title>
<g id="a_node1"><a xlink:title=" ">
<polygon fill="#bfbfbf" stroke="black" points="30.75,-0.5 30.75,-31 160,-31 160,-0.5 30.75,-0.5"/>
<text text-anchor="start" x="38.75" y="-17.5" font-family="Helvetica,sans-Serif" font-size="10.00">TimelineMixer.TimelineMixer</text>
<text text-anchor="middle" x="95.38" y="-6.25" font-family="Helvetica,sans-Serif" font-size="10.00">Component</text>
</a>
</g>
</g>
<!-- Node2 -->
<g id="node2" class="node">
<title>Node2</title>
<g id="a_node2"><a xlink:href="class_timeline_mixer_1_1_timeline_mixer_base.html" target="_top" xlink:title="This component is not intended to be used directly, TimelineMixerComponent inherits this,...">
<polygon fill="none" stroke="black" points="48,-68 48,-87.25 142.75,-87.25 142.75,-68 48,-68"/>
<text text-anchor="middle" x="95.38" y="-73.75" font-family="Helvetica,sans-Serif" font-size="10.00">TimelineMixerBase</text>
</a>
</g>
</g>
<!-- Node2&#45;&gt;Node1 -->
<g id="edge1" class="edge">
<title>Node2&#45;&gt;Node1</title>
<path fill="none" stroke="midnightblue" d="M95.38,-56.19C95.38,-47.93 95.38,-38.59 95.38,-31.07"/>
<polygon fill="midnightblue" stroke="midnightblue" points="91.88,-56.02 95.38,-66.02 98.88,-56.02 91.88,-56.02"/>
</g>
<!-- Node3 -->
<g id="node3" class="node">
<title>Node3</title>
<g id="a_node3"><a xlink:title=" ">
<polygon fill="none" stroke="#bfbfbf" points="0,-124.25 0,-143.5 82.75,-143.5 82.75,-124.25 0,-124.25"/>
<text text-anchor="middle" x="41.38" y="-130" font-family="Helvetica,sans-Serif" font-size="10.00">MonoBehaviour</text>
</a>
</g>
</g>
<!-- Node3&#45;&gt;Node2 -->
<g id="edge2" class="edge">
<title>Node3&#45;&gt;Node2</title>
<path fill="none" stroke="midnightblue" d="M58.23,-115.94C67.64,-106.49 78.97,-95.11 86.62,-87.42"/>
<polygon fill="midnightblue" stroke="midnightblue" points="55.93,-113.29 51.36,-122.84 60.9,-118.23 55.93,-113.29"/>
</g>
<!-- Node4 -->
<g id="node4" class="node">
<title>Node4</title>
<g id="a_node4"><a xlink:title=" ">
<polygon fill="none" stroke="#bfbfbf" points="100.38,-124.25 100.38,-143.5 200.38,-143.5 200.38,-124.25 100.38,-124.25"/>
<text text-anchor="middle" x="150.38" y="-130" font-family="Helvetica,sans-Serif" font-size="10.00">INotificationReceiver</text>
</a>
</g>
</g>
<!-- Node4&#45;&gt;Node2 -->
<g id="edge3" class="edge">
<title>Node4&#45;&gt;Node2</title>
<path fill="none" stroke="midnightblue" d="M133.21,-115.94C123.62,-106.49 112.08,-95.11 104.29,-87.42"/>
<polygon fill="midnightblue" stroke="midnightblue" points="130.64,-118.32 140.22,-122.85 135.55,-113.34 130.64,-118.32"/>
</g>
</g>
</svg>
