<?xml version="1.0" encoding="UTF-8" standalone="no"?>
<!DOCTYPE svg PUBLIC "-//W3C//DTD SVG 1.1//EN"
 "http://www.w3.org/Graphics/SVG/1.1/DTD/svg11.dtd">
<!-- Generated by graphviz version 12.0.0 (20240704.0754)
 -->
<!-- Title: TrackProcessor Pages: 1 -->
<svg width="366pt" height="142pt"
 viewBox="0.00 0.00 365.75 142.25" xmlns="http://www.w3.org/2000/svg" xmlns:xlink="http://www.w3.org/1999/xlink">
<g id="graph0" class="graph" transform="scale(1 1) rotate(0) translate(4 138.25)">
<title>TrackProcessor</title>
<!-- Node1 -->
<g id="node1" class="node">
<title>Node1</title>
<g id="a_node1"><a xlink:title="Track processor for timeline tracks that do not have a custom track processor, this will connect all ...">
<polygon fill="#bfbfbf" stroke="black" points="119.5,-57.5 119.5,-76.75 200,-76.75 200,-57.5 119.5,-57.5"/>
<text text-anchor="middle" x="159.75" y="-63.25" font-family="Helvetica,sans-Serif" font-size="10.00">TrackProcessor</text>
</a>
</g>
</g>
<!-- Node3 -->
<g id="node3" class="node">
<title>Node3</title>
<g id="a_node3"><a xlink:href="class_animation_track_processor.html" target="_top" xlink:title="Processes animation tracks and connects them to the correct mixer on the playable graph....">
<polygon fill="none" stroke="black" points="236,-114.5 236,-133.75 357.75,-133.75 357.75,-114.5 236,-114.5"/>
<text text-anchor="middle" x="296.88" y="-120.25" font-family="Helvetica,sans-Serif" font-size="10.00">AnimationTrackProcessor</text>
</a>
</g>
</g>
<!-- Node1&#45;&gt;Node3 -->
<g id="edge2" class="edge">
<title>Node1&#45;&gt;Node3</title>
<path fill="none" stroke="midnightblue" d="M188.58,-82.52C202.56,-89.91 219.91,-98.56 236,-105.12 243.88,-108.34 252.51,-111.36 260.71,-114"/>
<polygon fill="midnightblue" stroke="midnightblue" points="190.42,-79.54 179.95,-77.89 187.1,-85.7 190.42,-79.54"/>
</g>
<!-- Node4 -->
<g id="node4" class="node">
<title>Node4</title>
<g id="a_node4"><a xlink:href="class_audio_track_processor.html" target="_top" xlink:title="Processes audio tracks and connects them to the correct mixer on the playable graph....">
<polygon fill="none" stroke="black" points="244.62,-76.5 244.62,-95.75 349.12,-95.75 349.12,-76.5 244.62,-76.5"/>
<text text-anchor="middle" x="296.88" y="-82.25" font-family="Helvetica,sans-Serif" font-size="10.00">AudioTrackProcessor</text>
</a>
</g>
</g>
<!-- Node1&#45;&gt;Node4 -->
<g id="edge3" class="edge">
<title>Node1&#45;&gt;Node4</title>
<path fill="none" stroke="midnightblue" d="M211.6,-74.27C222.37,-75.79 233.76,-77.39 244.55,-78.91"/>
<polygon fill="midnightblue" stroke="midnightblue" points="212.09,-70.81 201.7,-72.88 211.11,-77.74 212.09,-70.81"/>
</g>
<!-- Node5 -->
<g id="node5" class="node">
<title>Node5</title>
<g id="a_node5"><a xlink:href="class_marker_track_processor.html" target="_top" xlink:title="This track processor will connect the marker track to the graph.">
<polygon fill="none" stroke="black" points="242.38,-38.5 242.38,-57.75 351.38,-57.75 351.38,-38.5 242.38,-38.5"/>
<text text-anchor="middle" x="296.88" y="-44.25" font-family="Helvetica,sans-Serif" font-size="10.00">MarkerTrackProcessor</text>
</a>
</g>
</g>
<!-- Node1&#45;&gt;Node5 -->
<g id="edge4" class="edge">
<title>Node1&#45;&gt;Node5</title>
<path fill="none" stroke="midnightblue" d="M211.59,-59.98C221.54,-58.58 232.02,-57.1 242.06,-55.69"/>
<polygon fill="midnightblue" stroke="midnightblue" points="211.11,-56.51 201.7,-61.37 212.09,-63.44 211.11,-56.51"/>
</g>
<!-- Node6 -->
<g id="node6" class="node">
<title>Node6</title>
<g id="a_node6"><a xlink:href="class_signal_track_processor.html" target="_top" xlink:title="Setup outputs for Signal tracks">
<polygon fill="none" stroke="black" points="243.5,-0.5 243.5,-19.75 350.25,-19.75 350.25,-0.5 243.5,-0.5"/>
<text text-anchor="middle" x="296.88" y="-6.25" font-family="Helvetica,sans-Serif" font-size="10.00">SignalTrackProcessor</text>
</a>
</g>
</g>
<!-- Node1&#45;&gt;Node6 -->
<g id="edge5" class="edge">
<title>Node1&#45;&gt;Node6</title>
<path fill="none" stroke="midnightblue" d="M188.58,-51.73C202.56,-44.34 219.91,-35.69 236,-29.12 243.88,-25.91 252.51,-22.89 260.71,-20.25"/>
<polygon fill="midnightblue" stroke="midnightblue" points="187.1,-48.55 179.95,-56.36 190.42,-54.71 187.1,-48.55"/>
</g>
<!-- Node2 -->
<g id="node2" class="node">
<title>Node2</title>
<g id="a_node2"><a xlink:href="interface_timeline_mixer_1_1_i_track_processor.html" target="_top" xlink:title=" ">
<polygon fill="none" stroke="#bfbfbf" points="0,-57.5 0,-76.75 83.5,-76.75 83.5,-57.5 0,-57.5"/>
<text text-anchor="middle" x="41.75" y="-63.25" font-family="Helvetica,sans-Serif" font-size="10.00">ITrackProcessor</text>
</a>
</g>
</g>
<!-- Node2&#45;&gt;Node1 -->
<g id="edge1" class="edge">
<title>Node2&#45;&gt;Node1</title>
<path fill="none" stroke="midnightblue" d="M95.22,-67.12C103.28,-67.12 111.49,-67.12 119.21,-67.12"/>
<polygon fill="midnightblue" stroke="midnightblue" points="95.49,-63.63 85.49,-67.13 95.49,-70.63 95.49,-63.63"/>
</g>
</g>
</svg>
