<?xml version="1.0" encoding="UTF-8" standalone="no"?>
<!DOCTYPE svg PUBLIC "-//W3C//DTD SVG 1.1//EN"
 "http://www.w3.org/Graphics/SVG/1.1/DTD/svg11.dtd">
<!-- Generated by graphviz version 12.0.0 (20240704.0754)
 -->
<!-- Title: TimelineMixer.TimelineMixerBase Pages: 1 -->
<svg width="161pt" height="152pt"
 viewBox="0.00 0.00 160.50 152.00" xmlns="http://www.w3.org/2000/svg" xmlns:xlink="http://www.w3.org/1999/xlink">
<g id="graph0" class="graph" transform="scale(1 1) rotate(0) translate(4 148)">
<title>TimelineMixer.TimelineMixerBase</title>
<!-- Node1 -->
<g id="node1" class="node">
<title>Node1</title>
<g id="a_node1"><a xlink:title="This component is not intended to be used directly, TimelineMixerComponent inherits this,...">
<polygon fill="#bfbfbf" stroke="black" points="0,-68 0,-87.25 152.5,-87.25 152.5,-68 0,-68"/>
<text text-anchor="middle" x="76.25" y="-73.75" font-family="Helvetica,sans-Serif" font-size="10.00">TimelineMixer.TimelineMixerBase</text>
</a>
</g>
</g>
<!-- Node3 -->
<g id="node3" class="node">
<title>Node3</title>
<g id="a_node3"><a xlink:href="class_timeline_mixer_1_1_timeline_mixer_component.html" target="_top" xlink:title=" ">
<polygon fill="none" stroke="#bfbfbf" points="11.62,-0.5 11.62,-31 140.88,-31 140.88,-0.5 11.62,-0.5"/>
<text text-anchor="start" x="19.62" y="-17.5" font-family="Helvetica,sans-Serif" font-size="10.00">TimelineMixer.TimelineMixer</text>
<text text-anchor="middle" x="76.25" y="-6.25" font-family="Helvetica,sans-Serif" font-size="10.00">Component</text>
</a>
</g>
</g>
<!-- Node1&#45;&gt;Node3 -->
<g id="edge2" class="edge">
<title>Node1&#45;&gt;Node3</title>
<path fill="none" stroke="midnightblue" d="M76.25,-56.19C76.25,-47.93 76.25,-38.59 76.25,-31.07"/>
<polygon fill="midnightblue" stroke="midnightblue" points="72.75,-56.02 76.25,-66.02 79.75,-56.02 72.75,-56.02"/>
</g>
<!-- Node2 -->
<g id="node2" class="node">
<title>Node2</title>
<g id="a_node2"><a xlink:title=" ">
<polygon fill="none" stroke="#bfbfbf" points="34.88,-124.25 34.88,-143.5 117.62,-143.5 117.62,-124.25 34.88,-124.25"/>
<text text-anchor="middle" x="76.25" y="-130" font-family="Helvetica,sans-Serif" font-size="10.00">MonoBehaviour</text>
</a>
</g>
</g>
<!-- Node2&#45;&gt;Node1 -->
<g id="edge1" class="edge">
<title>Node2&#45;&gt;Node1</title>
<path fill="none" stroke="midnightblue" d="M76.25,-112.69C76.25,-103.98 76.25,-94.24 76.25,-87.42"/>
<polygon fill="midnightblue" stroke="midnightblue" points="72.75,-112.4 76.25,-122.4 79.75,-112.4 72.75,-112.4"/>
</g>
</g>
</svg>
