<?xml version="1.0" encoding="UTF-8" standalone="no"?>
<!DOCTYPE svg PUBLIC "-//W3C//DTD SVG 1.1//EN"
 "http://www.w3.org/Graphics/SVG/1.1/DTD/svg11.dtd">
<!-- Generated by graphviz version 12.0.0 (20240704.0754)
 -->
<!-- Title: TimelineMixer.SignalTrackProcessor Pages: 1 -->
<svg width="131pt" height="152pt"
 viewBox="0.00 0.00 130.50 152.00" xmlns="http://www.w3.org/2000/svg" xmlns:xlink="http://www.w3.org/1999/xlink">
<g id="graph0" class="graph" transform="scale(1 1) rotate(0) translate(4 148)">
<title>TimelineMixer.SignalTrackProcessor</title>
<!-- Node1 -->
<g id="node1" class="node">
<title>Node1</title>
<g id="a_node1"><a xlink:title="Setup outputs for Signal tracks">
<polygon fill="#bfbfbf" stroke="black" points="0,-0.5 0,-31 122.5,-31 122.5,-0.5 0,-0.5"/>
<text text-anchor="start" x="8" y="-17.5" font-family="Helvetica,sans-Serif" font-size="10.00">TimelineMixer.SignalTrack</text>
<text text-anchor="middle" x="61.25" y="-6.25" font-family="Helvetica,sans-Serif" font-size="10.00">Processor</text>
</a>
</g>
</g>
<!-- Node2 -->
<g id="node2" class="node">
<title>Node2</title>
<g id="a_node2"><a xlink:href="class_timeline_mixer_1_1_track_processor.html" target="_top" xlink:title="Track processor for timeline tracks that do not have a custom track processor, this will connect all ...">
<polygon fill="none" stroke="black" points="21,-68 21,-87.25 101.5,-87.25 101.5,-68 21,-68"/>
<text text-anchor="middle" x="61.25" y="-73.75" font-family="Helvetica,sans-Serif" font-size="10.00">TrackProcessor</text>
</a>
</g>
</g>
<!-- Node2&#45;&gt;Node1 -->
<g id="edge1" class="edge">
<title>Node2&#45;&gt;Node1</title>
<path fill="none" stroke="midnightblue" d="M61.25,-56.19C61.25,-47.93 61.25,-38.59 61.25,-31.07"/>
<polygon fill="midnightblue" stroke="midnightblue" points="57.75,-56.02 61.25,-66.02 64.75,-56.02 57.75,-56.02"/>
</g>
<!-- Node3 -->
<g id="node3" class="node">
<title>Node3</title>
<g id="a_node3"><a xlink:href="interface_timeline_mixer_1_1_i_track_processor.html" target="_top" xlink:title=" ">
<polygon fill="none" stroke="#bfbfbf" points="19.5,-124.25 19.5,-143.5 103,-143.5 103,-124.25 19.5,-124.25"/>
<text text-anchor="middle" x="61.25" y="-130" font-family="Helvetica,sans-Serif" font-size="10.00">ITrackProcessor</text>
</a>
</g>
</g>
<!-- Node3&#45;&gt;Node2 -->
<g id="edge2" class="edge">
<title>Node3&#45;&gt;Node2</title>
<path fill="none" stroke="midnightblue" d="M61.25,-112.69C61.25,-103.98 61.25,-94.24 61.25,-87.42"/>
<polygon fill="midnightblue" stroke="midnightblue" points="57.75,-112.4 61.25,-122.4 64.75,-112.4 57.75,-112.4"/>
</g>
</g>
</svg>
