<?xml version="1.0" encoding="UTF-8" standalone="no"?>
<!DOCTYPE svg PUBLIC "-//W3C//DTD SVG 1.1//EN"
 "http://www.w3.org/Graphics/SVG/1.1/DTD/svg11.dtd">
<!-- Generated by graphviz version 12.0.0 (20240704.0754)
 -->
<!-- Title: SignalTrackProcessor Pages: 1 -->
<svg width="115pt" height="141pt"
 viewBox="0.00 0.00 114.75 140.75" xmlns="http://www.w3.org/2000/svg" xmlns:xlink="http://www.w3.org/1999/xlink">
<g id="graph0" class="graph" transform="scale(1 1) rotate(0) translate(4 136.75)">
<title>SignalTrackProcessor</title>
<!-- Node1 -->
<g id="node1" class="node">
<title>Node1</title>
<g id="a_node1"><a xlink:title="Setup outputs for Signal tracks">
<polygon fill="#bfbfbf" stroke="black" points="0,-0.5 0,-19.75 106.75,-19.75 106.75,-0.5 0,-0.5"/>
<text text-anchor="middle" x="53.38" y="-6.25" font-family="Helvetica,sans-Serif" font-size="10.00">SignalTrackProcessor</text>
</a>
</g>
</g>
<!-- Node2 -->
<g id="node2" class="node">
<title>Node2</title>
<g id="a_node2"><a xlink:href="class_track_processor.html" target="_top" xlink:title="Track processor for timeline tracks that do not have a custom track processor, this will connect all ...">
<polygon fill="none" stroke="black" points="13.12,-56.75 13.12,-76 93.62,-76 93.62,-56.75 13.12,-56.75"/>
<text text-anchor="middle" x="53.38" y="-62.5" font-family="Helvetica,sans-Serif" font-size="10.00">TrackProcessor</text>
</a>
</g>
</g>
<!-- Node2&#45;&gt;Node1 -->
<g id="edge1" class="edge">
<title>Node2&#45;&gt;Node1</title>
<path fill="none" stroke="midnightblue" d="M53.38,-45.19C53.38,-36.48 53.38,-26.74 53.38,-19.92"/>
<polygon fill="midnightblue" stroke="midnightblue" points="49.88,-44.9 53.38,-54.9 56.88,-44.9 49.88,-44.9"/>
</g>
<!-- Node3 -->
<g id="node3" class="node">
<title>Node3</title>
<g id="a_node3"><a xlink:href="interface_simple_1_1_timeline_1_1_i_track_processor.html" target="_top" xlink:title=" ">
<polygon fill="none" stroke="#bfbfbf" points="11.62,-113 11.62,-132.25 95.12,-132.25 95.12,-113 11.62,-113"/>
<text text-anchor="middle" x="53.38" y="-118.75" font-family="Helvetica,sans-Serif" font-size="10.00">ITrackProcessor</text>
</a>
</g>
</g>
<!-- Node3&#45;&gt;Node2 -->
<g id="edge2" class="edge">
<title>Node3&#45;&gt;Node2</title>
<path fill="none" stroke="midnightblue" d="M53.38,-101.44C53.38,-92.73 53.38,-82.99 53.38,-76.17"/>
<polygon fill="midnightblue" stroke="midnightblue" points="49.88,-101.15 53.38,-111.15 56.88,-101.15 49.88,-101.15"/>
</g>
</g>
</svg>
