<?xml version="1.0" encoding="UTF-8" standalone="no"?>
<!DOCTYPE svg PUBLIC "-//W3C//DTD SVG 1.1//EN"
 "http://www.w3.org/Graphics/SVG/1.1/DTD/svg11.dtd">
<!-- Generated by graphviz version 12.0.0 (20240704.0754)
 -->
<!-- Title: Simple.Timeline.TimelineComponent Pages: 1 -->
<svg width="123pt" height="163pt"
 viewBox="0.00 0.00 123.00 163.25" xmlns="http://www.w3.org/2000/svg" xmlns:xlink="http://www.w3.org/1999/xlink">
<g id="graph0" class="graph" transform="scale(1 1) rotate(0) translate(4 159.25)">
<title>Simple.Timeline.TimelineComponent</title>
<!-- Node1 -->
<g id="node1" class="node">
<title>Node1</title>
<g id="a_node1"><a xlink:title=" ">
<polygon fill="#bfbfbf" stroke="black" points="0,-68 0,-98.5 115,-98.5 115,-68 0,-68"/>
<text text-anchor="start" x="8" y="-85" font-family="Helvetica,sans-Serif" font-size="10.00">Simple.Timeline.Timeline</text>
<text text-anchor="middle" x="57.5" y="-73.75" font-family="Helvetica,sans-Serif" font-size="10.00">Component</text>
</a>
</g>
</g>
<!-- Node3 -->
<g id="node3" class="node">
<title>Node3</title>
<g id="a_node3"><a xlink:href="class_simple_1_1_timeline_1_1_timeline_mixer.html" target="_top" xlink:title=" ">
<polygon fill="none" stroke="#bfbfbf" points="0,-0.5 0,-31 115,-31 115,-0.5 0,-0.5"/>
<text text-anchor="start" x="8" y="-17.5" font-family="Helvetica,sans-Serif" font-size="10.00">Simple.Timeline.Timeline</text>
<text text-anchor="middle" x="57.5" y="-6.25" font-family="Helvetica,sans-Serif" font-size="10.00">Mixer</text>
</a>
</g>
</g>
<!-- Node1&#45;&gt;Node3 -->
<g id="edge2" class="edge">
<title>Node1&#45;&gt;Node3</title>
<path fill="none" stroke="midnightblue" d="M57.5,-56.34C57.5,-47.8 57.5,-38.62 57.5,-31.25"/>
<polygon fill="midnightblue" stroke="midnightblue" points="54,-56.2 57.5,-66.2 61,-56.2 54,-56.2"/>
</g>
<!-- Node2 -->
<g id="node2" class="node">
<title>Node2</title>
<g id="a_node2"><a xlink:title=" ">
<polygon fill="none" stroke="#bfbfbf" points="16.12,-135.5 16.12,-154.75 98.88,-154.75 98.88,-135.5 16.12,-135.5"/>
<text text-anchor="middle" x="57.5" y="-141.25" font-family="Helvetica,sans-Serif" font-size="10.00">MonoBehaviour</text>
</a>
</g>
</g>
<!-- Node2&#45;&gt;Node1 -->
<g id="edge1" class="edge">
<title>Node2&#45;&gt;Node1</title>
<path fill="none" stroke="midnightblue" d="M57.5,-123.69C57.5,-115.43 57.5,-106.09 57.5,-98.57"/>
<polygon fill="midnightblue" stroke="midnightblue" points="54,-123.52 57.5,-133.52 61,-123.52 54,-123.52"/>
</g>
</g>
</svg>
