<?xml version="1.0" encoding="UTF-8" standalone="no"?>
<!DOCTYPE svg PUBLIC "-//W3C//DTD SVG 1.1//EN"
 "http://www.w3.org/Graphics/SVG/1.1/DTD/svg11.dtd">
<!-- Generated by graphviz version 12.0.0 (20240704.0754)
 -->
<!-- Title: Simple.Timeline.PlayableConnectionInfo Pages: 1 -->
<svg width="270pt" height="107pt"
 viewBox="0.00 0.00 270.12 107.00" xmlns="http://www.w3.org/2000/svg" xmlns:xlink="http://www.w3.org/1999/xlink">
<g id="graph0" class="graph" transform="scale(1 1) rotate(0) translate(4 103)">
<title>Simple.Timeline.PlayableConnectionInfo</title>
<!-- Node1 -->
<g id="node1" class="node">
<title>Node1</title>
<g id="a_node1"><a xlink:title="Store information about connections on the PlayableGraph and set / get weights between connections">
<polygon fill="#bfbfbf" stroke="black" points="64.75,-0.5 64.75,-31 185,-31 185,-0.5 64.75,-0.5"/>
<text text-anchor="start" x="72.75" y="-17.5" font-family="Helvetica,sans-Serif" font-size="10.00">Simple.Timeline.Playable</text>
<text text-anchor="middle" x="124.88" y="-6.25" font-family="Helvetica,sans-Serif" font-size="10.00">ConnectionInfo</text>
</a>
</g>
</g>
<!-- Node2 -->
<g id="node2" class="node">
<title>Node2</title>
<g id="a_node2"><a xlink:href="class_event_variable.html" target="_top" xlink:title=" ">
<polygon fill="none" stroke="black" points="0,-79.25 0,-98.5 109.75,-98.5 109.75,-79.25 0,-79.25"/>
<text text-anchor="middle" x="54.88" y="-85" font-family="Helvetica,sans-Serif" font-size="10.00">EventVariable&lt; float &gt;</text>
</a>
</g>
</g>
<!-- Node2&#45;&gt;Node1 -->
<g id="edge1" class="edge">
<title>Node2&#45;&gt;Node1</title>
<path fill="none" stroke="#9a32cd" stroke-dasharray="5,2" d="M71.57,-70.91C83.43,-58.86 99.19,-42.84 110.5,-31.36"/>
<polygon fill="#9a32cd" stroke="#9a32cd" points="69.32,-68.21 64.8,-77.79 74.31,-73.12 69.32,-68.21"/>
<text text-anchor="middle" x="108.25" y="-51.25" font-family="Helvetica,sans-Serif" font-size="10.00"> weight</text>
</g>
<!-- Node3 -->
<g id="node3" class="node">
<title>Node3</title>
<g id="a_node3"><a xlink:href="class_simple_1_1_timeline_1_1_binding_data.html" target="_top" xlink:title="Gathers information about track bindings from the Playable Director, used to set bindings on the cust...">
<polygon fill="none" stroke="black" points="127.62,-79.25 127.62,-98.5 262.12,-98.5 262.12,-79.25 127.62,-79.25"/>
<text text-anchor="middle" x="194.88" y="-85" font-family="Helvetica,sans-Serif" font-size="10.00">Simple.Timeline.BindingData</text>
</a>
</g>
</g>
<!-- Node3&#45;&gt;Node1 -->
<g id="edge2" class="edge">
<title>Node3&#45;&gt;Node1</title>
<path fill="none" stroke="#9a32cd" stroke-dasharray="5,2" d="M178.18,-70.91C166.32,-58.86 150.56,-42.84 139.25,-31.36"/>
<polygon fill="#9a32cd" stroke="#9a32cd" points="175.44,-73.12 184.95,-77.79 180.43,-68.21 175.44,-73.12"/>
<text text-anchor="middle" x="193.25" y="-51.25" font-family="Helvetica,sans-Serif" font-size="10.00"> bindingData</text>
</g>
</g>
</svg>
