<?xml version="1.0" encoding="UTF-8" standalone="no"?>
<!DOCTYPE svg PUBLIC "-//W3C//DTD SVG 1.1//EN"
 "http://www.w3.org/Graphics/SVG/1.1/DTD/svg11.dtd">
<!-- Generated by graphviz version 12.0.0 (20240704.0754)
 -->
<!-- Title: AnimationTrackProcessor Pages: 1 -->
<svg width="130pt" height="141pt"
 viewBox="0.00 0.00 129.75 140.75" xmlns="http://www.w3.org/2000/svg" xmlns:xlink="http://www.w3.org/1999/xlink">
<g id="graph0" class="graph" transform="scale(1 1) rotate(0) translate(4 136.75)">
<title>AnimationTrackProcessor</title>
<!-- Node1 -->
<g id="node1" class="node">
<title>Node1</title>
<g id="a_node1"><a xlink:title="Processes animation tracks and connects them to the correct mixer on the playable graph....">
<polygon fill="#bfbfbf" stroke="black" points="0,-0.5 0,-19.75 121.75,-19.75 121.75,-0.5 0,-0.5"/>
<text text-anchor="middle" x="60.88" y="-6.25" font-family="Helvetica,sans-Serif" font-size="10.00">AnimationTrackProcessor</text>
</a>
</g>
</g>
<!-- Node2 -->
<g id="node2" class="node">
<title>Node2</title>
<g id="a_node2"><a xlink:href="class_track_processor.html" target="_top" xlink:title="Track processor for timeline tracks that do not have a custom track processor, this will connect all ...">
<polygon fill="none" stroke="black" points="20.62,-56.75 20.62,-76 101.12,-76 101.12,-56.75 20.62,-56.75"/>
<text text-anchor="middle" x="60.88" y="-62.5" font-family="Helvetica,sans-Serif" font-size="10.00">TrackProcessor</text>
</a>
</g>
</g>
<!-- Node2&#45;&gt;Node1 -->
<g id="edge1" class="edge">
<title>Node2&#45;&gt;Node1</title>
<path fill="none" stroke="midnightblue" d="M60.88,-45.19C60.88,-36.48 60.88,-26.74 60.88,-19.92"/>
<polygon fill="midnightblue" stroke="midnightblue" points="57.38,-44.9 60.88,-54.9 64.38,-44.9 57.38,-44.9"/>
</g>
<!-- Node3 -->
<g id="node3" class="node">
<title>Node3</title>
<g id="a_node3"><a xlink:href="interface_simple_1_1_timeline_1_1_i_track_processor.html" target="_top" xlink:title=" ">
<polygon fill="none" stroke="#bfbfbf" points="19.12,-113 19.12,-132.25 102.62,-132.25 102.62,-113 19.12,-113"/>
<text text-anchor="middle" x="60.88" y="-118.75" font-family="Helvetica,sans-Serif" font-size="10.00">ITrackProcessor</text>
</a>
</g>
</g>
<!-- Node3&#45;&gt;Node2 -->
<g id="edge2" class="edge">
<title>Node3&#45;&gt;Node2</title>
<path fill="none" stroke="midnightblue" d="M60.88,-101.44C60.88,-92.73 60.88,-82.99 60.88,-76.17"/>
<polygon fill="midnightblue" stroke="midnightblue" points="57.38,-101.15 60.88,-111.15 64.38,-101.15 57.38,-101.15"/>
</g>
</g>
</svg>
