<?xml version="1.0" encoding="UTF-8" standalone="no"?>
<!DOCTYPE svg PUBLIC "-//W3C//DTD SVG 1.1//EN"
 "http://www.w3.org/Graphics/SVG/1.1/DTD/svg11.dtd">
<!-- Generated by graphviz version 12.0.0 (20240704.0754)
 -->
<!-- Title: Simple.Timeline.FadeTo Pages: 1 -->
<svg width="818pt" height="240pt"
 viewBox="0.00 0.00 817.75 240.25" xmlns="http://www.w3.org/2000/svg" xmlns:xlink="http://www.w3.org/1999/xlink">
<g id="graph0" class="graph" transform="scale(1 1) rotate(0) translate(4 236.25)">
<title>Simple.Timeline.FadeTo</title>
<!-- Node1 -->
<g id="node1" class="node">
<title>Node1</title>
<g id="a_node1"><a xlink:title="Part of a simple state machine that TimelineMixerPlayable makes use of, updates the weights of tracks...">
<polygon fill="#bfbfbf" stroke="black" points="695.5,-52.5 695.5,-71.75 809.75,-71.75 809.75,-52.5 695.5,-52.5"/>
<text text-anchor="middle" x="752.62" y="-58.25" font-family="Helvetica,sans-Serif" font-size="10.00">Simple.Timeline.FadeTo</text>
</a>
</g>
</g>
<!-- Node2 -->
<g id="node2" class="node">
<title>Node2</title>
<g id="a_node2"><a xlink:href="class_simple_1_1_timeline_1_1_play_state.html" target="_top" xlink:title=" ">
<polygon fill="none" stroke="#bfbfbf" points="572,-52.5 572,-71.75 630,-71.75 630,-52.5 572,-52.5"/>
<text text-anchor="middle" x="601" y="-58.25" font-family="Helvetica,sans-Serif" font-size="10.00">PlayState</text>
</a>
</g>
</g>
<!-- Node2&#45;&gt;Node1 -->
<g id="edge1" class="edge">
<title>Node2&#45;&gt;Node1</title>
<path fill="none" stroke="midnightblue" d="M641.81,-62.12C658.12,-62.12 677.31,-62.12 695.04,-62.12"/>
<polygon fill="midnightblue" stroke="midnightblue" points="642.01,-58.63 632.01,-62.13 642.01,-65.63 642.01,-58.63"/>
</g>
<!-- Node3 -->
<g id="node3" class="node">
<title>Node3</title>
<g id="a_node3"><a xlink:href="class_simple_1_1_timeline_1_1_timeline_component.html" target="_top" xlink:title=" ">
<polygon fill="none" stroke="#bfbfbf" points="274,-97.88 274,-128.38 389,-128.38 389,-97.88 274,-97.88"/>
<text text-anchor="start" x="282" y="-114.88" font-family="Helvetica,sans-Serif" font-size="10.00">Simple.Timeline.Timeline</text>
<text text-anchor="middle" x="331.5" y="-103.62" font-family="Helvetica,sans-Serif" font-size="10.00">Component</text>
</a>
</g>
</g>
<!-- Node3&#45;&gt;Node2 -->
<g id="edge2" class="edge">
<title>Node3&#45;&gt;Node2</title>
<path fill="none" stroke="#9a32cd" stroke-dasharray="5,2" d="M379.41,-93.29C393.16,-88.18 408.37,-83.19 422.75,-79.88 474.44,-67.97 536.42,-64.05 571.71,-62.76"/>
<polygon fill="#9a32cd" stroke="#9a32cd" points="378.24,-89.99 370.16,-96.84 380.75,-96.52 378.24,-89.99"/>
<text text-anchor="middle" x="474.12" y="-80.88" font-family="Helvetica,sans-Serif" font-size="10.00"> owner</text>
</g>
<!-- Node6 -->
<g id="node6" class="node">
<title>Node6</title>
<g id="a_node6"><a xlink:href="class_simple_1_1_timeline_1_1_timeline_mixer_playable.html" target="_top" xlink:title=" ">
<polygon fill="none" stroke="#bfbfbf" points="543.5,-148.88 543.5,-179.38 658.5,-179.38 658.5,-148.88 543.5,-148.88"/>
<text text-anchor="start" x="551.5" y="-165.88" font-family="Helvetica,sans-Serif" font-size="10.00">Simple.Timeline.Timeline</text>
<text text-anchor="middle" x="601" y="-154.62" font-family="Helvetica,sans-Serif" font-size="10.00">MixerPlayable</text>
</a>
</g>
</g>
<!-- Node3&#45;&gt;Node6 -->
<g id="edge9" class="edge">
<title>Node3&#45;&gt;Node6</title>
<path fill="none" stroke="#9a32cd" stroke-dasharray="5,2" d="M400.46,-126.08C444.66,-134.51 501.61,-145.37 543.35,-153.32"/>
<polygon fill="#9a32cd" stroke="#9a32cd" points="401.2,-122.66 390.72,-124.22 399.88,-129.54 401.2,-122.66"/>
<text text-anchor="middle" x="474.12" y="-149.88" font-family="Helvetica,sans-Serif" font-size="10.00"> timelineMixer</text>
</g>
<!-- Node4 -->
<g id="node4" class="node">
<title>Node4</title>
<g id="a_node4"><a xlink:title=" ">
<polygon fill="none" stroke="#bfbfbf" points="33.38,-125.5 33.38,-144.75 116.12,-144.75 116.12,-125.5 33.38,-125.5"/>
<text text-anchor="middle" x="74.75" y="-131.25" font-family="Helvetica,sans-Serif" font-size="10.00">MonoBehaviour</text>
</a>
</g>
</g>
<!-- Node4&#45;&gt;Node3 -->
<g id="edge3" class="edge">
<title>Node4&#45;&gt;Node3</title>
<path fill="none" stroke="midnightblue" d="M127.75,-130.75C160.12,-128.01 202.61,-124.39 240.25,-121.12 251.06,-120.19 262.6,-119.17 273.69,-118.19"/>
<polygon fill="midnightblue" stroke="midnightblue" points="127.49,-127.26 117.82,-131.59 128.08,-134.23 127.49,-127.26"/>
</g>
<!-- Node5 -->
<g id="node5" class="node">
<title>Node5</title>
<g id="a_node5"><a xlink:href="class_event_variable.html" target="_top" xlink:title=" ">
<polygon fill="none" stroke="black" points="16.5,-87.5 16.5,-106.75 133,-106.75 133,-87.5 16.5,-87.5"/>
<text text-anchor="middle" x="74.75" y="-93.25" font-family="Helvetica,sans-Serif" font-size="10.00">EventVariable&lt; Mode &gt;</text>
</a>
</g>
</g>
<!-- Node5&#45;&gt;Node3 -->
<g id="edge4" class="edge">
<title>Node5&#45;&gt;Node3</title>
<path fill="none" stroke="#9a32cd" stroke-dasharray="5,2" d="M144.62,-101.45C185.05,-103.99 235.52,-107.16 273.66,-109.56"/>
<polygon fill="#9a32cd" stroke="#9a32cd" points="144.95,-97.96 134.75,-100.83 144.51,-104.95 144.95,-97.96"/>
<text text-anchor="middle" x="203.88" y="-107.88" font-family="Helvetica,sans-Serif" font-size="10.00"> currentMode</text>
</g>
<!-- Node6&#45;&gt;Node3 -->
<g id="edge5" class="edge">
<title>Node6&#45;&gt;Node3</title>
<path fill="none" stroke="#9a32cd" stroke-dasharray="5,2" d="M574.5,-141.38C560.95,-130.82 543.43,-119.39 525.5,-113.88 481.15,-100.22 428.29,-101.12 389.12,-104.82"/>
<polygon fill="#9a32cd" stroke="#9a32cd" points="572.06,-143.9 582.02,-147.51 576.48,-138.48 572.06,-143.9"/>
<text text-anchor="middle" x="474.12" y="-114.88" font-family="Helvetica,sans-Serif" font-size="10.00"> timelineMixerBehaviour</text>
</g>
<!-- Node7 -->
<g id="node7" class="node">
<title>Node7</title>
<g id="a_node7"><a xlink:title=" ">
<polygon fill="none" stroke="#bfbfbf" points="283,-212.5 283,-231.75 380,-231.75 380,-212.5 283,-212.5"/>
<text text-anchor="middle" x="331.5" y="-218.25" font-family="Helvetica,sans-Serif" font-size="10.00">PlayableBehaviour</text>
</a>
</g>
</g>
<!-- Node7&#45;&gt;Node6 -->
<g id="edge6" class="edge">
<title>Node7&#45;&gt;Node6</title>
<path fill="none" stroke="midnightblue" d="M391.47,-213.89C429.91,-207.99 481.02,-199.15 525.5,-188.12 535,-185.77 545.04,-182.84 554.58,-179.85"/>
<polygon fill="midnightblue" stroke="midnightblue" points="391.33,-210.37 381.97,-215.32 392.38,-217.29 391.33,-210.37"/>
</g>
<!-- Node8 -->
<g id="node8" class="node">
<title>Node8</title>
<g id="a_node8"><a xlink:href="class_simple_1_1_timeline_1_1_track_processor_manager.html" target="_top" xlink:title="Automatically discovers all classes that inherit from TrackProcessor and have the TrackProcessor attr...">
<polygon fill="none" stroke="black" points="258.25,-162.88 258.25,-193.38 404.75,-193.38 404.75,-162.88 258.25,-162.88"/>
<text text-anchor="start" x="266.25" y="-179.88" font-family="Helvetica,sans-Serif" font-size="10.00">Simple.Timeline.TrackProcessor</text>
<text text-anchor="middle" x="331.5" y="-168.62" font-family="Helvetica,sans-Serif" font-size="10.00">Manager</text>
</a>
</g>
</g>
<!-- Node8&#45;&gt;Node6 -->
<g id="edge7" class="edge">
<title>Node8&#45;&gt;Node6</title>
<path fill="none" stroke="#9a32cd" stroke-dasharray="5,2" d="M416.68,-173.72C457.96,-171.56 506.59,-169.01 543.39,-167.09"/>
<polygon fill="#9a32cd" stroke="#9a32cd" points="416.56,-170.22 406.75,-174.24 416.92,-177.21 416.56,-170.22"/>
<text text-anchor="middle" x="474.12" y="-174.88" font-family="Helvetica,sans-Serif" font-size="10.00"> trackProcessorManager</text>
</g>
<!-- Node9 -->
<g id="node9" class="node">
<title>Node9</title>
<g id="a_node9"><a xlink:href="interface_simple_1_1_timeline_1_1_i_track_processor.html" target="_top" xlink:title=" ">
<polygon fill="none" stroke="#bfbfbf" points="0,-168.5 0,-187.75 149.5,-187.75 149.5,-168.5 0,-168.5"/>
<text text-anchor="middle" x="74.75" y="-174.25" font-family="Helvetica,sans-Serif" font-size="10.00">Simple.Timeline.ITrackProcessor</text>
</a>
</g>
</g>
<!-- Node9&#45;&gt;Node8 -->
<g id="edge8" class="edge">
<title>Node9&#45;&gt;Node8</title>
<path fill="none" stroke="#9a32cd" stroke-dasharray="5,2" d="M161.17,-178.12C192.6,-178.12 227.87,-178.12 258.05,-178.12"/>
<polygon fill="#9a32cd" stroke="#9a32cd" points="161.29,-174.63 151.29,-178.13 161.29,-181.63 161.29,-174.63"/>
<text text-anchor="middle" x="203.88" y="-179.88" font-family="Helvetica,sans-Serif" font-size="10.00"> defaultProcessor</text>
</g>
<!-- Node10 -->
<g id="node10" class="node">
<title>Node10</title>
<g id="a_node10"><a xlink:href="class_simple_1_1_timeline_1_1_playable_connection_info.html" target="_top" xlink:title="Store information about connections on the PlayableGraph and set / get weights between connections">
<polygon fill="none" stroke="black" points="271.38,-29.88 271.38,-60.38 391.62,-60.38 391.62,-29.88 271.38,-29.88"/>
<text text-anchor="start" x="279.38" y="-46.88" font-family="Helvetica,sans-Serif" font-size="10.00">Simple.Timeline.Playable</text>
<text text-anchor="middle" x="331.5" y="-35.62" font-family="Helvetica,sans-Serif" font-size="10.00">ConnectionInfo</text>
</a>
</g>
</g>
<!-- Node10&#45;&gt;Node2 -->
<g id="edge10" class="edge">
<title>Node10&#45;&gt;Node2</title>
<path fill="none" stroke="#9a32cd" stroke-dasharray="5,2" d="M402.89,-41.85C439.55,-41.04 485.05,-41.44 525.5,-45.88 540.9,-47.56 557.78,-51.1 571.58,-54.45"/>
<polygon fill="#9a32cd" stroke="#9a32cd" points="403.23,-38.34 393.32,-42.1 403.41,-45.34 403.23,-38.34"/>
<text text-anchor="middle" x="474.12" y="-46.88" font-family="Helvetica,sans-Serif" font-size="10.00"> currentInfo</text>
</g>
<!-- Node11 -->
<g id="node11" class="node">
<title>Node11</title>
<g id="a_node11"><a xlink:href="class_event_variable.html" target="_top" xlink:title=" ">
<polygon fill="none" stroke="black" points="19.88,-38.5 19.88,-57.75 129.62,-57.75 129.62,-38.5 19.88,-38.5"/>
<text text-anchor="middle" x="74.75" y="-44.25" font-family="Helvetica,sans-Serif" font-size="10.00">EventVariable&lt; float &gt;</text>
</a>
</g>
</g>
<!-- Node11&#45;&gt;Node10 -->
<g id="edge11" class="edge">
<title>Node11&#45;&gt;Node10</title>
<path fill="none" stroke="#9a32cd" stroke-dasharray="5,2" d="M141.59,-47.35C181.55,-46.88 232.14,-46.28 270.91,-45.83"/>
<polygon fill="#9a32cd" stroke="#9a32cd" points="141.56,-43.85 131.6,-47.47 141.64,-50.85 141.56,-43.85"/>
<text text-anchor="middle" x="203.88" y="-47.88" font-family="Helvetica,sans-Serif" font-size="10.00"> weight</text>
</g>
<!-- Node12 -->
<g id="node12" class="node">
<title>Node12</title>
<g id="a_node12"><a xlink:href="class_simple_1_1_timeline_1_1_binding_data.html" target="_top" xlink:title="Gathers information about track bindings from the Playable Director, used to set bindings on the cust...">
<polygon fill="none" stroke="black" points="7.5,-0.5 7.5,-19.75 142,-19.75 142,-0.5 7.5,-0.5"/>
<text text-anchor="middle" x="74.75" y="-6.25" font-family="Helvetica,sans-Serif" font-size="10.00">Simple.Timeline.BindingData</text>
</a>
</g>
</g>
<!-- Node12&#45;&gt;Node10 -->
<g id="edge12" class="edge">
<title>Node12&#45;&gt;Node10</title>
<path fill="none" stroke="#9a32cd" stroke-dasharray="5,2" d="M153.38,-19.41C180.84,-22.83 211.95,-26.86 240.25,-30.88 250.3,-32.3 260.97,-33.91 271.31,-35.51"/>
<polygon fill="#9a32cd" stroke="#9a32cd" points="154.1,-15.98 143.75,-18.22 153.24,-22.92 154.1,-15.98"/>
<text text-anchor="middle" x="203.88" y="-31.88" font-family="Helvetica,sans-Serif" font-size="10.00"> bindingData</text>
</g>
</g>
</svg>
