<?xml version="1.0" encoding="UTF-8" standalone="no"?>
<!DOCTYPE svg PUBLIC "-//W3C//DTD SVG 1.1//EN"
 "http://www.w3.org/Graphics/SVG/1.1/DTD/svg11.dtd">
<!-- Generated by graphviz version 12.0.0 (20240704.0754)
 -->
<!-- Title: Simple.Timeline.TimelineMixerPlayable Pages: 1 -->
<svg width="1128pt" height="155pt"
 viewBox="0.00 0.00 1128.25 155.23" xmlns="http://www.w3.org/2000/svg" xmlns:xlink="http://www.w3.org/1999/xlink">
<g id="graph0" class="graph" transform="scale(1 1) rotate(0) translate(4 151.23)">
<title>Simple.Timeline.TimelineMixerPlayable</title>
<!-- Node1 -->
<g id="node1" class="node">
<title>Node1</title>
<g id="a_node1"><a xlink:title=" ">
<polygon fill="#bfbfbf" stroke="black" points="1005.25,-57.85 1005.25,-88.35 1120.25,-88.35 1120.25,-57.85 1005.25,-57.85"/>
<text text-anchor="start" x="1013.25" y="-74.85" font-family="Helvetica,sans-Serif" font-size="10.00">Simple.Timeline.Timeline</text>
<text text-anchor="middle" x="1062.75" y="-63.6" font-family="Helvetica,sans-Serif" font-size="10.00">MixerPlayable</text>
</a>
</g>
</g>
<!-- Node2 -->
<g id="node2" class="node">
<title>Node2</title>
<g id="a_node2"><a xlink:title=" ">
<polygon fill="none" stroke="#bfbfbf" points="283,-127.48 283,-146.73 380,-146.73 380,-127.48 283,-127.48"/>
<text text-anchor="middle" x="331.5" y="-133.23" font-family="Helvetica,sans-Serif" font-size="10.00">PlayableBehaviour</text>
</a>
</g>
</g>
<!-- Node2&#45;&gt;Node1 -->
<g id="edge1" class="edge">
<title>Node2&#45;&gt;Node1</title>
<path fill="none" stroke="midnightblue" d="M391.91,-136.28C430.08,-135.73 480.71,-134.95 525.5,-134.1 585.28,-132.97 600.25,-133.25 660,-131.1 713.7,-129.17 727.36,-131.19 780.75,-125.1 873.39,-114.54 895.65,-105.53 987.25,-88.1 992.95,-87.02 998.9,-85.86 1004.83,-84.69"/>
<polygon fill="midnightblue" stroke="midnightblue" points="391.95,-132.78 382,-136.42 392.05,-139.78 391.95,-132.78"/>
</g>
<!-- Node8 -->
<g id="node8" class="node">
<title>Node8</title>
<g id="a_node8"><a xlink:href="class_simple_1_1_timeline_1_1_timeline_mixer_playable.html" target="_top" xlink:title=" ">
<polygon fill="none" stroke="#bfbfbf" points="544.25,-90.85 544.25,-121.35 659.25,-121.35 659.25,-90.85 544.25,-90.85"/>
<text text-anchor="start" x="552.25" y="-107.85" font-family="Helvetica,sans-Serif" font-size="10.00">Simple.Timeline.Timeline</text>
<text text-anchor="middle" x="601.75" y="-96.6" font-family="Helvetica,sans-Serif" font-size="10.00">MixerPlayable</text>
</a>
</g>
</g>
<!-- Node2&#45;&gt;Node8 -->
<g id="edge8" class="edge">
<title>Node2&#45;&gt;Node8</title>
<path fill="none" stroke="midnightblue" d="M391.89,-130.24C437.2,-125 499.23,-117.83 543.9,-112.67"/>
<polygon fill="midnightblue" stroke="midnightblue" points="391.49,-126.76 381.96,-131.39 392.3,-133.71 391.49,-126.76"/>
</g>
<!-- Node3 -->
<g id="node3" class="node">
<title>Node3</title>
<g id="a_node3"><a xlink:href="class_simple_1_1_timeline_1_1_track_processor_manager.html" target="_top" xlink:title="Automatically discovers all classes that inherit from TrackProcessor and have the TrackProcessor attr...">
<polygon fill="none" stroke="black" points="258.25,-39.85 258.25,-70.35 404.75,-70.35 404.75,-39.85 258.25,-39.85"/>
<text text-anchor="start" x="266.25" y="-56.85" font-family="Helvetica,sans-Serif" font-size="10.00">Simple.Timeline.TrackProcessor</text>
<text text-anchor="middle" x="331.5" y="-45.6" font-family="Helvetica,sans-Serif" font-size="10.00">Manager</text>
</a>
</g>
</g>
<!-- Node3&#45;&gt;Node1 -->
<g id="edge2" class="edge">
<title>Node3&#45;&gt;Node1</title>
<path fill="none" stroke="#9a32cd" stroke-dasharray="5,2" d="M395,-36.25C436.63,-24.7 492.81,-11.03 543.5,-5.1 713.62,14.78 914.61,-31.62 1008.47,-57.37"/>
<polygon fill="#9a32cd" stroke="#9a32cd" points="394.06,-32.88 385.38,-38.96 395.96,-39.62 394.06,-32.88"/>
<text text-anchor="middle" x="729.38" y="-12.85" font-family="Helvetica,sans-Serif" font-size="10.00"> trackProcessorManager</text>
</g>
<!-- Node3&#45;&gt;Node8 -->
<g id="edge9" class="edge">
<title>Node3&#45;&gt;Node8</title>
<path fill="none" stroke="#9a32cd" stroke-dasharray="5,2" d="M416.3,-71.03C457.78,-78.92 506.77,-88.23 543.83,-95.28"/>
<polygon fill="#9a32cd" stroke="#9a32cd" points="417.06,-67.62 406.58,-69.19 415.75,-74.49 417.06,-67.62"/>
<text text-anchor="middle" x="474.12" y="-91.85" font-family="Helvetica,sans-Serif" font-size="10.00"> trackProcessorManager</text>
</g>
<!-- Node4 -->
<g id="node4" class="node">
<title>Node4</title>
<g id="a_node4"><a xlink:href="interface_simple_1_1_timeline_1_1_i_track_processor.html" target="_top" xlink:title=" ">
<polygon fill="none" stroke="#bfbfbf" points="0,-45.48 0,-64.73 149.5,-64.73 149.5,-45.48 0,-45.48"/>
<text text-anchor="middle" x="74.75" y="-51.23" font-family="Helvetica,sans-Serif" font-size="10.00">Simple.Timeline.ITrackProcessor</text>
</a>
</g>
</g>
<!-- Node4&#45;&gt;Node3 -->
<g id="edge3" class="edge">
<title>Node4&#45;&gt;Node3</title>
<path fill="none" stroke="#9a32cd" stroke-dasharray="5,2" d="M161.17,-55.1C192.6,-55.1 227.87,-55.1 258.05,-55.1"/>
<polygon fill="#9a32cd" stroke="#9a32cd" points="161.29,-51.6 151.29,-55.1 161.29,-58.6 161.29,-51.6"/>
<text text-anchor="middle" x="203.88" y="-56.85" font-family="Helvetica,sans-Serif" font-size="10.00"> defaultProcessor</text>
</g>
<!-- Node5 -->
<g id="node5" class="node">
<title>Node5</title>
<g id="a_node5"><a xlink:href="class_simple_1_1_timeline_1_1_timeline_component.html" target="_top" xlink:title=" ">
<polygon fill="none" stroke="#bfbfbf" points="798.75,-57.85 798.75,-88.35 913.75,-88.35 913.75,-57.85 798.75,-57.85"/>
<text text-anchor="start" x="806.75" y="-74.85" font-family="Helvetica,sans-Serif" font-size="10.00">Simple.Timeline.Timeline</text>
<text text-anchor="middle" x="856.25" y="-63.6" font-family="Helvetica,sans-Serif" font-size="10.00">Component</text>
</a>
</g>
</g>
<!-- Node5&#45;&gt;Node1 -->
<g id="edge4" class="edge">
<title>Node5&#45;&gt;Node1</title>
<path fill="none" stroke="#9a32cd" stroke-dasharray="5,2" d="M925.45,-73.1C951.3,-73.1 980.42,-73.1 1005.09,-73.1"/>
<polygon fill="#9a32cd" stroke="#9a32cd" points="925.73,-69.6 915.73,-73.1 925.73,-76.6 925.73,-69.6"/>
<text text-anchor="middle" x="959.5" y="-74.85" font-family="Helvetica,sans-Serif" font-size="10.00"> timelineMixer</text>
</g>
<!-- Node5&#45;&gt;Node8 -->
<g id="edge10" class="edge">
<title>Node5&#45;&gt;Node8</title>
<path fill="none" stroke="#9a32cd" stroke-dasharray="5,2" d="M786.96,-76.98C753.92,-79.41 713.76,-83.19 678,-88.85 672.04,-89.79 665.85,-90.94 659.7,-92.19"/>
<polygon fill="#9a32cd" stroke="#9a32cd" points="787.09,-80.48 796.82,-76.28 786.6,-73.5 787.09,-80.48"/>
<text text-anchor="middle" x="729.38" y="-89.85" font-family="Helvetica,sans-Serif" font-size="10.00"> timelineMixer</text>
</g>
<!-- Node6 -->
<g id="node6" class="node">
<title>Node6</title>
<g id="a_node6"><a xlink:title=" ">
<polygon fill="none" stroke="#bfbfbf" points="560.38,-52.48 560.38,-71.73 643.12,-71.73 643.12,-52.48 560.38,-52.48"/>
<text text-anchor="middle" x="601.75" y="-58.23" font-family="Helvetica,sans-Serif" font-size="10.00">MonoBehaviour</text>
</a>
</g>
</g>
<!-- Node6&#45;&gt;Node5 -->
<g id="edge5" class="edge">
<title>Node6&#45;&gt;Node5</title>
<path fill="none" stroke="midnightblue" d="M654.93,-64.38C696.78,-66.2 755.42,-68.75 798.45,-70.63"/>
<polygon fill="midnightblue" stroke="midnightblue" points="655.25,-60.89 645.11,-63.95 654.95,-67.88 655.25,-60.89"/>
</g>
<!-- Node7 -->
<g id="node7" class="node">
<title>Node7</title>
<g id="a_node7"><a xlink:href="class_event_variable.html" target="_top" xlink:title=" ">
<polygon fill="none" stroke="black" points="543.5,-14.48 543.5,-33.73 660,-33.73 660,-14.48 543.5,-14.48"/>
<text text-anchor="middle" x="601.75" y="-20.23" font-family="Helvetica,sans-Serif" font-size="10.00">EventVariable&lt; Mode &gt;</text>
</a>
</g>
</g>
<!-- Node7&#45;&gt;Node5 -->
<g id="edge6" class="edge">
<title>Node7&#45;&gt;Node5</title>
<path fill="none" stroke="#9a32cd" stroke-dasharray="5,2" d="M671.91,-31.51C705.06,-35.72 745.2,-41.79 780.75,-49.85 790,-51.95 799.76,-54.64 809.06,-57.44"/>
<polygon fill="#9a32cd" stroke="#9a32cd" points="672.35,-28.04 661.99,-30.29 671.49,-34.99 672.35,-28.04"/>
<text text-anchor="middle" x="729.38" y="-51.85" font-family="Helvetica,sans-Serif" font-size="10.00"> currentMode</text>
</g>
<!-- Node8&#45;&gt;Node5 -->
<g id="edge7" class="edge">
<title>Node8&#45;&gt;Node5</title>
<path fill="none" stroke="#9a32cd" stroke-dasharray="5,2" d="M670.91,-110.09C704.31,-110.64 744.96,-109.24 780.75,-102.1 794.77,-99.31 809.57,-94.07 822.25,-88.8"/>
<polygon fill="#9a32cd" stroke="#9a32cd" points="671.01,-106.59 660.93,-109.85 670.84,-113.59 671.01,-106.59"/>
<text text-anchor="middle" x="729.38" y="-111.85" font-family="Helvetica,sans-Serif" font-size="10.00"> timelineMixerBehaviour</text>
</g>
</g>
</svg>
