<?xml version="1.0" encoding="UTF-8" standalone="no"?>
<!DOCTYPE svg PUBLIC "-//W3C//DTD SVG 1.1//EN"
 "http://www.w3.org/Graphics/SVG/1.1/DTD/svg11.dtd">
<!-- Generated by graphviz version 12.0.0 (20240704.0754)
 -->
<!-- Title: Simple.Timeline.TimelineMixerWindow Pages: 1 -->
<svg width="604pt" height="186pt"
 viewBox="0.00 0.00 604.25 185.75" xmlns="http://www.w3.org/2000/svg" xmlns:xlink="http://www.w3.org/1999/xlink">
<g id="graph0" class="graph" transform="scale(1 1) rotate(0) translate(4 181.75)">
<title>Simple.Timeline.TimelineMixerWindow</title>
<!-- Node1 -->
<g id="node1" class="node">
<title>Node1</title>
<g id="a_node1"><a xlink:title=" ">
<polygon fill="#bfbfbf" stroke="black" points="0,-0.5 0,-31 115,-31 115,-0.5 0,-0.5"/>
<text text-anchor="start" x="8" y="-17.5" font-family="Helvetica,sans-Serif" font-size="10.00">Simple.Timeline.Timeline</text>
<text text-anchor="middle" x="57.5" y="-6.25" font-family="Helvetica,sans-Serif" font-size="10.00">MixerWindow</text>
</a>
</g>
</g>
<!-- Node2 -->
<g id="node2" class="node">
<title>Node2</title>
<g id="a_node2"><a xlink:title=" ">
<polygon fill="none" stroke="#bfbfbf" points="3.25,-84.88 3.25,-104.12 77.75,-104.12 77.75,-84.88 3.25,-84.88"/>
<text text-anchor="middle" x="40.5" y="-90.62" font-family="Helvetica,sans-Serif" font-size="10.00">EditorWindow</text>
</a>
</g>
</g>
<!-- Node2&#45;&gt;Node1 -->
<g id="edge1" class="edge">
<title>Node2&#45;&gt;Node1</title>
<path fill="none" stroke="midnightblue" d="M45,-73.18C47.91,-60.02 51.64,-43.19 54.27,-31.35"/>
<polygon fill="midnightblue" stroke="midnightblue" points="41.59,-72.4 42.84,-82.92 48.42,-73.91 41.59,-72.4"/>
</g>
<!-- Node3 -->
<g id="node3" class="node">
<title>Node3</title>
<g id="a_node3"><a xlink:href="class_simple_1_1_timeline_1_1_timeline_component.html" target="_top" xlink:title=" ">
<polygon fill="none" stroke="#bfbfbf" points="132,-79.25 132,-109.75 247,-109.75 247,-79.25 132,-79.25"/>
<text text-anchor="start" x="140" y="-96.25" font-family="Helvetica,sans-Serif" font-size="10.00">Simple.Timeline.Timeline</text>
<text text-anchor="middle" x="189.5" y="-85" font-family="Helvetica,sans-Serif" font-size="10.00">Component</text>
</a>
</g>
</g>
<!-- Node3&#45;&gt;Node1 -->
<g id="edge2" class="edge">
<title>Node3&#45;&gt;Node1</title>
<path fill="none" stroke="#9a32cd" stroke-dasharray="5,2" d="M120.77,-84.88C104.06,-80.01 87.33,-72.46 74.5,-60.75 66.15,-53.13 61.86,-40.94 59.69,-31.32"/>
<polygon fill="#9a32cd" stroke="#9a32cd" points="119.68,-88.21 130.24,-87.32 121.43,-81.43 119.68,-88.21"/>
<text text-anchor="middle" x="121" y="-51.25" font-family="Helvetica,sans-Serif" font-size="10.00"> inspectedComponent</text>
</g>
<!-- Node6 -->
<g id="node6" class="node">
<title>Node6</title>
<g id="a_node6"><a xlink:href="class_simple_1_1_timeline_1_1_timeline_mixer_playable.html" target="_top" xlink:title=" ">
<polygon fill="none" stroke="#bfbfbf" points="267,-0.5 267,-31 382,-31 382,-0.5 267,-0.5"/>
<text text-anchor="start" x="275" y="-17.5" font-family="Helvetica,sans-Serif" font-size="10.00">Simple.Timeline.Timeline</text>
<text text-anchor="middle" x="324.5" y="-6.25" font-family="Helvetica,sans-Serif" font-size="10.00">MixerPlayable</text>
</a>
</g>
</g>
<!-- Node3&#45;&gt;Node6 -->
<g id="edge9" class="edge">
<title>Node3&#45;&gt;Node6</title>
<path fill="none" stroke="#9a32cd" stroke-dasharray="5,2" d="M182.25,-67.66C181.89,-61.17 182.97,-54.6 187,-49.5 197.11,-36.69 233.83,-28.35 266.78,-23.3"/>
<polygon fill="#9a32cd" stroke="#9a32cd" points="178.78,-68.16 183.87,-77.45 185.69,-67.01 178.78,-68.16"/>
<text text-anchor="middle" x="214.25" y="-51.25" font-family="Helvetica,sans-Serif" font-size="10.00"> timelineMixer</text>
</g>
<!-- Node4 -->
<g id="node4" class="node">
<title>Node4</title>
<g id="a_node4"><a xlink:title=" ">
<polygon fill="none" stroke="#bfbfbf" points="89.12,-158 89.12,-177.25 171.88,-177.25 171.88,-158 89.12,-158"/>
<text text-anchor="middle" x="130.5" y="-163.75" font-family="Helvetica,sans-Serif" font-size="10.00">MonoBehaviour</text>
</a>
</g>
</g>
<!-- Node4&#45;&gt;Node3 -->
<g id="edge3" class="edge">
<title>Node4&#45;&gt;Node3</title>
<path fill="none" stroke="midnightblue" d="M145.16,-148.96C155.08,-136.99 168.04,-121.37 177.38,-110.11"/>
<polygon fill="midnightblue" stroke="midnightblue" points="142.63,-146.52 138.94,-156.45 148.02,-150.99 142.63,-146.52"/>
</g>
<!-- Node5 -->
<g id="node5" class="node">
<title>Node5</title>
<g id="a_node5"><a xlink:href="class_event_variable.html" target="_top" xlink:title=" ">
<polygon fill="none" stroke="black" points="190.25,-158 190.25,-177.25 306.75,-177.25 306.75,-158 190.25,-158"/>
<text text-anchor="middle" x="248.5" y="-163.75" font-family="Helvetica,sans-Serif" font-size="10.00">EventVariable&lt; Mode &gt;</text>
</a>
</g>
</g>
<!-- Node5&#45;&gt;Node3 -->
<g id="edge4" class="edge">
<title>Node5&#45;&gt;Node3</title>
<path fill="none" stroke="#9a32cd" stroke-dasharray="5,2" d="M233.84,-148.96C223.92,-136.99 210.96,-121.37 201.62,-110.11"/>
<polygon fill="#9a32cd" stroke="#9a32cd" points="230.98,-150.99 240.06,-156.45 236.37,-146.52 230.98,-150.99"/>
<text text-anchor="middle" x="250.5" y="-130" font-family="Helvetica,sans-Serif" font-size="10.00"> currentMode</text>
</g>
<!-- Node6&#45;&gt;Node3 -->
<g id="edge5" class="edge">
<title>Node6&#45;&gt;Node3</title>
<path fill="none" stroke="#9a32cd" stroke-dasharray="5,2" d="M287.66,-36.85C280.22,-40.98 272.46,-45.35 265.25,-49.5 256.83,-54.35 254.88,-55.83 246.5,-60.75 236.36,-66.7 225.16,-73.17 215.38,-78.77"/>
<polygon fill="#9a32cd" stroke="#9a32cd" points="289.16,-40.02 296.22,-32.12 285.78,-33.89 289.16,-40.02"/>
<text text-anchor="middle" x="313.62" y="-51.25" font-family="Helvetica,sans-Serif" font-size="10.00"> timelineMixerBehaviour</text>
</g>
<!-- Node7 -->
<g id="node7" class="node">
<title>Node7</title>
<g id="a_node7"><a xlink:title=" ">
<polygon fill="none" stroke="#bfbfbf" points="333,-84.88 333,-104.12 430,-104.12 430,-84.88 333,-84.88"/>
<text text-anchor="middle" x="381.5" y="-90.62" font-family="Helvetica,sans-Serif" font-size="10.00">PlayableBehaviour</text>
</a>
</g>
</g>
<!-- Node7&#45;&gt;Node6 -->
<g id="edge6" class="edge">
<title>Node7&#45;&gt;Node6</title>
<path fill="none" stroke="midnightblue" d="M377.93,-73.68C375.81,-65.66 372.53,-56.64 367.5,-49.5 362.63,-42.6 355.88,-36.5 349.16,-31.5"/>
<polygon fill="midnightblue" stroke="midnightblue" points="374.46,-74.19 379.99,-83.22 381.3,-72.71 374.46,-74.19"/>
</g>
<!-- Node8 -->
<g id="node8" class="node">
<title>Node8</title>
<g id="a_node8"><a xlink:href="class_simple_1_1_timeline_1_1_track_processor_manager.html" target="_top" xlink:title="Automatically discovers all classes that inherit from TrackProcessor and have the TrackProcessor attr...">
<polygon fill="none" stroke="black" points="448.25,-79.25 448.25,-109.75 594.75,-109.75 594.75,-79.25 448.25,-79.25"/>
<text text-anchor="start" x="456.25" y="-96.25" font-family="Helvetica,sans-Serif" font-size="10.00">Simple.Timeline.TrackProcessor</text>
<text text-anchor="middle" x="521.5" y="-85" font-family="Helvetica,sans-Serif" font-size="10.00">Manager</text>
</a>
</g>
</g>
<!-- Node8&#45;&gt;Node6 -->
<g id="edge7" class="edge">
<title>Node8&#45;&gt;Node6</title>
<path fill="none" stroke="#9a32cd" stroke-dasharray="5,2" d="M473.29,-74.72C439.08,-61.39 393.8,-43.75 362.21,-31.44"/>
<polygon fill="#9a32cd" stroke="#9a32cd" points="471.98,-77.96 482.57,-78.33 474.52,-71.44 471.98,-77.96"/>
<text text-anchor="middle" x="485.88" y="-51.25" font-family="Helvetica,sans-Serif" font-size="10.00"> trackProcessorManager</text>
</g>
<!-- Node9 -->
<g id="node9" class="node">
<title>Node9</title>
<g id="a_node9"><a xlink:href="interface_simple_1_1_timeline_1_1_i_track_processor.html" target="_top" xlink:title=" ">
<polygon fill="none" stroke="#bfbfbf" points="446.75,-158 446.75,-177.25 596.25,-177.25 596.25,-158 446.75,-158"/>
<text text-anchor="middle" x="521.5" y="-163.75" font-family="Helvetica,sans-Serif" font-size="10.00">Simple.Timeline.ITrackProcessor</text>
</a>
</g>
</g>
<!-- Node9&#45;&gt;Node8 -->
<g id="edge8" class="edge">
<title>Node9&#45;&gt;Node8</title>
<path fill="none" stroke="#9a32cd" stroke-dasharray="5,2" d="M521.5,-146.42C521.5,-134.85 521.5,-120.59 521.5,-110.11"/>
<polygon fill="#9a32cd" stroke="#9a32cd" points="518,-146.1 521.5,-156.1 525,-146.1 518,-146.1"/>
<text text-anchor="middle" x="557.88" y="-130" font-family="Helvetica,sans-Serif" font-size="10.00"> defaultProcessor</text>
</g>
</g>
</svg>
