<?xml version="1.0" encoding="UTF-8" standalone="no"?>
<!DOCTYPE svg PUBLIC "-//W3C//DTD SVG 1.1//EN"
 "http://www.w3.org/Graphics/SVG/1.1/DTD/svg11.dtd">
<!-- Generated by graphviz version 12.0.0 (20240704.0754)
 -->
<!-- Title: TimelineMixer.MarkerTrackProcessor Pages: 1 -->
<svg width="133pt" height="152pt"
 viewBox="0.00 0.00 132.75 152.00" xmlns="http://www.w3.org/2000/svg" xmlns:xlink="http://www.w3.org/1999/xlink">
<g id="graph0" class="graph" transform="scale(1 1) rotate(0) translate(4 148)">
<title>TimelineMixer.MarkerTrackProcessor</title>
<!-- Node1 -->
<g id="node1" class="node">
<title>Node1</title>
<g id="a_node1"><a xlink:title="This track processor will connect the marker track to the graph.">
<polygon fill="#bfbfbf" stroke="black" points="0,-0.5 0,-31 124.75,-31 124.75,-0.5 0,-0.5"/>
<text text-anchor="start" x="8" y="-17.5" font-family="Helvetica,sans-Serif" font-size="10.00">TimelineMixer.MarkerTrack</text>
<text text-anchor="middle" x="62.38" y="-6.25" font-family="Helvetica,sans-Serif" font-size="10.00">Processor</text>
</a>
</g>
</g>
<!-- Node2 -->
<g id="node2" class="node">
<title>Node2</title>
<g id="a_node2"><a xlink:href="class_timeline_mixer_1_1_track_processor.html" target="_top" xlink:title="Track processor for timeline tracks that do not have a custom track processor, this will connect all ...">
<polygon fill="none" stroke="black" points="22.12,-68 22.12,-87.25 102.62,-87.25 102.62,-68 22.12,-68"/>
<text text-anchor="middle" x="62.38" y="-73.75" font-family="Helvetica,sans-Serif" font-size="10.00">TrackProcessor</text>
</a>
</g>
</g>
<!-- Node2&#45;&gt;Node1 -->
<g id="edge1" class="edge">
<title>Node2&#45;&gt;Node1</title>
<path fill="none" stroke="midnightblue" d="M62.38,-56.19C62.38,-47.93 62.38,-38.59 62.38,-31.07"/>
<polygon fill="midnightblue" stroke="midnightblue" points="58.88,-56.02 62.38,-66.02 65.88,-56.02 58.88,-56.02"/>
</g>
<!-- Node3 -->
<g id="node3" class="node">
<title>Node3</title>
<g id="a_node3"><a xlink:href="interface_timeline_mixer_1_1_i_track_processor.html" target="_top" xlink:title=" ">
<polygon fill="none" stroke="#bfbfbf" points="20.62,-124.25 20.62,-143.5 104.12,-143.5 104.12,-124.25 20.62,-124.25"/>
<text text-anchor="middle" x="62.38" y="-130" font-family="Helvetica,sans-Serif" font-size="10.00">ITrackProcessor</text>
</a>
</g>
</g>
<!-- Node3&#45;&gt;Node2 -->
<g id="edge2" class="edge">
<title>Node3&#45;&gt;Node2</title>
<path fill="none" stroke="midnightblue" d="M62.38,-112.69C62.38,-103.98 62.38,-94.24 62.38,-87.42"/>
<polygon fill="midnightblue" stroke="midnightblue" points="58.88,-112.4 62.38,-122.4 65.88,-112.4 58.88,-112.4"/>
</g>
</g>
</svg>
