<?xml version="1.0" encoding="UTF-8" standalone="no"?>
<!DOCTYPE svg PUBLIC "-//W3C//DTD SVG 1.1//EN"
 "http://www.w3.org/Graphics/SVG/1.1/DTD/svg11.dtd">
<!-- Generated by graphviz version 12.0.0 (20240704.0754)
 -->
<!-- Title: TimelineMixer.SignalTrackProcessor Pages: 1 -->
<svg width="149pt" height="149pt"
 viewBox="0.00 0.00 149.25 149.00" xmlns="http://www.w3.org/2000/svg" xmlns:xlink="http://www.w3.org/1999/xlink">
<g id="graph0" class="graph" transform="scale(1 1) rotate(0) translate(4 145)">
<title>TimelineMixer.SignalTrackProcessor</title>
<!-- Node1 -->
<g id="Node000001" class="node">
<title>Node1</title>
<g id="a_Node000001"><a xlink:title="Setup outputs for Signal tracks.">
<polygon fill="#999999" stroke="#666666" points="131.88,-30.5 9.38,-30.5 9.38,0 131.88,0 131.88,-30.5"/>
<text text-anchor="start" x="17.38" y="-17" font-family="Helvetica,sans-Serif" font-size="10.00">TimelineMixer.SignalTrack</text>
<text text-anchor="middle" x="70.62" y="-5.75" font-family="Helvetica,sans-Serif" font-size="10.00">Processor</text>
</a>
</g>
</g>
<!-- Node2 -->
<g id="Node000002" class="node">
<title>Node2</title>
<g id="a_Node000002"><a xlink:href="class_timeline_mixer_1_1_track_processor.html" target="_top" xlink:title="Track processor for timeline tracks that do not have a custom track processor, this will connect all ...">
<polygon fill="white" stroke="#666666" points="139.75,-85.75 1.5,-85.75 1.5,-66.5 139.75,-66.5 139.75,-85.75"/>
<text text-anchor="middle" x="70.62" y="-72.25" font-family="Helvetica,sans-Serif" font-size="10.00">TimelineMixer.TrackProcessor</text>
</a>
</g>
</g>
<!-- Node2&#45;&gt;Node1 -->
<g id="edge1_Node000001_Node000002" class="edge">
<title>Node2&#45;&gt;Node1</title>
<g id="a_edge1_Node000001_Node000002"><a xlink:title=" ">
<path fill="none" stroke="#63b8ff" d="M70.62,-54.92C70.62,-46.99 70.62,-38.06 70.62,-30.78"/>
<polygon fill="#63b8ff" stroke="#63b8ff" points="67.13,-54.67 70.63,-64.67 74.13,-54.67 67.13,-54.67"/>
</a>
</g>
</g>
<!-- Node3 -->
<g id="Node000003" class="node">
<title>Node3</title>
<g id="a_Node000003"><a xlink:href="interface_timeline_mixer_1_1_i_track_processor.html" target="_top" xlink:title=" ">
<polygon fill="white" stroke="#bfbfbf" points="141.25,-141 0,-141 0,-121.75 141.25,-121.75 141.25,-141"/>
<text text-anchor="middle" x="70.62" y="-127.5" font-family="Helvetica,sans-Serif" font-size="10.00">TimelineMixer.ITrackProcessor</text>
</a>
</g>
</g>
<!-- Node3&#45;&gt;Node2 -->
<g id="edge2_Node000002_Node000003" class="edge">
<title>Node3&#45;&gt;Node2</title>
<g id="a_edge2_Node000002_Node000003"><a xlink:title=" ">
<path fill="none" stroke="#63b8ff" d="M70.62,-110.13C70.62,-101.84 70.62,-92.67 70.62,-86.11"/>
<polygon fill="#63b8ff" stroke="#63b8ff" points="67.13,-110.07 70.63,-120.07 74.13,-110.07 67.13,-110.07"/>
</a>
</g>
</g>
</g>
</svg>
