<?xml version="1.0" encoding="UTF-8" standalone="no"?>
<!DOCTYPE svg PUBLIC "-//W3C//DTD SVG 1.1//EN"
 "http://www.w3.org/Graphics/SVG/1.1/DTD/svg11.dtd">
<!-- Generated by graphviz version 12.0.0 (20240704.0754)
 -->
<!-- Title: Simple.Timeline.TimelineBlendTree Pages: 1 -->
<svg width="627pt" height="197pt"
 viewBox="0.00 0.00 626.62 197.00" xmlns="http://www.w3.org/2000/svg" xmlns:xlink="http://www.w3.org/1999/xlink">
<g id="graph0" class="graph" transform="scale(1 1) rotate(0) translate(4 193)">
<title>Simple.Timeline.TimelineBlendTree</title>
<!-- Node1 -->
<g id="node1" class="node">
<title>Node1</title>
<g id="a_node1"><a xlink:title="This is only intended as an example of what could possibly be created with TimelineMixer....">
<polygon fill="#bfbfbf" stroke="black" points="23.38,-0.5 23.38,-31 138.38,-31 138.38,-0.5 23.38,-0.5"/>
<text text-anchor="start" x="31.38" y="-17.5" font-family="Helvetica,sans-Serif" font-size="10.00">Simple.Timeline.Timeline</text>
<text text-anchor="middle" x="80.88" y="-6.25" font-family="Helvetica,sans-Serif" font-size="10.00">BlendTree</text>
</a>
</g>
</g>
<!-- Node2 -->
<g id="node2" class="node">
<title>Node2</title>
<g id="a_node2"><a xlink:href="class_event_variable.html" target="_top" xlink:title=" ">
<polygon fill="none" stroke="black" points="0,-96.12 0,-115.38 109.75,-115.38 109.75,-96.12 0,-96.12"/>
<text text-anchor="middle" x="54.88" y="-101.88" font-family="Helvetica,sans-Serif" font-size="10.00">EventVariable&lt; float &gt;</text>
</a>
</g>
</g>
<!-- Node2&#45;&gt;Node1 -->
<g id="edge1" class="edge">
<title>Node2&#45;&gt;Node1</title>
<path fill="none" stroke="#9a32cd" stroke-dasharray="5,2" d="M52.41,-84.7C51.8,-73.97 52.23,-60.7 56.12,-49.5 58.42,-42.9 62.59,-36.56 66.85,-31.24"/>
<polygon fill="#9a32cd" stroke="#9a32cd" points="48.89,-84.7 53.3,-94.34 55.86,-84.05 48.89,-84.7"/>
<text text-anchor="middle" x="70.75" y="-62.5" font-family="Helvetica,sans-Serif" font-size="10.00"> time</text>
<text text-anchor="middle" x="70.75" y="-51.25" font-family="Helvetica,sans-Serif" font-size="10.00">weight</text>
</g>
<!-- Node3 -->
<g id="node3" class="node">
<title>Node3</title>
<g id="a_node3"><a xlink:href="class_simple_1_1_timeline_1_1_timeline_component.html" target="_top" xlink:title=" ">
<polygon fill="none" stroke="#bfbfbf" points="154.38,-90.5 154.38,-121 269.38,-121 269.38,-90.5 154.38,-90.5"/>
<text text-anchor="start" x="162.38" y="-107.5" font-family="Helvetica,sans-Serif" font-size="10.00">Simple.Timeline.Timeline</text>
<text text-anchor="middle" x="211.88" y="-96.25" font-family="Helvetica,sans-Serif" font-size="10.00">Component</text>
</a>
</g>
</g>
<!-- Node3&#45;&gt;Node1 -->
<g id="edge2" class="edge">
<title>Node3&#45;&gt;Node1</title>
<path fill="none" stroke="#9a32cd" stroke-dasharray="5,2" d="M143.07,-92.02C130.2,-87.31 117.59,-80.85 107.38,-72 95.15,-61.42 88.1,-43.92 84.39,-31.46"/>
<polygon fill="#9a32cd" stroke="#9a32cd" points="141.87,-95.31 152.46,-95.11 144.06,-88.66 141.87,-95.31"/>
<text text-anchor="middle" x="149.12" y="-56.88" font-family="Helvetica,sans-Serif" font-size="10.00"> timelineComponent</text>
</g>
<!-- Node6 -->
<g id="node6" class="node">
<title>Node6</title>
<g id="a_node6"><a xlink:href="class_simple_1_1_timeline_1_1_timeline_mixer_playable.html" target="_top" xlink:title=" ">
<polygon fill="none" stroke="#bfbfbf" points="289.38,-0.5 289.38,-31 404.38,-31 404.38,-0.5 289.38,-0.5"/>
<text text-anchor="start" x="297.38" y="-17.5" font-family="Helvetica,sans-Serif" font-size="10.00">Simple.Timeline.Timeline</text>
<text text-anchor="middle" x="346.88" y="-6.25" font-family="Helvetica,sans-Serif" font-size="10.00">MixerPlayable</text>
</a>
</g>
</g>
<!-- Node3&#45;&gt;Node6 -->
<g id="edge9" class="edge">
<title>Node3&#45;&gt;Node6</title>
<path fill="none" stroke="#9a32cd" stroke-dasharray="5,2" d="M203.99,-79.55C202.37,-69.25 202.8,-57.82 209.38,-49.5 219.49,-36.69 256.21,-28.35 289.16,-23.3"/>
<polygon fill="#9a32cd" stroke="#9a32cd" points="200.51,-80.03 206.16,-89 207.34,-78.47 200.51,-80.03"/>
<text text-anchor="middle" x="236.62" y="-56.88" font-family="Helvetica,sans-Serif" font-size="10.00"> timelineMixer</text>
</g>
<!-- Node4 -->
<g id="node4" class="node">
<title>Node4</title>
<g id="a_node4"><a xlink:title=" ">
<polygon fill="none" stroke="#bfbfbf" points="111.5,-169.25 111.5,-188.5 194.25,-188.5 194.25,-169.25 111.5,-169.25"/>
<text text-anchor="middle" x="152.88" y="-175" font-family="Helvetica,sans-Serif" font-size="10.00">MonoBehaviour</text>
</a>
</g>
</g>
<!-- Node4&#45;&gt;Node3 -->
<g id="edge3" class="edge">
<title>Node4&#45;&gt;Node3</title>
<path fill="none" stroke="midnightblue" d="M167.53,-160.21C177.46,-148.24 190.41,-132.62 199.76,-121.36"/>
<polygon fill="midnightblue" stroke="midnightblue" points="165,-157.77 161.31,-167.7 170.39,-162.24 165,-157.77"/>
</g>
<!-- Node5 -->
<g id="node5" class="node">
<title>Node5</title>
<g id="a_node5"><a xlink:href="class_event_variable.html" target="_top" xlink:title=" ">
<polygon fill="none" stroke="black" points="212.62,-169.25 212.62,-188.5 329.12,-188.5 329.12,-169.25 212.62,-169.25"/>
<text text-anchor="middle" x="270.88" y="-175" font-family="Helvetica,sans-Serif" font-size="10.00">EventVariable&lt; Mode &gt;</text>
</a>
</g>
</g>
<!-- Node5&#45;&gt;Node3 -->
<g id="edge4" class="edge">
<title>Node5&#45;&gt;Node3</title>
<path fill="none" stroke="#9a32cd" stroke-dasharray="5,2" d="M256.22,-160.21C246.29,-148.24 233.34,-132.62 223.99,-121.36"/>
<polygon fill="#9a32cd" stroke="#9a32cd" points="253.36,-162.24 262.44,-167.7 258.75,-157.77 253.36,-162.24"/>
<text text-anchor="middle" x="272.88" y="-141.25" font-family="Helvetica,sans-Serif" font-size="10.00"> currentMode</text>
</g>
<!-- Node6&#45;&gt;Node3 -->
<g id="edge5" class="edge">
<title>Node6&#45;&gt;Node3</title>
<path fill="none" stroke="#9a32cd" stroke-dasharray="5,2" d="M305.54,-36.98C299.28,-40.77 293.1,-44.98 287.62,-49.5 277.59,-57.79 278.84,-63.63 268.88,-72 260.75,-78.83 251,-85.02 241.89,-90.13"/>
<polygon fill="#9a32cd" stroke="#9a32cd" points="307.09,-40.12 314.03,-32.12 303.61,-34.05 307.09,-40.12"/>
<text text-anchor="middle" x="336" y="-56.88" font-family="Helvetica,sans-Serif" font-size="10.00"> timelineMixerBehaviour</text>
</g>
<!-- Node7 -->
<g id="node7" class="node">
<title>Node7</title>
<g id="a_node7"><a xlink:title=" ">
<polygon fill="none" stroke="#bfbfbf" points="355.38,-96.12 355.38,-115.38 452.38,-115.38 452.38,-96.12 355.38,-96.12"/>
<text text-anchor="middle" x="403.88" y="-101.88" font-family="Helvetica,sans-Serif" font-size="10.00">PlayableBehaviour</text>
</a>
</g>
</g>
<!-- Node7&#45;&gt;Node6 -->
<g id="edge6" class="edge">
<title>Node7&#45;&gt;Node6</title>
<path fill="none" stroke="midnightblue" d="M402.05,-84.64C400.27,-73.54 396.77,-59.94 389.88,-49.5 385.22,-42.45 378.52,-36.31 371.79,-31.32"/>
<polygon fill="midnightblue" stroke="midnightblue" points="398.54,-84.79 403.22,-94.29 405.49,-83.94 398.54,-84.79"/>
</g>
<!-- Node8 -->
<g id="node8" class="node">
<title>Node8</title>
<g id="a_node8"><a xlink:href="class_simple_1_1_timeline_1_1_track_processor_manager.html" target="_top" xlink:title="Automatically discovers all classes that inherit from TrackProcessor and have the TrackProcessor attr...">
<polygon fill="none" stroke="black" points="470.62,-90.5 470.62,-121 617.12,-121 617.12,-90.5 470.62,-90.5"/>
<text text-anchor="start" x="478.62" y="-107.5" font-family="Helvetica,sans-Serif" font-size="10.00">Simple.Timeline.TrackProcessor</text>
<text text-anchor="middle" x="543.88" y="-96.25" font-family="Helvetica,sans-Serif" font-size="10.00">Manager</text>
</a>
</g>
</g>
<!-- Node8&#45;&gt;Node6 -->
<g id="edge7" class="edge">
<title>Node8&#45;&gt;Node6</title>
<path fill="none" stroke="#9a32cd" stroke-dasharray="5,2" d="M500.57,-85.41C464.11,-69.12 412.74,-46.17 379.63,-31.38"/>
<polygon fill="#9a32cd" stroke="#9a32cd" points="498.96,-88.52 509.52,-89.4 501.82,-82.13 498.96,-88.52"/>
<text text-anchor="middle" x="519.25" y="-56.88" font-family="Helvetica,sans-Serif" font-size="10.00"> trackProcessorManager</text>
</g>
<!-- Node9 -->
<g id="node9" class="node">
<title>Node9</title>
<g id="a_node9"><a xlink:href="interface_simple_1_1_timeline_1_1_i_track_processor.html" target="_top" xlink:title=" ">
<polygon fill="none" stroke="#bfbfbf" points="469.12,-169.25 469.12,-188.5 618.62,-188.5 618.62,-169.25 469.12,-169.25"/>
<text text-anchor="middle" x="543.88" y="-175" font-family="Helvetica,sans-Serif" font-size="10.00">Simple.Timeline.ITrackProcessor</text>
</a>
</g>
</g>
<!-- Node9&#45;&gt;Node8 -->
<g id="edge8" class="edge">
<title>Node9&#45;&gt;Node8</title>
<path fill="none" stroke="#9a32cd" stroke-dasharray="5,2" d="M543.88,-157.67C543.88,-146.1 543.88,-131.84 543.88,-121.36"/>
<polygon fill="#9a32cd" stroke="#9a32cd" points="540.38,-157.35 543.88,-167.35 547.38,-157.35 540.38,-157.35"/>
<text text-anchor="middle" x="580.25" y="-141.25" font-family="Helvetica,sans-Serif" font-size="10.00"> defaultProcessor</text>
</g>
</g>
</svg>
