<?xml version="1.0" encoding="UTF-8" standalone="no"?>
<!DOCTYPE svg PUBLIC "-//W3C//DTD SVG 1.1//EN"
 "http://www.w3.org/Graphics/SVG/1.1/DTD/svg11.dtd">
<!-- Generated by graphviz version 12.0.0 (20240704.0754)
 -->
<!-- Title: TimelineMixer.AudioTrackProcessor Pages: 1 -->
<svg width="128pt" height="152pt"
 viewBox="0.00 0.00 128.25 152.00" xmlns="http://www.w3.org/2000/svg" xmlns:xlink="http://www.w3.org/1999/xlink">
<g id="graph0" class="graph" transform="scale(1 1) rotate(0) translate(4 148)">
<title>TimelineMixer.AudioTrackProcessor</title>
<!-- Node1 -->
<g id="node1" class="node">
<title>Node1</title>
<g id="a_node1"><a xlink:title="Processes audio tracks and connects them to the correct mixer on the playable graph....">
<polygon fill="#bfbfbf" stroke="black" points="0,-0.5 0,-31 120.25,-31 120.25,-0.5 0,-0.5"/>
<text text-anchor="start" x="8" y="-17.5" font-family="Helvetica,sans-Serif" font-size="10.00">TimelineMixer.AudioTrack</text>
<text text-anchor="middle" x="60.12" y="-6.25" font-family="Helvetica,sans-Serif" font-size="10.00">Processor</text>
</a>
</g>
</g>
<!-- Node2 -->
<g id="node2" class="node">
<title>Node2</title>
<g id="a_node2"><a xlink:href="class_timeline_mixer_1_1_track_processor.html" target="_top" xlink:title="Track processor for timeline tracks that do not have a custom track processor, this will connect all ...">
<polygon fill="none" stroke="black" points="19.88,-68 19.88,-87.25 100.38,-87.25 100.38,-68 19.88,-68"/>
<text text-anchor="middle" x="60.12" y="-73.75" font-family="Helvetica,sans-Serif" font-size="10.00">TrackProcessor</text>
</a>
</g>
</g>
<!-- Node2&#45;&gt;Node1 -->
<g id="edge1" class="edge">
<title>Node2&#45;&gt;Node1</title>
<path fill="none" stroke="midnightblue" d="M60.12,-56.19C60.12,-47.93 60.12,-38.59 60.12,-31.07"/>
<polygon fill="midnightblue" stroke="midnightblue" points="56.63,-56.02 60.13,-66.02 63.63,-56.02 56.63,-56.02"/>
</g>
<!-- Node3 -->
<g id="node3" class="node">
<title>Node3</title>
<g id="a_node3"><a xlink:href="interface_timeline_mixer_1_1_i_track_processor.html" target="_top" xlink:title=" ">
<polygon fill="none" stroke="#bfbfbf" points="18.38,-124.25 18.38,-143.5 101.88,-143.5 101.88,-124.25 18.38,-124.25"/>
<text text-anchor="middle" x="60.12" y="-130" font-family="Helvetica,sans-Serif" font-size="10.00">ITrackProcessor</text>
</a>
</g>
</g>
<!-- Node3&#45;&gt;Node2 -->
<g id="edge2" class="edge">
<title>Node3&#45;&gt;Node2</title>
<path fill="none" stroke="midnightblue" d="M60.12,-112.69C60.12,-103.98 60.12,-94.24 60.12,-87.42"/>
<polygon fill="midnightblue" stroke="midnightblue" points="56.63,-112.4 60.13,-122.4 63.63,-112.4 56.63,-112.4"/>
</g>
</g>
</svg>
