<?xml version="1.0" encoding="UTF-8" standalone="no"?>
<!DOCTYPE svg PUBLIC "-//W3C//DTD SVG 1.1//EN"
 "http://www.w3.org/Graphics/SVG/1.1/DTD/svg11.dtd">
<!-- Generated by graphviz version 12.0.0 (20240704.0754)
 -->
<!-- Title: TimelineMixer.TrackProcessor Pages: 1 -->
<svg width="439pt" height="190pt"
 viewBox="0.00 0.00 439.25 189.50" xmlns="http://www.w3.org/2000/svg" xmlns:xlink="http://www.w3.org/1999/xlink">
<g id="graph0" class="graph" transform="scale(1 1) rotate(0) translate(4 185.5)">
<title>TimelineMixer.TrackProcessor</title>
<!-- Node1 -->
<g id="node1" class="node">
<title>Node1</title>
<g id="a_node1"><a xlink:title="Track processor for timeline tracks that do not have a custom track processor, this will connect all ...">
<polygon fill="#bfbfbf" stroke="black" points="119.5,-81.12 119.5,-100.38 257.75,-100.38 257.75,-81.12 119.5,-81.12"/>
<text text-anchor="middle" x="188.62" y="-86.88" font-family="Helvetica,sans-Serif" font-size="10.00">TimelineMixer.TrackProcessor</text>
</a>
</g>
</g>
<!-- Node3 -->
<g id="node3" class="node">
<title>Node3</title>
<g id="a_node3"><a xlink:href="class_timeline_mixer_1_1_animation_track_processor.html" target="_top" xlink:title="Processes animation tracks and connects them to the correct mixer on the playable graph....">
<polygon fill="none" stroke="black" points="293.75,-150.5 293.75,-181 431.25,-181 431.25,-150.5 293.75,-150.5"/>
<text text-anchor="start" x="301.75" y="-167.5" font-family="Helvetica,sans-Serif" font-size="10.00">TimelineMixer.AnimationTrack</text>
<text text-anchor="middle" x="362.5" y="-156.25" font-family="Helvetica,sans-Serif" font-size="10.00">Processor</text>
</a>
</g>
</g>
<!-- Node1&#45;&gt;Node3 -->
<g id="edge2" class="edge">
<title>Node1&#45;&gt;Node3</title>
<path fill="none" stroke="midnightblue" d="M219,-105.77C239.67,-116.11 268.12,-129.9 293.75,-140.75 301.25,-143.93 309.32,-147.1 317.17,-150.07"/>
<polygon fill="midnightblue" stroke="midnightblue" points="220.81,-102.76 210.3,-101.39 217.66,-109.01 220.81,-102.76"/>
</g>
<!-- Node4 -->
<g id="node4" class="node">
<title>Node4</title>
<g id="a_node4"><a xlink:href="class_timeline_mixer_1_1_audio_track_processor.html" target="_top" xlink:title="Processes audio tracks and connects them to the correct mixer on the playable graph....">
<polygon fill="none" stroke="black" points="302.38,-100.5 302.38,-131 422.62,-131 422.62,-100.5 302.38,-100.5"/>
<text text-anchor="start" x="310.38" y="-117.5" font-family="Helvetica,sans-Serif" font-size="10.00">TimelineMixer.AudioTrack</text>
<text text-anchor="middle" x="362.5" y="-106.25" font-family="Helvetica,sans-Serif" font-size="10.00">Processor</text>
</a>
</g>
</g>
<!-- Node1&#45;&gt;Node4 -->
<g id="edge3" class="edge">
<title>Node1&#45;&gt;Node4</title>
<path fill="none" stroke="midnightblue" d="M269.38,-102.35C280.33,-103.94 291.41,-105.56 301.91,-107.08"/>
<polygon fill="midnightblue" stroke="midnightblue" points="269.95,-98.9 259.55,-100.92 268.94,-105.82 269.95,-98.9"/>
</g>
<!-- Node5 -->
<g id="node5" class="node">
<title>Node5</title>
<g id="a_node5"><a xlink:href="class_timeline_mixer_1_1_marker_track_processor.html" target="_top" xlink:title="This track processor will connect the marker track to the graph.">
<polygon fill="none" stroke="black" points="300.12,-50.5 300.12,-81 424.88,-81 424.88,-50.5 300.12,-50.5"/>
<text text-anchor="start" x="308.12" y="-67.5" font-family="Helvetica,sans-Serif" font-size="10.00">TimelineMixer.MarkerTrack</text>
<text text-anchor="middle" x="362.5" y="-56.25" font-family="Helvetica,sans-Serif" font-size="10.00">Processor</text>
</a>
</g>
</g>
<!-- Node1&#45;&gt;Node5 -->
<g id="edge4" class="edge">
<title>Node1&#45;&gt;Node5</title>
<path fill="none" stroke="midnightblue" d="M269.12,-79.19C279.39,-77.69 289.79,-76.18 299.72,-74.74"/>
<polygon fill="midnightblue" stroke="midnightblue" points="268.94,-75.68 259.55,-80.58 269.95,-82.6 268.94,-75.68"/>
</g>
<!-- Node6 -->
<g id="node6" class="node">
<title>Node6</title>
<g id="a_node6"><a xlink:href="class_timeline_mixer_1_1_signal_track_processor.html" target="_top" xlink:title="Setup outputs for Signal tracks">
<polygon fill="none" stroke="black" points="301.25,-0.5 301.25,-31 423.75,-31 423.75,-0.5 301.25,-0.5"/>
<text text-anchor="start" x="309.25" y="-17.5" font-family="Helvetica,sans-Serif" font-size="10.00">TimelineMixer.SignalTrack</text>
<text text-anchor="middle" x="362.5" y="-6.25" font-family="Helvetica,sans-Serif" font-size="10.00">Processor</text>
</a>
</g>
</g>
<!-- Node1&#45;&gt;Node6 -->
<g id="edge5" class="edge">
<title>Node1&#45;&gt;Node6</title>
<path fill="none" stroke="midnightblue" d="M219,-75.73C239.67,-65.39 268.12,-51.6 293.75,-40.75 301.25,-37.57 309.32,-34.4 317.17,-31.43"/>
<polygon fill="midnightblue" stroke="midnightblue" points="217.66,-72.49 210.3,-80.11 220.81,-78.74 217.66,-72.49"/>
</g>
<!-- Node2 -->
<g id="node2" class="node">
<title>Node2</title>
<g id="a_node2"><a xlink:href="interface_timeline_mixer_1_1_i_track_processor.html" target="_top" xlink:title=" ">
<polygon fill="none" stroke="#bfbfbf" points="0,-81.12 0,-100.38 83.5,-100.38 83.5,-81.12 0,-81.12"/>
<text text-anchor="middle" x="41.75" y="-86.88" font-family="Helvetica,sans-Serif" font-size="10.00">ITrackProcessor</text>
</a>
</g>
</g>
<!-- Node2&#45;&gt;Node1 -->
<g id="edge1" class="edge">
<title>Node2&#45;&gt;Node1</title>
<path fill="none" stroke="midnightblue" d="M95.36,-90.75C103.13,-90.75 111.23,-90.75 119.26,-90.75"/>
<polygon fill="midnightblue" stroke="midnightblue" points="95.39,-87.25 85.39,-90.75 95.39,-94.25 95.39,-87.25"/>
</g>
</g>
</svg>
