<?xml version="1.0" encoding="UTF-8" standalone="no"?>
<!DOCTYPE svg PUBLIC "-//W3C//DTD SVG 1.1//EN"
 "http://www.w3.org/Graphics/SVG/1.1/DTD/svg11.dtd">
<!-- Generated by graphviz version 12.0.0 (20240704.0754)
 -->
<!-- Title: TimelineMixer.AnimationTrackProcessor Pages: 1 -->
<svg width="146pt" height="152pt"
 viewBox="0.00 0.00 145.50 152.00" xmlns="http://www.w3.org/2000/svg" xmlns:xlink="http://www.w3.org/1999/xlink">
<g id="graph0" class="graph" transform="scale(1 1) rotate(0) translate(4 148)">
<title>TimelineMixer.AnimationTrackProcessor</title>
<!-- Node1 -->
<g id="node1" class="node">
<title>Node1</title>
<g id="a_node1"><a xlink:title="Processes animation tracks and connects them to the correct mixer on the playable graph....">
<polygon fill="#bfbfbf" stroke="black" points="0,-0.5 0,-31 137.5,-31 137.5,-0.5 0,-0.5"/>
<text text-anchor="start" x="8" y="-17.5" font-family="Helvetica,sans-Serif" font-size="10.00">TimelineMixer.AnimationTrack</text>
<text text-anchor="middle" x="68.75" y="-6.25" font-family="Helvetica,sans-Serif" font-size="10.00">Processor</text>
</a>
</g>
</g>
<!-- Node2 -->
<g id="node2" class="node">
<title>Node2</title>
<g id="a_node2"><a xlink:href="class_timeline_mixer_1_1_track_processor.html" target="_top" xlink:title="Track processor for timeline tracks that do not have a custom track processor, this will connect all ...">
<polygon fill="none" stroke="black" points="28.5,-68 28.5,-87.25 109,-87.25 109,-68 28.5,-68"/>
<text text-anchor="middle" x="68.75" y="-73.75" font-family="Helvetica,sans-Serif" font-size="10.00">TrackProcessor</text>
</a>
</g>
</g>
<!-- Node2&#45;&gt;Node1 -->
<g id="edge1" class="edge">
<title>Node2&#45;&gt;Node1</title>
<path fill="none" stroke="midnightblue" d="M68.75,-56.19C68.75,-47.93 68.75,-38.59 68.75,-31.07"/>
<polygon fill="midnightblue" stroke="midnightblue" points="65.25,-56.02 68.75,-66.02 72.25,-56.02 65.25,-56.02"/>
</g>
<!-- Node3 -->
<g id="node3" class="node">
<title>Node3</title>
<g id="a_node3"><a xlink:href="interface_timeline_mixer_1_1_i_track_processor.html" target="_top" xlink:title=" ">
<polygon fill="none" stroke="#bfbfbf" points="27,-124.25 27,-143.5 110.5,-143.5 110.5,-124.25 27,-124.25"/>
<text text-anchor="middle" x="68.75" y="-130" font-family="Helvetica,sans-Serif" font-size="10.00">ITrackProcessor</text>
</a>
</g>
</g>
<!-- Node3&#45;&gt;Node2 -->
<g id="edge2" class="edge">
<title>Node3&#45;&gt;Node2</title>
<path fill="none" stroke="midnightblue" d="M68.75,-112.69C68.75,-103.98 68.75,-94.24 68.75,-87.42"/>
<polygon fill="midnightblue" stroke="midnightblue" points="65.25,-112.4 68.75,-122.4 72.25,-112.4 65.25,-112.4"/>
</g>
</g>
</svg>
