<?xml version="1.0" encoding="UTF-8" standalone="no"?>
<!DOCTYPE svg PUBLIC "-//W3C//DTD SVG 1.1//EN"
 "http://www.w3.org/Graphics/SVG/1.1/DTD/svg11.dtd">
<!-- Generated by graphviz version 12.0.0 (20240704.0754)
 -->
<!-- Title: Simple.Timeline.TimelineCharacterController Pages: 1 -->
<svg width="560pt" height="401pt"
 viewBox="0.00 0.00 559.88 400.50" xmlns="http://www.w3.org/2000/svg" xmlns:xlink="http://www.w3.org/1999/xlink">
<g id="graph0" class="graph" transform="scale(1 1) rotate(0) translate(4 396.5)">
<title>Simple.Timeline.TimelineCharacterController</title>
<!-- Node1 -->
<g id="node1" class="node">
<title>Node1</title>
<g id="a_node1"><a xlink:title="This is complete overkill and only intended as an example of what could possibly be created with Time...">
<polygon fill="#bfbfbf" stroke="black" points="156.88,-0.5 156.88,-31 271.88,-31 271.88,-0.5 156.88,-0.5"/>
<text text-anchor="start" x="164.88" y="-17.5" font-family="Helvetica,sans-Serif" font-size="10.00">Simple.Timeline.Timeline</text>
<text text-anchor="middle" x="214.38" y="-6.25" font-family="Helvetica,sans-Serif" font-size="10.00">CharacterController</text>
</a>
</g>
</g>
<!-- Node2 -->
<g id="node2" class="node">
<title>Node2</title>
<g id="a_node2"><a xlink:title=" ">
<polygon fill="none" stroke="#bfbfbf" points="0,-372.75 0,-392 82.75,-392 82.75,-372.75 0,-372.75"/>
<text text-anchor="middle" x="41.38" y="-378.5" font-family="Helvetica,sans-Serif" font-size="10.00">MonoBehaviour</text>
</a>
</g>
</g>
<!-- Node2&#45;&gt;Node1 -->
<g id="edge1" class="edge">
<title>Node2&#45;&gt;Node1</title>
<path fill="none" stroke="midnightblue" d="M25.75,-363.8C15.27,-350.18 3.38,-330.3 3.38,-310.25 3.38,-310.25 3.38,-310.25 3.38,-93.5 3.38,-60.81 93.97,-38 156.44,-26.17"/>
<polygon fill="midnightblue" stroke="midnightblue" points="22.92,-365.87 31.98,-371.36 28.32,-361.42 22.92,-365.87"/>
</g>
<!-- Node4 -->
<g id="node4" class="node">
<title>Node4</title>
<g id="a_node4"><a xlink:href="class_simple_1_1_timeline_1_1_timeline_component.html" target="_top" xlink:title=" ">
<polygon fill="none" stroke="#bfbfbf" points="165.12,-147.75 165.12,-167 263.62,-167 263.62,-147.75 165.12,-147.75"/>
<text text-anchor="middle" x="214.38" y="-153.5" font-family="Helvetica,sans-Serif" font-size="10.00">TimelineComponent</text>
</a>
</g>
</g>
<!-- Node2&#45;&gt;Node4 -->
<g id="edge4" class="edge">
<title>Node2&#45;&gt;Node4</title>
<path fill="none" stroke="midnightblue" d="M42.2,-361.26C43.75,-342.57 48.13,-314.55 60.38,-293.5 95.43,-233.24 167.08,-186.05 198.74,-167.23"/>
<polygon fill="midnightblue" stroke="midnightblue" points="38.72,-360.8 41.61,-370.99 45.71,-361.22 38.72,-360.8"/>
</g>
<!-- Node10 -->
<g id="node10" class="node">
<title>Node10</title>
<g id="a_node10"><a xlink:href="class_simple_1_1_timeline_1_1_timeline_component.html" target="_top" xlink:title=" ">
<polygon fill="none" stroke="#bfbfbf" points="349.88,-294 349.88,-324.5 464.88,-324.5 464.88,-294 349.88,-294"/>
<text text-anchor="start" x="357.88" y="-311" font-family="Helvetica,sans-Serif" font-size="10.00">Simple.Timeline.Timeline</text>
<text text-anchor="middle" x="407.38" y="-299.75" font-family="Helvetica,sans-Serif" font-size="10.00">Component</text>
</a>
</g>
</g>
<!-- Node2&#45;&gt;Node10 -->
<g id="edge11" class="edge">
<title>Node2&#45;&gt;Node10</title>
<path fill="none" stroke="midnightblue" d="M94.09,-371.93C153.9,-361.11 254.31,-342.58 340.38,-325 343.41,-324.38 346.52,-323.73 349.66,-323.07"/>
<polygon fill="midnightblue" stroke="midnightblue" points="93.76,-368.44 84.54,-373.66 95,-375.33 93.76,-368.44"/>
</g>
<!-- Node3 -->
<g id="node3" class="node">
<title>Node3</title>
<g id="a_node3"><a xlink:href="class_simple_1_1_timeline_1_1_timeline_mixer.html" target="_top" xlink:title=" ">
<polygon fill="none" stroke="#bfbfbf" points="156.88,-79.25 156.88,-109.75 271.88,-109.75 271.88,-79.25 156.88,-79.25"/>
<text text-anchor="start" x="164.88" y="-96.25" font-family="Helvetica,sans-Serif" font-size="10.00">Simple.Timeline.Timeline</text>
<text text-anchor="middle" x="214.38" y="-85" font-family="Helvetica,sans-Serif" font-size="10.00">Mixer</text>
</a>
</g>
</g>
<!-- Node3&#45;&gt;Node1 -->
<g id="edge2" class="edge">
<title>Node3&#45;&gt;Node1</title>
<path fill="none" stroke="#9a32cd" stroke-dasharray="5,2" d="M214.38,-67.79C214.38,-55.67 214.38,-41.66 214.38,-31.38"/>
<polygon fill="#9a32cd" stroke="#9a32cd" points="210.88,-67.55 214.38,-77.55 217.88,-67.55 210.88,-67.55"/>
<text text-anchor="middle" x="242.12" y="-51.25" font-family="Helvetica,sans-Serif" font-size="10.00"> timelineMixer</text>
</g>
<!-- Node4&#45;&gt;Node3 -->
<g id="edge3" class="edge">
<title>Node4&#45;&gt;Node3</title>
<path fill="none" stroke="midnightblue" d="M214.38,-136.17C214.38,-127.68 214.38,-117.98 214.38,-110.19"/>
<polygon fill="midnightblue" stroke="midnightblue" points="210.88,-135.88 214.38,-145.88 217.88,-135.88 210.88,-135.88"/>
</g>
<!-- Node5 -->
<g id="node5" class="node">
<title>Node5</title>
<g id="a_node5"><a xlink:href="class_event_variable.html" target="_top" xlink:title=" ">
<polygon fill="none" stroke="black" points="400.12,-372.75 400.12,-392 516.62,-392 516.62,-372.75 400.12,-372.75"/>
<text text-anchor="middle" x="458.38" y="-378.5" font-family="Helvetica,sans-Serif" font-size="10.00">EventVariable&lt; Mode &gt;</text>
</a>
</g>
</g>
<!-- Node5&#45;&gt;Node4 -->
<g id="edge5" class="edge">
<title>Node5&#45;&gt;Node4</title>
<path fill="none" stroke="#9a32cd" stroke-dasharray="5,2" d="M484.91,-365.33C488.33,-362.1 491.34,-358.4 493.38,-354.25 504.33,-331.91 546.69,-351.42 483.38,-264.25 432.12,-193.7 326.53,-170.14 263.96,-162.29"/>
<polygon fill="#9a32cd" stroke="#9a32cd" points="482.82,-362.53 477.1,-371.45 487.13,-368.04 482.82,-362.53"/>
<text text-anchor="middle" x="516.38" y="-266" font-family="Helvetica,sans-Serif" font-size="10.00"> currentMode</text>
</g>
<!-- Node5&#45;&gt;Node10 -->
<g id="edge12" class="edge">
<title>Node5&#45;&gt;Node10</title>
<path fill="none" stroke="#9a32cd" stroke-dasharray="5,2" d="M445.45,-363.35C436.91,-351.43 425.85,-336.01 417.85,-324.86"/>
<polygon fill="#9a32cd" stroke="#9a32cd" points="442.36,-365.05 451.03,-371.14 448.05,-360.97 442.36,-365.05"/>
<text text-anchor="middle" x="464.38" y="-344.75" font-family="Helvetica,sans-Serif" font-size="10.00"> currentMode</text>
</g>
<!-- Node6 -->
<g id="node6" class="node">
<title>Node6</title>
<g id="a_node6"><a xlink:href="class_simple_1_1_timeline_1_1_timeline_mixer_playable.html" target="_top" xlink:title=" ">
<polygon fill="none" stroke="#bfbfbf" points="156.88,-215.25 156.88,-245.75 271.88,-245.75 271.88,-215.25 156.88,-215.25"/>
<text text-anchor="start" x="164.88" y="-232.25" font-family="Helvetica,sans-Serif" font-size="10.00">Simple.Timeline.Timeline</text>
<text text-anchor="middle" x="214.38" y="-221" font-family="Helvetica,sans-Serif" font-size="10.00">MixerPlayable</text>
</a>
</g>
</g>
<!-- Node6&#45;&gt;Node4 -->
<g id="edge6" class="edge">
<title>Node6&#45;&gt;Node4</title>
<path fill="none" stroke="#9a32cd" stroke-dasharray="5,2" d="M214.38,-203.36C214.38,-190.68 214.38,-176.28 214.38,-167.26"/>
<polygon fill="#9a32cd" stroke="#9a32cd" points="210.88,-203.25 214.38,-213.25 217.88,-203.25 210.88,-203.25"/>
<text text-anchor="middle" x="263.5" y="-187.25" font-family="Helvetica,sans-Serif" font-size="10.00"> timelineMixerBehaviour</text>
</g>
<!-- Node6&#45;&gt;Node10 -->
<g id="edge13" class="edge">
<title>Node6&#45;&gt;Node10</title>
<path fill="none" stroke="#9a32cd" stroke-dasharray="5,2" d="M241.76,-253.28C254.02,-262.69 267.25,-272.28 274.12,-275.5 281.3,-278.86 316.98,-287.57 349.62,-295.16"/>
<polygon fill="#9a32cd" stroke="#9a32cd" points="243.93,-250.53 233.89,-247.16 239.64,-256.06 243.93,-250.53"/>
<text text-anchor="middle" x="322.5" y="-266" font-family="Helvetica,sans-Serif" font-size="10.00"> timelineMixerBehaviour</text>
</g>
<!-- Node7 -->
<g id="node7" class="node">
<title>Node7</title>
<g id="a_node7"><a xlink:title=" ">
<polygon fill="none" stroke="#bfbfbf" points="69.88,-299.62 69.88,-318.88 166.88,-318.88 166.88,-299.62 69.88,-299.62"/>
<text text-anchor="middle" x="118.38" y="-305.38" font-family="Helvetica,sans-Serif" font-size="10.00">PlayableBehaviour</text>
</a>
</g>
</g>
<!-- Node7&#45;&gt;Node6 -->
<g id="edge7" class="edge">
<title>Node7&#45;&gt;Node6</title>
<path fill="none" stroke="midnightblue" d="M126.9,-289.27C131.43,-280.79 137.68,-271.16 145.38,-264.25 153.56,-256.9 163.69,-250.87 173.65,-246.08"/>
<polygon fill="midnightblue" stroke="midnightblue" points="123.84,-287.56 122.6,-298.08 130.13,-290.63 123.84,-287.56"/>
</g>
<!-- Node8 -->
<g id="node8" class="node">
<title>Node8</title>
<g id="a_node8"><a xlink:href="class_simple_1_1_timeline_1_1_track_processor_manager.html" target="_top" xlink:title="Automatically discovers all classes that inherit from TrackProcessor and have the TrackProcessor attr...">
<polygon fill="none" stroke="black" points="185.12,-294 185.12,-324.5 331.62,-324.5 331.62,-294 185.12,-294"/>
<text text-anchor="start" x="193.12" y="-311" font-family="Helvetica,sans-Serif" font-size="10.00">Simple.Timeline.TrackProcessor</text>
<text text-anchor="middle" x="258.38" y="-299.75" font-family="Helvetica,sans-Serif" font-size="10.00">Manager</text>
</a>
</g>
</g>
<!-- Node8&#45;&gt;Node6 -->
<g id="edge8" class="edge">
<title>Node8&#45;&gt;Node6</title>
<path fill="none" stroke="#9a32cd" stroke-dasharray="5,2" d="M178.5,-290.14C166.42,-285.86 156.63,-280.94 152.62,-275.5 143.8,-263.53 154.8,-253.55 169.84,-246.14"/>
<polygon fill="#9a32cd" stroke="#9a32cd" points="177.09,-293.36 187.68,-293.11 179.25,-286.7 177.09,-293.36"/>
<text text-anchor="middle" x="203.75" y="-266" font-family="Helvetica,sans-Serif" font-size="10.00"> trackProcessorManager</text>
</g>
<!-- Node9 -->
<g id="node9" class="node">
<title>Node9</title>
<g id="a_node9"><a xlink:href="interface_simple_1_1_timeline_1_1_i_track_processor.html" target="_top" xlink:title=" ">
<polygon fill="none" stroke="#bfbfbf" points="183.62,-372.75 183.62,-392 333.12,-392 333.12,-372.75 183.62,-372.75"/>
<text text-anchor="middle" x="258.38" y="-378.5" font-family="Helvetica,sans-Serif" font-size="10.00">Simple.Timeline.ITrackProcessor</text>
</a>
</g>
</g>
<!-- Node9&#45;&gt;Node8 -->
<g id="edge9" class="edge">
<title>Node9&#45;&gt;Node8</title>
<path fill="none" stroke="#9a32cd" stroke-dasharray="5,2" d="M258.38,-361.17C258.38,-349.6 258.38,-335.34 258.38,-324.86"/>
<polygon fill="#9a32cd" stroke="#9a32cd" points="254.88,-360.85 258.38,-370.85 261.88,-360.85 254.88,-360.85"/>
<text text-anchor="middle" x="294.75" y="-344.75" font-family="Helvetica,sans-Serif" font-size="10.00"> defaultProcessor</text>
</g>
<!-- Node10&#45;&gt;Node1 -->
<g id="edge14" class="edge">
<title>Node10&#45;&gt;Node1</title>
<path fill="none" stroke="#9a32cd" stroke-dasharray="5,2" d="M437.98,-286.67C453.61,-272.94 469.38,-253.61 469.38,-231.5 469.38,-231.5 469.38,-231.5 469.38,-93.5 469.38,-52.58 347.47,-31.56 272.24,-22.48"/>
<polygon fill="#9a32cd" stroke="#9a32cd" points="436.09,-283.69 430.58,-292.74 440.53,-289.1 436.09,-283.69"/>
<text text-anchor="middle" x="510.62" y="-153.5" font-family="Helvetica,sans-Serif" font-size="10.00"> timelineComponent</text>
</g>
<!-- Node10&#45;&gt;Node6 -->
<g id="edge10" class="edge">
<title>Node10&#45;&gt;Node6</title>
<path fill="none" stroke="#9a32cd" stroke-dasharray="5,2" d="M395.02,-283.97C390.16,-276.6 383.91,-269.17 376.38,-264.25 345.62,-244.18 305.12,-235.99 272.31,-232.82"/>
<polygon fill="#9a32cd" stroke="#9a32cd" points="391.92,-285.61 400.03,-292.44 397.95,-282.05 391.92,-285.61"/>
<text text-anchor="middle" x="415.12" y="-266" font-family="Helvetica,sans-Serif" font-size="10.00"> timelineMixer</text>
</g>
</g>
</svg>
