<?xml version="1.0" encoding="UTF-8" standalone="no"?>
<!DOCTYPE svg PUBLIC "-//W3C//DTD SVG 1.1//EN"
 "http://www.w3.org/Graphics/SVG/1.1/DTD/svg11.dtd">
<!-- Generated by graphviz version 12.0.0 (20240704.0754)
 -->
<!-- Title: Graph Legend Pages: 1 -->
<svg width="495pt" height="160pt"
 viewBox="0.00 0.00 494.62 160.25" xmlns="http://www.w3.org/2000/svg" xmlns:xlink="http://www.w3.org/1999/xlink">
<g id="graph0" class="graph" transform="scale(1 1) rotate(0) translate(4 156.25)">
<title>Graph Legend</title>
<!-- Node9 -->
<g id="node1" class="node">
<title>Node9</title>
<polygon fill="#bfbfbf" stroke="black" points="285,-19.25 233.75,-19.25 233.75,0 285,0 285,-19.25"/>
<text text-anchor="middle" x="259.38" y="-5.75" font-family="Helvetica,sans-Serif" font-size="10.00">Inherited</text>
</g>
<!-- Node10 -->
<g id="node2" class="node">
<title>Node10</title>
<polygon fill="none" stroke="black" points="64.75,-85.75 0,-85.75 0,-66.5 64.75,-66.5 64.75,-85.75"/>
<text text-anchor="middle" x="32.38" y="-72.25" font-family="Helvetica,sans-Serif" font-size="10.00">PublicBase</text>
</g>
<!-- Node10&#45;&gt;Node9 -->
<g id="edge1" class="edge">
<title>Node10&#45;&gt;Node9</title>
<path fill="none" stroke="midnightblue" d="M75.38,-62.9C122.02,-49.65 194.93,-28.94 233.48,-17.98"/>
<polygon fill="midnightblue" stroke="midnightblue" points="74.54,-59.51 65.87,-65.61 76.45,-66.24 74.54,-59.51"/>
</g>
<!-- Node11 -->
<g id="node3" class="node">
<title>Node11</title>
<polygon fill="none" stroke="red" points="61,-152.25 3.75,-152.25 3.75,-133 61,-133 61,-152.25"/>
<text text-anchor="middle" x="32.38" y="-138.75" font-family="Helvetica,sans-Serif" font-size="10.00">Truncated</text>
</g>
<!-- Node11&#45;&gt;Node10 -->
<g id="edge2" class="edge">
<title>Node11&#45;&gt;Node10</title>
<path fill="none" stroke="midnightblue" d="M32.38,-121.15C32.38,-109.32 32.38,-95.04 32.38,-86.02"/>
<polygon fill="midnightblue" stroke="midnightblue" points="28.88,-121.14 32.38,-131.14 35.88,-121.14 28.88,-121.14"/>
</g>
<!-- Node13 -->
<g id="node4" class="node">
<title>Node13</title>
<polygon fill="none" stroke="black" points="161.5,-85.75 83.25,-85.75 83.25,-66.5 161.5,-66.5 161.5,-85.75"/>
<text text-anchor="middle" x="122.38" y="-72.25" font-family="Helvetica,sans-Serif" font-size="10.00">ProtectedBase</text>
</g>
<!-- Node13&#45;&gt;Node9 -->
<g id="edge3" class="edge">
<title>Node13&#45;&gt;Node9</title>
<path fill="none" stroke="darkgreen" d="M152.01,-61.17C178.73,-48.59 217.23,-30.47 240.14,-19.68"/>
<polygon fill="darkgreen" stroke="darkgreen" points="150.64,-57.95 143.08,-65.38 153.62,-64.28 150.64,-57.95"/>
</g>
<!-- Node14 -->
<g id="node5" class="node">
<title>Node14</title>
<polygon fill="none" stroke="black" points="247.62,-85.75 179.12,-85.75 179.12,-66.5 247.62,-66.5 247.62,-85.75"/>
<text text-anchor="middle" x="213.38" y="-72.25" font-family="Helvetica,sans-Serif" font-size="10.00">PrivateBase</text>
</g>
<!-- Node14&#45;&gt;Node9 -->
<g id="edge4" class="edge">
<title>Node14&#45;&gt;Node9</title>
<path fill="none" stroke="#8b1a1a" d="M226.39,-56.88C235.1,-44.66 246.19,-29.11 253.03,-19.52"/>
<polygon fill="#8b1a1a" stroke="#8b1a1a" points="223.61,-54.75 220.65,-64.92 229.31,-58.81 223.61,-54.75"/>
</g>
<!-- Node15 -->
<g id="node6" class="node">
<title>Node15</title>
<polygon fill="none" stroke="#bfbfbf" points="344.88,-85.75 265.88,-85.75 265.88,-66.5 344.88,-66.5 344.88,-85.75"/>
<text text-anchor="middle" x="305.38" y="-72.25" font-family="Helvetica,sans-Serif" font-size="10.00">Undocumented</text>
</g>
<!-- Node15&#45;&gt;Node9 -->
<g id="edge5" class="edge">
<title>Node15&#45;&gt;Node9</title>
<path fill="none" stroke="midnightblue" d="M292.36,-56.88C283.65,-44.66 272.56,-29.11 265.72,-19.52"/>
<polygon fill="midnightblue" stroke="midnightblue" points="289.44,-58.81 298.1,-64.92 295.14,-54.75 289.44,-58.81"/>
</g>
<!-- Node16 -->
<g id="node7" class="node">
<title>Node16</title>
<polygon fill="none" stroke="black" points="429.88,-85.75 362.88,-85.75 362.88,-66.5 429.88,-66.5 429.88,-85.75"/>
<text text-anchor="middle" x="396.38" y="-72.25" font-family="Helvetica,sans-Serif" font-size="10.00">Templ&lt; int &gt;</text>
</g>
<!-- Node16&#45;&gt;Node9 -->
<g id="edge6" class="edge">
<title>Node16&#45;&gt;Node9</title>
<path fill="none" stroke="midnightblue" d="M366.74,-61.17C340.02,-48.59 301.52,-30.47 278.61,-19.68"/>
<polygon fill="midnightblue" stroke="midnightblue" points="365.13,-64.28 375.67,-65.38 368.11,-57.95 365.13,-64.28"/>
</g>
<!-- Node17 -->
<g id="node8" class="node">
<title>Node17</title>
<polygon fill="none" stroke="black" points="428,-152.25 364.75,-152.25 364.75,-133 428,-133 428,-152.25"/>
<text text-anchor="middle" x="396.38" y="-138.75" font-family="Helvetica,sans-Serif" font-size="10.00">Templ&lt; T &gt;</text>
</g>
<!-- Node17&#45;&gt;Node16 -->
<g id="edge7" class="edge">
<title>Node17&#45;&gt;Node16</title>
<path fill="none" stroke="orange" stroke-dasharray="5,2" d="M396.38,-121.15C396.38,-109.32 396.38,-95.04 396.38,-86.02"/>
<polygon fill="orange" stroke="orange" points="392.88,-121.14 396.38,-131.14 399.88,-121.14 392.88,-121.14"/>
<text text-anchor="middle" x="409.12" y="-105.5" font-family="Helvetica,sans-Serif" font-size="10.00">&lt; int &gt;</text>
</g>
<!-- Node18 -->
<g id="node9" class="node">
<title>Node18</title>
<polygon fill="none" stroke="black" points="486.62,-85.75 448.12,-85.75 448.12,-66.5 486.62,-66.5 486.62,-85.75"/>
<text text-anchor="middle" x="467.38" y="-72.25" font-family="Helvetica,sans-Serif" font-size="10.00">Used</text>
</g>
<!-- Node18&#45;&gt;Node9 -->
<g id="edge8" class="edge">
<title>Node18&#45;&gt;Node9</title>
<path fill="none" stroke="#9a32cd" stroke-dasharray="5,2" d="M436.91,-65.68C396.01,-52.99 324.05,-30.68 285.5,-18.73"/>
<polygon fill="#9a32cd" stroke="#9a32cd" points="435.77,-68.99 446.36,-68.61 437.85,-62.3 435.77,-68.99"/>
<text text-anchor="middle" x="405" y="-39" font-family="Helvetica,sans-Serif" font-size="10.00">m_usedClass</text>
</g>
</g>
</svg>
