<?xml version="1.0" encoding="UTF-8" standalone="no"?>
<!DOCTYPE svg PUBLIC "-//W3C//DTD SVG 1.1//EN"
 "http://www.w3.org/Graphics/SVG/1.1/DTD/svg11.dtd">
<!-- Generated by graphviz version 12.0.0 (20240704.0754)
 -->
<!-- Title: Graphical Class Hierarchy Pages: 1 -->
<svg width="497pt" height="186pt"
 viewBox="0.00 0.00 497.00 185.50" xmlns="http://www.w3.org/2000/svg" xmlns:xlink="http://www.w3.org/1999/xlink">
<g id="graph0" class="graph" transform="scale(1 1) rotate(0) translate(4 181.5)">
<title>Graphical Class Hierarchy</title>
<!-- Node0 -->
<g id="Node000000" class="node">
<title>Node0</title>
<g id="a_Node000000"><a xlink:href="interface_timeline_mixer_1_1_i_track_processor.html" target="_top" xlink:title=" ">
<polygon fill="white" stroke="#666666" points="141.25,-97.88 0,-97.88 0,-78.62 141.25,-78.62 141.25,-97.88"/>
<text text-anchor="middle" x="70.62" y="-84.38" font-family="Helvetica,sans-Serif" font-size="10.00">TimelineMixer.ITrackProcessor</text>
</a>
</g>
</g>
<!-- Node1 -->
<g id="Node000001" class="node">
<title>Node1</title>
<g id="a_Node000001"><a xlink:href="class_timeline_mixer_1_1_track_processor.html" target="_top" xlink:title="Track processor for timeline tracks that do not have a custom track processor, this will connect all ...">
<polygon fill="white" stroke="#666666" points="315.5,-97.88 177.25,-97.88 177.25,-78.62 315.5,-78.62 315.5,-97.88"/>
<text text-anchor="middle" x="246.38" y="-84.38" font-family="Helvetica,sans-Serif" font-size="10.00">TimelineMixer.TrackProcessor</text>
</a>
</g>
</g>
<!-- Node0&#45;&gt;Node1 -->
<g id="edge10_Node000000_Node000001" class="edge">
<title>Node0&#45;&gt;Node1</title>
<g id="a_edge10_Node000000_Node000001"><a xlink:title=" ">
<path fill="none" stroke="#63b8ff" d="M152.88,-88.25C160.95,-88.25 169.09,-88.25 177.01,-88.25"/>
<polygon fill="#63b8ff" stroke="#63b8ff" points="153.06,-84.75 143.06,-88.25 153.06,-91.75 153.06,-84.75"/>
</a>
</g>
</g>
<!-- Node2 -->
<g id="Node000002" class="node">
<title>Node2</title>
<g id="a_Node000002"><a xlink:href="class_timeline_mixer_1_1_animation_track_processor.html" target="_top" xlink:title="Processes animation tracks and connects them to the correct mixer on the playable graph....">
<polygon fill="white" stroke="#666666" points="489,-177.5 351.5,-177.5 351.5,-147 489,-147 489,-177.5"/>
<text text-anchor="start" x="359.5" y="-164" font-family="Helvetica,sans-Serif" font-size="10.00">TimelineMixer.AnimationTrack</text>
<text text-anchor="middle" x="420.25" y="-152.75" font-family="Helvetica,sans-Serif" font-size="10.00">Processor</text>
</a>
</g>
</g>
<!-- Node1&#45;&gt;Node2 -->
<g id="edge11_Node000001_Node000002" class="edge">
<title>Node1&#45;&gt;Node2</title>
<g id="a_edge11_Node000001_Node000002"><a xlink:title=" ">
<path fill="none" stroke="#63b8ff" d="M277.54,-103.29C298.17,-113.37 326.24,-126.67 351.5,-137.25 359.02,-140.4 367.08,-143.56 374.94,-146.52"/>
<polygon fill="#63b8ff" stroke="#63b8ff" points="279.37,-100.29 268.85,-99.02 276.28,-106.57 279.37,-100.29"/>
</a>
</g>
</g>
<!-- Node3 -->
<g id="Node000003" class="node">
<title>Node3</title>
<g id="a_Node000003"><a xlink:href="class_timeline_mixer_1_1_audio_track_processor.html" target="_top" xlink:title="Processes audio tracks and connects them to the correct mixer on the playable graph....">
<polygon fill="white" stroke="#666666" points="480.38,-128.5 360.12,-128.5 360.12,-98 480.38,-98 480.38,-128.5"/>
<text text-anchor="start" x="368.12" y="-115" font-family="Helvetica,sans-Serif" font-size="10.00">TimelineMixer.AudioTrack</text>
<text text-anchor="middle" x="420.25" y="-103.75" font-family="Helvetica,sans-Serif" font-size="10.00">Processor</text>
</a>
</g>
</g>
<!-- Node1&#45;&gt;Node3 -->
<g id="edge12_Node000001_Node000003" class="edge">
<title>Node1&#45;&gt;Node3</title>
<g id="a_edge12_Node000001_Node000003"><a xlink:title=" ">
<path fill="none" stroke="#63b8ff" d="M327.13,-99.85C338.08,-101.44 349.16,-103.06 359.66,-104.58"/>
<polygon fill="#63b8ff" stroke="#63b8ff" points="327.7,-96.4 317.3,-98.42 326.69,-103.32 327.7,-96.4"/>
</a>
</g>
</g>
<!-- Node4 -->
<g id="Node000004" class="node">
<title>Node4</title>
<g id="a_Node000004"><a xlink:href="class_timeline_mixer_1_1_marker_track_processor.html" target="_top" xlink:title="This track processor will connect the marker track to the graph.">
<polygon fill="white" stroke="#666666" points="482.62,-79.5 357.88,-79.5 357.88,-49 482.62,-49 482.62,-79.5"/>
<text text-anchor="start" x="365.88" y="-66" font-family="Helvetica,sans-Serif" font-size="10.00">TimelineMixer.MarkerTrack</text>
<text text-anchor="middle" x="420.25" y="-54.75" font-family="Helvetica,sans-Serif" font-size="10.00">Processor</text>
</a>
</g>
</g>
<!-- Node1&#45;&gt;Node4 -->
<g id="edge13_Node000001_Node000004" class="edge">
<title>Node1&#45;&gt;Node4</title>
<g id="a_edge13_Node000001_Node000004"><a xlink:title=" ">
<path fill="none" stroke="#63b8ff" d="M327.2,-77.1C337.36,-75.68 347.64,-74.25 357.47,-72.88"/>
<polygon fill="#63b8ff" stroke="#63b8ff" points="326.72,-73.64 317.3,-78.49 327.69,-80.57 326.72,-73.64"/>
</a>
</g>
</g>
<!-- Node5 -->
<g id="Node000005" class="node">
<title>Node5</title>
<g id="a_Node000005"><a xlink:href="class_timeline_mixer_1_1_signal_track_processor.html" target="_top" xlink:title="Setup outputs for Signal tracks.">
<polygon fill="white" stroke="#666666" points="481.5,-30.5 359,-30.5 359,0 481.5,0 481.5,-30.5"/>
<text text-anchor="start" x="367" y="-17" font-family="Helvetica,sans-Serif" font-size="10.00">TimelineMixer.SignalTrack</text>
<text text-anchor="middle" x="420.25" y="-5.75" font-family="Helvetica,sans-Serif" font-size="10.00">Processor</text>
</a>
</g>
</g>
<!-- Node1&#45;&gt;Node5 -->
<g id="edge14_Node000001_Node000005" class="edge">
<title>Node1&#45;&gt;Node5</title>
<g id="a_edge14_Node000001_Node000005"><a xlink:title=" ">
<path fill="none" stroke="#63b8ff" d="M278.25,-73.25C298.82,-63.44 326.56,-50.58 351.5,-40.25 359.14,-37.08 367.35,-33.89 375.32,-30.89"/>
<polygon fill="#63b8ff" stroke="#63b8ff" points="276.77,-70.07 269.27,-77.55 279.8,-76.38 276.77,-70.07"/>
</a>
</g>
</g>
</g>
</svg>
