<?xml version="1.0" encoding="UTF-8" standalone="no"?>
<!DOCTYPE svg PUBLIC "-//W3C//DTD SVG 1.1//EN"
 "http://www.w3.org/Graphics/SVG/1.1/DTD/svg11.dtd">
<!-- Generated by graphviz version 12.0.0 (20240704.0754)
 -->
<!-- Title: Graphical Class Hierarchy Pages: 1 -->
<svg width="462pt" height="66pt"
 viewBox="0.00 0.00 461.75 66.25" xmlns="http://www.w3.org/2000/svg" xmlns:xlink="http://www.w3.org/1999/xlink">
<g id="graph0" class="graph" transform="scale(1 1) rotate(0) translate(4 62.25)">
<title>Graphical Class Hierarchy</title>
<!-- Node0 -->
<g id="node1" class="node">
<title>Node0</title>
<g id="a_node1"><a xlink:title=" ">
<polygon fill="none" stroke="#bfbfbf" points="0,-38.5 0,-57.75 100,-57.75 100,-38.5 0,-38.5"/>
<text text-anchor="middle" x="50" y="-44.25" font-family="Helvetica,sans-Serif" font-size="10.00">INotificationReceiver</text>
</a>
</g>
</g>
<!-- Node1 -->
<g id="node2" class="node">
<title>Node1</title>
<g id="a_node2"><a xlink:href="class_timeline_mixer_1_1_timeline_mixer_base.html" target="_top" xlink:title="This component is not intended to be used directly, TimelineMixerComponent inherits this,...">
<polygon fill="none" stroke="black" points="136,-19.5 136,-38.75 288.5,-38.75 288.5,-19.5 136,-19.5"/>
<text text-anchor="middle" x="212.25" y="-25.25" font-family="Helvetica,sans-Serif" font-size="10.00">TimelineMixer.TimelineMixerBase</text>
</a>
</g>
</g>
<!-- Node0&#45;&gt;Node1 -->
<g id="edge1" class="edge">
<title>Node0&#45;&gt;Node1</title>
<path fill="none" stroke="midnightblue" d="M111.61,-40.94C119.42,-40.01 127.49,-39.06 135.51,-38.11"/>
<polygon fill="midnightblue" stroke="midnightblue" points="111.41,-37.44 101.89,-42.09 112.23,-44.39 111.41,-37.44"/>
</g>
<!-- Node2 -->
<g id="node3" class="node">
<title>Node2</title>
<g id="a_node3"><a xlink:href="class_timeline_mixer_1_1_timeline_mixer_component.html" target="_top" xlink:title=" ">
<polygon fill="none" stroke="black" points="324.5,-13.88 324.5,-44.38 453.75,-44.38 453.75,-13.88 324.5,-13.88"/>
<text text-anchor="start" x="332.5" y="-30.88" font-family="Helvetica,sans-Serif" font-size="10.00">TimelineMixer.TimelineMixer</text>
<text text-anchor="middle" x="389.12" y="-19.62" font-family="Helvetica,sans-Serif" font-size="10.00">Component</text>
</a>
</g>
</g>
<!-- Node1&#45;&gt;Node2 -->
<g id="edge2" class="edge">
<title>Node1&#45;&gt;Node2</title>
<path fill="none" stroke="midnightblue" d="M300.26,-29.12C308.29,-29.12 316.33,-29.12 324.1,-29.12"/>
<polygon fill="midnightblue" stroke="midnightblue" points="300.45,-25.63 290.45,-29.13 300.45,-32.63 300.45,-25.63"/>
</g>
<!-- Node3 -->
<g id="node4" class="node">
<title>Node3</title>
<g id="a_node4"><a xlink:title=" ">
<polygon fill="none" stroke="#bfbfbf" points="8.62,-0.5 8.62,-19.75 91.38,-19.75 91.38,-0.5 8.62,-0.5"/>
<text text-anchor="middle" x="50" y="-6.25" font-family="Helvetica,sans-Serif" font-size="10.00">MonoBehaviour</text>
</a>
</g>
</g>
<!-- Node3&#45;&gt;Node1 -->
<g id="edge3" class="edge">
<title>Node3&#45;&gt;Node1</title>
<path fill="none" stroke="midnightblue" d="M103.2,-16.31C113.55,-17.54 124.61,-18.85 135.57,-20.15"/>
<polygon fill="midnightblue" stroke="midnightblue" points="103.7,-12.85 93.36,-15.15 102.87,-19.8 103.7,-12.85"/>
</g>
</g>
</svg>
