<?xml version="1.0" encoding="UTF-8" standalone="no"?>
<!DOCTYPE svg PUBLIC "-//W3C//DTD SVG 1.1//EN"
 "http://www.w3.org/Graphics/SVG/1.1/DTD/svg11.dtd">
<!-- Generated by graphviz version 12.0.0 (20240704.0754)
 -->
<!-- Title: Graphical Class Hierarchy Pages: 1 -->
<svg width="256pt" height="78pt"
 viewBox="0.00 0.00 256.00 77.88" xmlns="http://www.w3.org/2000/svg" xmlns:xlink="http://www.w3.org/1999/xlink">
<g id="graph0" class="graph" transform="scale(1 1) rotate(0) translate(4 73.88)">
<title>Graphical Class Hierarchy</title>
<!-- Node0 -->
<g id="node1" class="node">
<title>Node0</title>
<g id="a_node1"><a xlink:title=" ">
<polygon fill="none" stroke="#bfbfbf" points="0,-28.12 0,-47.38 97,-47.38 97,-28.12 0,-28.12"/>
<text text-anchor="middle" x="48.5" y="-33.88" font-family="Helvetica,sans-Serif" font-size="10.00">PlayableBehaviour</text>
</a>
</g>
</g>
<!-- Node1 -->
<g id="node2" class="node">
<title>Node1</title>
<g id="a_node2"><a xlink:href="class_passthrough_playable.html" target="_top" xlink:title="This is simply an empty placeholder passthrough playable used to construct the PlayableGraph and hold...">
<polygon fill="none" stroke="black" points="136.38,-50.12 136.38,-69.38 244.62,-69.38 244.62,-50.12 136.38,-50.12"/>
<text text-anchor="middle" x="190.5" y="-55.88" font-family="Helvetica,sans-Serif" font-size="10.00">PassthroughPlayable</text>
</a>
</g>
</g>
<!-- Node0&#45;&gt;Node1 -->
<g id="edge1" class="edge">
<title>Node0&#45;&gt;Node1</title>
<path fill="none" stroke="midnightblue" d="M108.36,-47C117.58,-48.45 127.07,-49.94 136.16,-51.37"/>
<polygon fill="midnightblue" stroke="midnightblue" points="109.21,-43.59 98.78,-45.49 108.12,-50.5 109.21,-43.59"/>
</g>
<!-- Node2 -->
<g id="node3" class="node">
<title>Node2</title>
<g id="a_node3"><a xlink:href="class_simple_1_1_timeline_1_1_timeline_mixer_playable.html" target="_top" xlink:title=" ">
<polygon fill="none" stroke="black" points="133,-0.5 133,-31 248,-31 248,-0.5 133,-0.5"/>
<text text-anchor="start" x="141" y="-17.5" font-family="Helvetica,sans-Serif" font-size="10.00">Simple.Timeline.Timeline</text>
<text text-anchor="middle" x="190.5" y="-6.25" font-family="Helvetica,sans-Serif" font-size="10.00">MixerPlayable</text>
</a>
</g>
</g>
<!-- Node0&#45;&gt;Node2 -->
<g id="edge2" class="edge">
<title>Node0&#45;&gt;Node2</title>
<path fill="none" stroke="midnightblue" d="M108.47,-28.48C116.51,-27.22 124.75,-25.93 132.75,-24.67"/>
<polygon fill="midnightblue" stroke="midnightblue" points="108.12,-25 98.78,-30.01 109.21,-31.91 108.12,-25"/>
</g>
</g>
</svg>
