<?xml version="1.0" encoding="UTF-8" standalone="no"?>
<!DOCTYPE svg PUBLIC "-//W3C//DTD SVG 1.1//EN"
 "http://www.w3.org/Graphics/SVG/1.1/DTD/svg11.dtd">
<!-- Generated by graphviz version 12.0.0 (20240704.0754)
 -->
<!-- Title: Graphical Class Hierarchy Pages: 1 -->
<svg width="270pt" height="90pt"
 viewBox="0.00 0.00 270.25 89.50" xmlns="http://www.w3.org/2000/svg" xmlns:xlink="http://www.w3.org/1999/xlink">
<g id="graph0" class="graph" transform="scale(1 1) rotate(0) translate(4 85.5)">
<title>Graphical Class Hierarchy</title>
<!-- Node0 -->
<g id="node1" class="node">
<title>Node0</title>
<g id="a_node1"><a xlink:title=" ">
<polygon fill="none" stroke="#bfbfbf" points="0,-31.12 0,-50.38 97,-50.38 97,-31.12 0,-31.12"/>
<text text-anchor="middle" x="48.5" y="-36.88" font-family="Helvetica,sans-Serif" font-size="10.00">PlayableBehaviour</text>
</a>
</g>
</g>
<!-- Node1 -->
<g id="node2" class="node">
<title>Node1</title>
<g id="a_node2"><a xlink:href="class_timeline_mixer_1_1_passthrough_playable.html" target="_top" xlink:title="This is simply an empty placeholder passthrough playable used to construct and structure the Playable...">
<polygon fill="none" stroke="black" points="133.75,-50.5 133.75,-81 261.5,-81 261.5,-50.5 133.75,-50.5"/>
<text text-anchor="start" x="141.75" y="-67.5" font-family="Helvetica,sans-Serif" font-size="10.00">TimelineMixer.Passthrough</text>
<text text-anchor="middle" x="197.62" y="-56.25" font-family="Helvetica,sans-Serif" font-size="10.00">Playable</text>
</a>
</g>
</g>
<!-- Node0&#45;&gt;Node1 -->
<g id="edge1" class="edge">
<title>Node0&#45;&gt;Node1</title>
<path fill="none" stroke="midnightblue" d="M108.57,-50.79C116.7,-52.17 125.09,-53.59 133.3,-54.99"/>
<polygon fill="midnightblue" stroke="midnightblue" points="109.2,-47.35 98.76,-49.12 108.03,-54.25 109.2,-47.35"/>
</g>
<!-- Node2 -->
<g id="node3" class="node">
<title>Node2</title>
<g id="a_node3"><a xlink:href="class_timeline_mixer_1_1_timeline_mixer_playable.html" target="_top" xlink:title=" ">
<polygon fill="none" stroke="black" points="133,-0.5 133,-31 262.25,-31 262.25,-0.5 133,-0.5"/>
<text text-anchor="start" x="141" y="-17.5" font-family="Helvetica,sans-Serif" font-size="10.00">TimelineMixer.TimelineMixer</text>
<text text-anchor="middle" x="197.62" y="-6.25" font-family="Helvetica,sans-Serif" font-size="10.00">Playable</text>
</a>
</g>
</g>
<!-- Node0&#45;&gt;Node2 -->
<g id="edge2" class="edge">
<title>Node0&#45;&gt;Node2</title>
<path fill="none" stroke="midnightblue" d="M108.59,-30.71C116.46,-29.37 124.56,-28 132.51,-26.65"/>
<polygon fill="midnightblue" stroke="midnightblue" points="108.03,-27.25 98.76,-32.38 109.2,-34.15 108.03,-27.25"/>
</g>
</g>
</svg>
