<?xml version="1.0" encoding="UTF-8" standalone="no"?>
<!DOCTYPE svg PUBLIC "-//W3C//DTD SVG 1.1//EN"
 "http://www.w3.org/Graphics/SVG/1.1/DTD/svg11.dtd">
<!-- Generated by graphviz version 12.0.0 (20240704.0754)
 -->
<!-- Title: Graphical Class Hierarchy Pages: 1 -->
<svg width="393pt" height="40pt"
 viewBox="0.00 0.00 392.75 39.50" xmlns="http://www.w3.org/2000/svg" xmlns:xlink="http://www.w3.org/1999/xlink">
<g id="graph0" class="graph" transform="scale(1 1) rotate(0) translate(4 35.5)">
<title>Graphical Class Hierarchy</title>
<!-- Node0 -->
<g id="node1" class="node">
<title>Node0</title>
<g id="a_node1"><a xlink:title=" ">
<polygon fill="none" stroke="#bfbfbf" points="0,-6.12 0,-25.38 82.75,-25.38 82.75,-6.12 0,-6.12"/>
<text text-anchor="middle" x="41.38" y="-11.88" font-family="Helvetica,sans-Serif" font-size="10.00">MonoBehaviour</text>
</a>
</g>
</g>
<!-- Node1 -->
<g id="node2" class="node">
<title>Node1</title>
<g id="a_node2"><a xlink:href="class_simple_1_1_timeline_1_1_timeline_component.html" target="_top" xlink:title=" ">
<polygon fill="none" stroke="black" points="118.75,-0.5 118.75,-31 233.75,-31 233.75,-0.5 118.75,-0.5"/>
<text text-anchor="start" x="126.75" y="-17.5" font-family="Helvetica,sans-Serif" font-size="10.00">Simple.Timeline.Timeline</text>
<text text-anchor="middle" x="176.25" y="-6.25" font-family="Helvetica,sans-Serif" font-size="10.00">Component</text>
</a>
</g>
</g>
<!-- Node0&#45;&gt;Node1 -->
<g id="edge1" class="edge">
<title>Node0&#45;&gt;Node1</title>
<path fill="none" stroke="midnightblue" d="M94.25,-15.75C102.13,-15.75 110.3,-15.75 118.28,-15.75"/>
<polygon fill="midnightblue" stroke="midnightblue" points="94.48,-12.25 84.48,-15.75 94.48,-19.25 94.48,-12.25"/>
</g>
<!-- Node2 -->
<g id="node3" class="node">
<title>Node2</title>
<g id="a_node3"><a xlink:href="class_simple_1_1_timeline_1_1_timeline_mixer.html" target="_top" xlink:title=" ">
<polygon fill="none" stroke="black" points="269.75,-0.5 269.75,-31 384.75,-31 384.75,-0.5 269.75,-0.5"/>
<text text-anchor="start" x="277.75" y="-17.5" font-family="Helvetica,sans-Serif" font-size="10.00">Simple.Timeline.Timeline</text>
<text text-anchor="middle" x="327.25" y="-6.25" font-family="Helvetica,sans-Serif" font-size="10.00">Mixer</text>
</a>
</g>
</g>
<!-- Node1&#45;&gt;Node2 -->
<g id="edge2" class="edge">
<title>Node1&#45;&gt;Node2</title>
<path fill="none" stroke="midnightblue" d="M245.38,-15.75C253.5,-15.75 261.72,-15.75 269.65,-15.75"/>
<polygon fill="midnightblue" stroke="midnightblue" points="245.52,-12.25 235.52,-15.75 245.52,-19.25 245.52,-12.25"/>
</g>
</g>
</svg>
