<?xml version="1.0" encoding="UTF-8" standalone="no"?>
<!DOCTYPE svg PUBLIC "-//W3C//DTD SVG 1.1//EN"
 "http://www.w3.org/Graphics/SVG/1.1/DTD/svg11.dtd">
<!-- Generated by graphviz version 12.0.0 (20240704.0754)
 -->
<!-- Title: Graphical Class Hierarchy Pages: 1 -->
<svg width="256pt" height="116pt"
 viewBox="0.00 0.00 256.00 116.25" xmlns="http://www.w3.org/2000/svg" xmlns:xlink="http://www.w3.org/1999/xlink">
<g id="graph0" class="graph" transform="scale(1 1) rotate(0) translate(4 112.25)">
<title>Graphical Class Hierarchy</title>
<!-- Node0 -->
<g id="node1" class="node">
<title>Node0</title>
<g id="a_node1"><a xlink:title=" ">
<polygon fill="none" stroke="#bfbfbf" points="0,-44.5 0,-63.75 97,-63.75 97,-44.5 0,-44.5"/>
<text text-anchor="middle" x="48.5" y="-50.25" font-family="Helvetica,sans-Serif" font-size="10.00">PlayableBehaviour</text>
</a>
</g>
</g>
<!-- Node1 -->
<g id="node2" class="node">
<title>Node1</title>
<g id="a_node2"><a xlink:href="class_passthrough_playable.html" target="_top" xlink:title="This is simply an empty placeholder passthrough playable used to construct the PlayableGraph and hold...">
<polygon fill="none" stroke="black" points="136.38,-88.5 136.38,-107.75 244.62,-107.75 244.62,-88.5 136.38,-88.5"/>
<text text-anchor="middle" x="190.5" y="-94.25" font-family="Helvetica,sans-Serif" font-size="10.00">PassthroughPlayable</text>
</a>
</g>
</g>
<!-- Node0&#45;&gt;Node1 -->
<g id="edge1" class="edge">
<title>Node0&#45;&gt;Node1</title>
<path fill="none" stroke="midnightblue" d="M92.5,-67.64C113.47,-74.23 138.26,-82.02 157.53,-88.08"/>
<polygon fill="midnightblue" stroke="midnightblue" points="93.65,-64.33 83.06,-64.67 91.55,-71.01 93.65,-64.33"/>
</g>
<!-- Node2 -->
<g id="node3" class="node">
<title>Node2</title>
<g id="a_node3"><a xlink:href="class_simple_1_1_timeline_1_1_timeline_mixer_playable.html" target="_top" xlink:title=" ">
<polygon fill="none" stroke="black" points="133,-38.88 133,-69.38 248,-69.38 248,-38.88 133,-38.88"/>
<text text-anchor="start" x="141" y="-55.88" font-family="Helvetica,sans-Serif" font-size="10.00">Simple.Timeline.Timeline</text>
<text text-anchor="middle" x="190.5" y="-44.62" font-family="Helvetica,sans-Serif" font-size="10.00">MixerPlayable</text>
</a>
</g>
</g>
<!-- Node0&#45;&gt;Node2 -->
<g id="edge2" class="edge">
<title>Node0&#45;&gt;Node2</title>
<path fill="none" stroke="midnightblue" d="M108.75,-54.12C116.7,-54.12 124.84,-54.12 132.75,-54.12"/>
<polygon fill="midnightblue" stroke="midnightblue" points="108.8,-50.63 98.8,-54.13 108.8,-57.63 108.8,-50.63"/>
</g>
<!-- Node3 -->
<g id="node4" class="node">
<title>Node3</title>
<g id="a_node4"><a xlink:href="class_time_match_playable.html" target="_top" xlink:title="TimeNotificationBehaviour matches its duration with the timeline, but not the actual time of the Time...">
<polygon fill="none" stroke="black" points="140.5,-0.5 140.5,-19.75 240.5,-19.75 240.5,-0.5 140.5,-0.5"/>
<text text-anchor="middle" x="190.5" y="-6.25" font-family="Helvetica,sans-Serif" font-size="10.00">TimeMatchPlayable</text>
</a>
</g>
</g>
<!-- Node0&#45;&gt;Node3 -->
<g id="edge3" class="edge">
<title>Node0&#45;&gt;Node3</title>
<path fill="none" stroke="midnightblue" d="M92.5,-40.61C113.47,-34.02 138.26,-26.23 157.53,-20.17"/>
<polygon fill="midnightblue" stroke="midnightblue" points="91.55,-37.24 83.06,-43.58 93.65,-43.92 91.55,-37.24"/>
</g>
</g>
</svg>
