<?xml version="1.0" encoding="UTF-8" standalone="no"?>
<!DOCTYPE svg PUBLIC "-//W3C//DTD SVG 1.1//EN"
 "http://www.w3.org/Graphics/SVG/1.1/DTD/svg11.dtd">
<!-- Generated by graphviz version 12.0.0 (20240704.0754)
 -->
<!-- Title: Graphical Class Hierarchy Pages: 1 -->
<svg width="497pt" height="190pt"
 viewBox="0.00 0.00 497.00 189.50" xmlns="http://www.w3.org/2000/svg" xmlns:xlink="http://www.w3.org/1999/xlink">
<g id="graph0" class="graph" transform="scale(1 1) rotate(0) translate(4 185.5)">
<title>Graphical Class Hierarchy</title>
<!-- Node0 -->
<g id="node1" class="node">
<title>Node0</title>
<g id="a_node1"><a xlink:href="interface_timeline_mixer_1_1_i_track_processor.html" target="_top" xlink:title=" ">
<polygon fill="none" stroke="black" points="0,-81.12 0,-100.38 141.25,-100.38 141.25,-81.12 0,-81.12"/>
<text text-anchor="middle" x="70.62" y="-86.88" font-family="Helvetica,sans-Serif" font-size="10.00">TimelineMixer.ITrackProcessor</text>
</a>
</g>
</g>
<!-- Node1 -->
<g id="node2" class="node">
<title>Node1</title>
<g id="a_node2"><a xlink:href="class_timeline_mixer_1_1_track_processor.html" target="_top" xlink:title="Track processor for timeline tracks that do not have a custom track processor, this will connect all ...">
<polygon fill="none" stroke="black" points="177.25,-81.12 177.25,-100.38 315.5,-100.38 315.5,-81.12 177.25,-81.12"/>
<text text-anchor="middle" x="246.38" y="-86.88" font-family="Helvetica,sans-Serif" font-size="10.00">TimelineMixer.TrackProcessor</text>
</a>
</g>
</g>
<!-- Node0&#45;&gt;Node1 -->
<g id="edge1" class="edge">
<title>Node0&#45;&gt;Node1</title>
<path fill="none" stroke="midnightblue" d="M152.88,-90.75C160.95,-90.75 169.09,-90.75 177.01,-90.75"/>
<polygon fill="midnightblue" stroke="midnightblue" points="153.06,-87.25 143.06,-90.75 153.06,-94.25 153.06,-87.25"/>
</g>
<!-- Node2 -->
<g id="node3" class="node">
<title>Node2</title>
<g id="a_node3"><a xlink:href="class_timeline_mixer_1_1_animation_track_processor.html" target="_top" xlink:title="Processes animation tracks and connects them to the correct mixer on the playable graph....">
<polygon fill="none" stroke="black" points="351.5,-150.5 351.5,-181 489,-181 489,-150.5 351.5,-150.5"/>
<text text-anchor="start" x="359.5" y="-167.5" font-family="Helvetica,sans-Serif" font-size="10.00">TimelineMixer.AnimationTrack</text>
<text text-anchor="middle" x="420.25" y="-156.25" font-family="Helvetica,sans-Serif" font-size="10.00">Processor</text>
</a>
</g>
</g>
<!-- Node1&#45;&gt;Node2 -->
<g id="edge2" class="edge">
<title>Node1&#45;&gt;Node2</title>
<path fill="none" stroke="midnightblue" d="M276.75,-105.77C297.42,-116.11 325.87,-129.9 351.5,-140.75 359,-143.93 367.07,-147.1 374.92,-150.07"/>
<polygon fill="midnightblue" stroke="midnightblue" points="278.56,-102.76 268.05,-101.39 275.41,-109.01 278.56,-102.76"/>
</g>
<!-- Node3 -->
<g id="node4" class="node">
<title>Node3</title>
<g id="a_node4"><a xlink:href="class_timeline_mixer_1_1_audio_track_processor.html" target="_top" xlink:title="Processes audio tracks and connects them to the correct mixer on the playable graph....">
<polygon fill="none" stroke="black" points="360.12,-100.5 360.12,-131 480.38,-131 480.38,-100.5 360.12,-100.5"/>
<text text-anchor="start" x="368.12" y="-117.5" font-family="Helvetica,sans-Serif" font-size="10.00">TimelineMixer.AudioTrack</text>
<text text-anchor="middle" x="420.25" y="-106.25" font-family="Helvetica,sans-Serif" font-size="10.00">Processor</text>
</a>
</g>
</g>
<!-- Node1&#45;&gt;Node3 -->
<g id="edge3" class="edge">
<title>Node1&#45;&gt;Node3</title>
<path fill="none" stroke="midnightblue" d="M327.13,-102.35C338.08,-103.94 349.16,-105.56 359.66,-107.08"/>
<polygon fill="midnightblue" stroke="midnightblue" points="327.7,-98.9 317.3,-100.92 326.69,-105.82 327.7,-98.9"/>
</g>
<!-- Node4 -->
<g id="node5" class="node">
<title>Node4</title>
<g id="a_node5"><a xlink:href="class_timeline_mixer_1_1_marker_track_processor.html" target="_top" xlink:title="This track processor will connect the marker track to the graph.">
<polygon fill="none" stroke="black" points="357.88,-50.5 357.88,-81 482.62,-81 482.62,-50.5 357.88,-50.5"/>
<text text-anchor="start" x="365.88" y="-67.5" font-family="Helvetica,sans-Serif" font-size="10.00">TimelineMixer.MarkerTrack</text>
<text text-anchor="middle" x="420.25" y="-56.25" font-family="Helvetica,sans-Serif" font-size="10.00">Processor</text>
</a>
</g>
</g>
<!-- Node1&#45;&gt;Node4 -->
<g id="edge4" class="edge">
<title>Node1&#45;&gt;Node4</title>
<path fill="none" stroke="midnightblue" d="M326.87,-79.19C337.14,-77.69 347.54,-76.18 357.47,-74.74"/>
<polygon fill="midnightblue" stroke="midnightblue" points="326.69,-75.68 317.3,-80.58 327.7,-82.6 326.69,-75.68"/>
</g>
<!-- Node5 -->
<g id="node6" class="node">
<title>Node5</title>
<g id="a_node6"><a xlink:href="class_timeline_mixer_1_1_signal_track_processor.html" target="_top" xlink:title="Setup outputs for Signal tracks">
<polygon fill="none" stroke="black" points="359,-0.5 359,-31 481.5,-31 481.5,-0.5 359,-0.5"/>
<text text-anchor="start" x="367" y="-17.5" font-family="Helvetica,sans-Serif" font-size="10.00">TimelineMixer.SignalTrack</text>
<text text-anchor="middle" x="420.25" y="-6.25" font-family="Helvetica,sans-Serif" font-size="10.00">Processor</text>
</a>
</g>
</g>
<!-- Node1&#45;&gt;Node5 -->
<g id="edge5" class="edge">
<title>Node1&#45;&gt;Node5</title>
<path fill="none" stroke="midnightblue" d="M276.75,-75.73C297.42,-65.39 325.87,-51.6 351.5,-40.75 359,-37.57 367.07,-34.4 374.92,-31.43"/>
<polygon fill="midnightblue" stroke="midnightblue" points="275.41,-72.49 268.05,-80.11 278.56,-78.74 275.41,-72.49"/>
</g>
</g>
</svg>
