<?xml version="1.0" encoding="UTF-8" standalone="no"?>
<!DOCTYPE svg PUBLIC "-//W3C//DTD SVG 1.1//EN"
 "http://www.w3.org/Graphics/SVG/1.1/DTD/svg11.dtd">
<!-- Generated by graphviz version 12.0.0 (20240704.0754)
 -->
<!-- Title: Graphical Class Hierarchy Pages: 1 -->
<svg width="270pt" height="88pt"
 viewBox="0.00 0.00 270.25 87.50" xmlns="http://www.w3.org/2000/svg" xmlns:xlink="http://www.w3.org/1999/xlink">
<g id="graph0" class="graph" transform="scale(1 1) rotate(0) translate(4 83.5)">
<title>Graphical Class Hierarchy</title>
<!-- Node0 -->
<g id="Node000000" class="node">
<title>Node0</title>
<g id="a_Node000000"><a xlink:title=" ">
<polygon fill="#e0e0e0" stroke="#999999" points="97,-48.88 0,-48.88 0,-29.62 97,-29.62 97,-48.88"/>
<text text-anchor="middle" x="48.5" y="-35.38" font-family="Helvetica,sans-Serif" font-size="10.00">PlayableBehaviour</text>
</a>
</g>
</g>
<!-- Node1 -->
<g id="Node000001" class="node">
<title>Node1</title>
<g id="a_Node000001"><a xlink:href="class_timeline_mixer_1_1_passthrough_playable.html" target="_top" xlink:title="This is simply an empty placeholder passthrough playable used to construct and structure the Playable...">
<polygon fill="white" stroke="#666666" points="261.5,-79.5 133.75,-79.5 133.75,-49 261.5,-49 261.5,-79.5"/>
<text text-anchor="start" x="141.75" y="-66" font-family="Helvetica,sans-Serif" font-size="10.00">TimelineMixer.Passthrough</text>
<text text-anchor="middle" x="197.62" y="-54.75" font-family="Helvetica,sans-Serif" font-size="10.00">Playable</text>
</a>
</g>
</g>
<!-- Node0&#45;&gt;Node1 -->
<g id="edge7_Node000000_Node000001" class="edge">
<title>Node0&#45;&gt;Node1</title>
<g id="a_edge7_Node000000_Node000001"><a xlink:title=" ">
<path fill="none" stroke="#63b8ff" d="M108.57,-49.29C116.7,-50.67 125.09,-52.09 133.3,-53.49"/>
<polygon fill="#63b8ff" stroke="#63b8ff" points="109.2,-45.85 98.76,-47.62 108.03,-52.75 109.2,-45.85"/>
</a>
</g>
</g>
<!-- Node2 -->
<g id="Node000002" class="node">
<title>Node2</title>
<g id="a_Node000002"><a xlink:href="class_timeline_mixer_1_1_timeline_mixer_playable.html" target="_top" xlink:title=" ">
<polygon fill="white" stroke="#666666" points="262.25,-30.5 133,-30.5 133,0 262.25,0 262.25,-30.5"/>
<text text-anchor="start" x="141" y="-17" font-family="Helvetica,sans-Serif" font-size="10.00">TimelineMixer.TimelineMixer</text>
<text text-anchor="middle" x="197.62" y="-5.75" font-family="Helvetica,sans-Serif" font-size="10.00">Playable</text>
</a>
</g>
</g>
<!-- Node0&#45;&gt;Node2 -->
<g id="edge8_Node000000_Node000002" class="edge">
<title>Node0&#45;&gt;Node2</title>
<g id="a_edge8_Node000000_Node000002"><a xlink:title=" ">
<path fill="none" stroke="#63b8ff" d="M108.59,-29.61C116.46,-28.33 124.56,-27.01 132.51,-25.71"/>
<polygon fill="#63b8ff" stroke="#63b8ff" points="108.07,-26.15 98.76,-31.21 109.19,-33.06 108.07,-26.15"/>
</a>
</g>
</g>
</g>
</svg>
