<?xml version="1.0" encoding="UTF-8" standalone="no"?>
<!DOCTYPE svg PUBLIC "-//W3C//DTD SVG 1.1//EN"
 "http://www.w3.org/Graphics/SVG/1.1/DTD/svg11.dtd">
<!-- Generated by graphviz version 12.0.0 (20240704.0754)
 -->
<!-- Title: Graphical Class Hierarchy Pages: 1 -->
<svg width="462pt" height="64pt"
 viewBox="0.00 0.00 461.75 64.25" xmlns="http://www.w3.org/2000/svg" xmlns:xlink="http://www.w3.org/1999/xlink">
<g id="graph0" class="graph" transform="scale(1 1) rotate(0) translate(4 60.25)">
<title>Graphical Class Hierarchy</title>
<!-- Node0 -->
<g id="Node000000" class="node">
<title>Node0</title>
<g id="a_Node000000"><a xlink:title=" ">
<polygon fill="#e0e0e0" stroke="#999999" points="100,-56.25 0,-56.25 0,-37 100,-37 100,-56.25"/>
<text text-anchor="middle" x="50" y="-42.75" font-family="Helvetica,sans-Serif" font-size="10.00">INotificationReceiver</text>
</a>
</g>
</g>
<!-- Node1 -->
<g id="Node000001" class="node">
<title>Node1</title>
<g id="a_Node000001"><a xlink:href="class_timeline_mixer_1_1_timeline_mixer_base.html" target="_top" xlink:title="This component is not intended to be used directly, TimelineMixerComponent inherits this,...">
<polygon fill="white" stroke="#666666" points="288.5,-37.25 136,-37.25 136,-18 288.5,-18 288.5,-37.25"/>
<text text-anchor="middle" x="212.25" y="-23.75" font-family="Helvetica,sans-Serif" font-size="10.00">TimelineMixer.TimelineMixerBase</text>
</a>
</g>
</g>
<!-- Node0&#45;&gt;Node1 -->
<g id="edge4_Node000000_Node000001" class="edge">
<title>Node0&#45;&gt;Node1</title>
<g id="a_edge4_Node000000_Node000001"><a xlink:title=" ">
<path fill="none" stroke="#63b8ff" d="M111.61,-39.44C119.42,-38.51 127.49,-37.56 135.51,-36.61"/>
<polygon fill="#63b8ff" stroke="#63b8ff" points="111.41,-35.94 101.89,-40.59 112.23,-42.89 111.41,-35.94"/>
</a>
</g>
</g>
<!-- Node2 -->
<g id="Node000002" class="node">
<title>Node2</title>
<g id="a_Node000002"><a xlink:href="class_timeline_mixer_1_1_timeline_mixer_component.html" target="_top" xlink:title=" ">
<polygon fill="white" stroke="#666666" points="453.75,-42.88 324.5,-42.88 324.5,-12.38 453.75,-12.38 453.75,-42.88"/>
<text text-anchor="start" x="332.5" y="-29.38" font-family="Helvetica,sans-Serif" font-size="10.00">TimelineMixer.TimelineMixer</text>
<text text-anchor="middle" x="389.12" y="-18.12" font-family="Helvetica,sans-Serif" font-size="10.00">Component</text>
</a>
</g>
</g>
<!-- Node1&#45;&gt;Node2 -->
<g id="edge5_Node000001_Node000002" class="edge">
<title>Node1&#45;&gt;Node2</title>
<g id="a_edge5_Node000001_Node000002"><a xlink:title=" ">
<path fill="none" stroke="#63b8ff" d="M300.26,-27.62C308.29,-27.62 316.33,-27.62 324.1,-27.62"/>
<polygon fill="#63b8ff" stroke="#63b8ff" points="300.45,-24.13 290.45,-27.63 300.45,-31.13 300.45,-24.13"/>
</a>
</g>
</g>
<!-- Node3 -->
<g id="Node000003" class="node">
<title>Node3</title>
<g id="a_Node000003"><a xlink:title=" ">
<polygon fill="#e0e0e0" stroke="#999999" points="91.38,-19.25 8.62,-19.25 8.62,0 91.38,0 91.38,-19.25"/>
<text text-anchor="middle" x="50" y="-5.75" font-family="Helvetica,sans-Serif" font-size="10.00">MonoBehaviour</text>
</a>
</g>
</g>
<!-- Node3&#45;&gt;Node1 -->
<g id="edge6_Node000003_Node000001" class="edge">
<title>Node3&#45;&gt;Node1</title>
<g id="a_edge6_Node000003_Node000001"><a xlink:title=" ">
<path fill="none" stroke="#63b8ff" d="M103.2,-15.49C113.55,-16.65 124.61,-17.89 135.57,-19.12"/>
<polygon fill="#63b8ff" stroke="#63b8ff" points="103.68,-12.02 93.36,-14.38 102.9,-18.98 103.68,-12.02"/>
</a>
</g>
</g>
</g>
</svg>
