<?xml version="1.0" encoding="UTF-8" standalone="no"?>
<!DOCTYPE svg PUBLIC "-//W3C//DTD SVG 1.1//EN"
 "http://www.w3.org/Graphics/SVG/1.1/DTD/svg11.dtd">
<!-- Generated by graphviz version 12.0.0 (20240704.0754)
 -->
<!-- Title: Simple.Timeline.ITrackProcessor Pages: 1 -->
<svg width="432pt" height="142pt"
 viewBox="0.00 0.00 431.75 142.25" xmlns="http://www.w3.org/2000/svg" xmlns:xlink="http://www.w3.org/1999/xlink">
<g id="graph0" class="graph" transform="scale(1 1) rotate(0) translate(4 138.25)">
<title>Simple.Timeline.ITrackProcessor</title>
<!-- Node1 -->
<g id="node1" class="node">
<title>Node1</title>
<g id="a_node1"><a xlink:title=" ">
<polygon fill="#bfbfbf" stroke="black" points="0,-57.5 0,-76.75 149.5,-76.75 149.5,-57.5 0,-57.5"/>
<text text-anchor="middle" x="74.75" y="-63.25" font-family="Helvetica,sans-Serif" font-size="10.00">Simple.Timeline.ITrackProcessor</text>
</a>
</g>
</g>
<!-- Node2 -->
<g id="node2" class="node">
<title>Node2</title>
<g id="a_node2"><a xlink:href="class_track_processor.html" target="_top" xlink:title="Track processor for timeline tracks that do not have a custom track processor, this will connect all ...">
<polygon fill="none" stroke="black" points="185.5,-57.5 185.5,-76.75 266,-76.75 266,-57.5 185.5,-57.5"/>
<text text-anchor="middle" x="225.75" y="-63.25" font-family="Helvetica,sans-Serif" font-size="10.00">TrackProcessor</text>
</a>
</g>
</g>
<!-- Node1&#45;&gt;Node2 -->
<g id="edge1" class="edge">
<title>Node1&#45;&gt;Node2</title>
<path fill="none" stroke="midnightblue" d="M161.28,-67.12C169.63,-67.12 177.8,-67.12 185.34,-67.12"/>
<polygon fill="midnightblue" stroke="midnightblue" points="161.33,-63.63 151.33,-67.13 161.33,-70.63 161.33,-63.63"/>
</g>
<!-- Node3 -->
<g id="node3" class="node">
<title>Node3</title>
<g id="a_node3"><a xlink:href="class_animation_track_processor.html" target="_top" xlink:title="Processes animation tracks and connects them to the correct mixer on the playable graph....">
<polygon fill="none" stroke="black" points="302,-114.5 302,-133.75 423.75,-133.75 423.75,-114.5 302,-114.5"/>
<text text-anchor="middle" x="362.88" y="-120.25" font-family="Helvetica,sans-Serif" font-size="10.00">AnimationTrackProcessor</text>
</a>
</g>
</g>
<!-- Node2&#45;&gt;Node3 -->
<g id="edge2" class="edge">
<title>Node2&#45;&gt;Node3</title>
<path fill="none" stroke="midnightblue" d="M254.58,-82.52C268.56,-89.91 285.91,-98.56 302,-105.12 309.88,-108.34 318.51,-111.36 326.71,-114"/>
<polygon fill="midnightblue" stroke="midnightblue" points="256.42,-79.54 245.95,-77.89 253.1,-85.7 256.42,-79.54"/>
</g>
<!-- Node4 -->
<g id="node4" class="node">
<title>Node4</title>
<g id="a_node4"><a xlink:href="class_audio_track_processor.html" target="_top" xlink:title="Processes audio tracks and connects them to the correct mixer on the playable graph....">
<polygon fill="none" stroke="black" points="310.62,-76.5 310.62,-95.75 415.12,-95.75 415.12,-76.5 310.62,-76.5"/>
<text text-anchor="middle" x="362.88" y="-82.25" font-family="Helvetica,sans-Serif" font-size="10.00">AudioTrackProcessor</text>
</a>
</g>
</g>
<!-- Node2&#45;&gt;Node4 -->
<g id="edge3" class="edge">
<title>Node2&#45;&gt;Node4</title>
<path fill="none" stroke="midnightblue" d="M277.6,-74.27C288.37,-75.79 299.76,-77.39 310.55,-78.91"/>
<polygon fill="midnightblue" stroke="midnightblue" points="278.09,-70.81 267.7,-72.88 277.11,-77.74 278.09,-70.81"/>
</g>
<!-- Node5 -->
<g id="node5" class="node">
<title>Node5</title>
<g id="a_node5"><a xlink:href="class_marker_track_processor.html" target="_top" xlink:title="This track processor will connect the marker track to the graph.">
<polygon fill="none" stroke="black" points="308.38,-38.5 308.38,-57.75 417.38,-57.75 417.38,-38.5 308.38,-38.5"/>
<text text-anchor="middle" x="362.88" y="-44.25" font-family="Helvetica,sans-Serif" font-size="10.00">MarkerTrackProcessor</text>
</a>
</g>
</g>
<!-- Node2&#45;&gt;Node5 -->
<g id="edge4" class="edge">
<title>Node2&#45;&gt;Node5</title>
<path fill="none" stroke="midnightblue" d="M277.59,-59.98C287.54,-58.58 298.02,-57.1 308.06,-55.69"/>
<polygon fill="midnightblue" stroke="midnightblue" points="277.11,-56.51 267.7,-61.37 278.09,-63.44 277.11,-56.51"/>
</g>
<!-- Node6 -->
<g id="node6" class="node">
<title>Node6</title>
<g id="a_node6"><a xlink:href="class_signal_track_processor.html" target="_top" xlink:title="Setup outputs for Signal tracks">
<polygon fill="none" stroke="black" points="309.5,-0.5 309.5,-19.75 416.25,-19.75 416.25,-0.5 309.5,-0.5"/>
<text text-anchor="middle" x="362.88" y="-6.25" font-family="Helvetica,sans-Serif" font-size="10.00">SignalTrackProcessor</text>
</a>
</g>
</g>
<!-- Node2&#45;&gt;Node6 -->
<g id="edge5" class="edge">
<title>Node2&#45;&gt;Node6</title>
<path fill="none" stroke="midnightblue" d="M254.58,-51.73C268.56,-44.34 285.91,-35.69 302,-29.12 309.88,-25.91 318.51,-22.89 326.71,-20.25"/>
<polygon fill="midnightblue" stroke="midnightblue" points="253.1,-48.55 245.95,-56.36 256.42,-54.71 253.1,-48.55"/>
</g>
</g>
</svg>
